<svg width="60" height="60" viewBox="0 0 60 60" fill="none" xmlns="http://www.w3.org/2000/svg">
<mask id="mask0_3861_167" style="mask-type:alpha" maskUnits="userSpaceOnUse" x="0" y="0" width="60" height="60">
<rect width="60" height="60" fill="#D9D9D9"/>
</mask>
<g mask="url(#mask0_3861_167)">
<path d="M22.375 51.75C20.4167 51.75 18.5833 51.3854 16.875 50.6562C15.1667 49.9271 13.6667 48.9167 12.375 47.625C11.0833 46.3333 10.0729 44.8333 9.34375 43.125C8.61458 41.4167 8.25 39.5833 8.25 37.625C8.25 34.7917 9.01042 32.1875 10.5312 29.8125C12.0521 27.4375 14.1667 25.7083 16.875 24.625C17.625 22.8333 18.6562 21.2708 19.9688 19.9375C21.2812 18.6042 22.8333 17.5833 24.625 16.875C25.75 14.2083 27.4375 12.1042 29.6875 10.5625C31.9375 9.02083 34.5833 8.25 37.625 8.25C39.5833 8.25 41.4167 8.61458 43.125 9.34375C44.8333 10.0729 46.3333 11.0833 47.625 12.375C48.875 13.7083 49.875 15.2188 50.625 16.9062C51.375 18.5938 51.75 20.4167 51.75 22.375C51.75 25.3333 51.0208 27.9375 49.5625 30.1875C48.1042 32.4375 45.9583 34.1667 43.125 35.375C42.375 37.2083 41.3542 38.7604 40.0625 40.0313C38.7708 41.3021 37.2083 42.3333 35.375 43.125C34.2917 45.7917 32.6146 47.8958 30.3438 49.4375C28.0729 50.9792 25.4167 51.75 22.375 51.75ZM22.5 50.375C24.6667 50.375 26.8438 49.8021 29.0312 48.6562C31.2188 47.5104 32.8333 45.8542 33.875 43.6875C31.25 44.3125 28.7396 44.2604 26.3438 43.5312C23.9479 42.8021 21.875 41.6042 20.125 39.9375C18.4167 38.1875 17.1979 36.125 16.4688 33.75C15.7396 31.375 15.6875 28.875 16.3125 26.25C14.1875 27.375 12.5417 28.9896 11.375 31.0938C10.2083 33.1979 9.625 35.375 9.625 37.625C9.625 39.4167 9.95833 41.0833 10.625 42.625C11.2917 44.1667 12.2083 45.5208 13.375 46.6875C14.5833 47.8542 15.9583 48.7604 17.5 49.4062C19.0417 50.0521 20.7083 50.375 22.5 50.375ZM30 42.75C32.8333 42.75 35.25 42.0521 37.25 40.6562C39.25 39.2604 40.6667 37.7292 41.5 36.0625C38.875 36.6875 36.3646 36.6354 33.9688 35.9062C31.5729 35.1771 29.5208 33.9583 27.8125 32.25C26.0625 30.5 24.8229 28.4375 24.0938 26.0625C23.3646 23.6875 23.3333 21.1875 24 18.5625C22.0833 19.6458 20.5 21.1562 19.25 23.0938C18 25.0312 17.375 27.3333 17.375 30C17.375 31.75 17.6979 33.3958 18.3438 34.9375C18.9896 36.4792 19.8958 37.8333 21.0625 39C22.2292 40.2083 23.5729 41.1354 25.0938 41.7812C26.6146 42.4271 28.25 42.75 30 42.75ZM37.8125 35.0625C38.5625 35.0625 39.2917 35 40 34.875C40.7083 34.75 41.4375 34.5417 42.1875 34.25C43.0625 31.75 43.1979 29.3438 42.5938 27.0312C41.9896 24.7188 40.8333 22.7083 39.125 21C37.5 19.375 35.4792 18.25 33.0625 17.625C30.6458 17 28.2292 17.1042 25.8125 17.9375C25.5625 18.6458 25.375 19.3542 25.25 20.0625C25.125 20.7708 25.0625 21.5417 25.0625 22.375C25.0625 24.125 25.3958 25.7708 26.0625 27.3125C26.7292 28.8542 27.6458 30.2083 28.8125 31.375C29.9792 32.5833 31.3333 33.5 32.875 34.125C34.4167 34.75 36.0625 35.0625 37.8125 35.0625ZM43.875 33.75C45.875 32.6667 47.4583 31.2188 48.625 29.4063C49.7917 27.5938 50.375 25.25 50.375 22.375C50.375 20.625 50.0521 18.9792 49.4062 17.4375C48.7604 15.8958 47.8333 14.5417 46.625 13.375C45.4583 12.1667 44.1042 11.2396 42.5625 10.5938C41.0208 9.94792 39.375 9.625 37.625 9.625C35.125 9.625 32.9063 10.2188 30.9688 11.4062C29.0313 12.5938 27.4167 14.2083 26.125 16.25C28.75 15.625 31.2812 15.6771 33.7188 16.4062C36.1562 17.1354 38.25 18.3542 40 20.0625C41.75 21.8125 43 23.875 43.75 26.25C44.5 28.625 44.5417 31.125 43.875 33.75Z" fill="#1C1B1F"/>
</g>
</svg>
