<svg width="60" height="60" viewBox="0 0 60 60" fill="none" xmlns="http://www.w3.org/2000/svg">
<mask id="mask0_3861_157" style="mask-type:alpha" maskUnits="userSpaceOnUse" x="0" y="0" width="60" height="60">
<rect width="60" height="60" fill="#D9D9D9"/>
</mask>
<g mask="url(#mask0_3861_157)">
<path d="M30.0031 51.7501C26.9958 51.7501 24.1785 51.1795 21.5511 50.0382C18.9236 48.8968 16.62 47.3375 14.6401 45.3602C12.6603 43.3828 11.0991 41.0821 9.95631 38.458C8.81356 35.8339 8.24219 33.0182 8.24219 30.011C8.24219 27.0037 8.81283 24.176 9.95412 21.5277C11.0955 18.8795 12.6548 16.5758 14.6321 14.6169C16.6095 12.6579 18.9102 11.107 21.5343 9.96425C24.1584 8.8215 26.9741 8.25012 29.9813 8.25012C32.9886 8.25012 35.8163 8.82077 38.4646 9.96206C41.1128 11.1034 43.4165 12.6523 45.3754 14.6088C47.3344 16.5653 48.8853 18.8661 50.028 21.511C51.1708 24.1559 51.7422 26.982 51.7422 29.9892C51.7422 32.9965 51.1715 35.8138 50.0302 38.4412C48.8889 41.0687 47.34 43.3723 45.3835 45.3522C43.4269 47.332 41.1262 48.8932 38.4813 50.036C35.8364 51.1787 33.0103 51.7501 30.0031 51.7501ZM29.9922 50.3751C35.6588 50.3751 40.4713 48.3959 44.4297 44.4376C48.388 40.4793 50.3672 35.6668 50.3672 30.0001C50.3672 24.3334 48.388 19.521 44.4297 15.5626C40.4713 11.6043 35.6588 9.62512 29.9922 9.62512C24.3255 9.62512 19.513 11.6043 15.5547 15.5626C11.5964 19.521 9.61719 24.3334 9.61719 30.0001C9.61719 35.6668 11.5964 40.4793 15.5547 44.4376C19.513 48.3959 24.3255 50.3751 29.9922 50.3751Z" fill="#1C1B1F"/>
</g>
</svg>
