<svg width="60" height="60" viewBox="0 0 60 60" fill="none" xmlns="http://www.w3.org/2000/svg">
<mask id="mask0_3861_162" style="mask-type:alpha" maskUnits="userSpaceOnUse" x="0" y="0" width="60" height="60">
<rect width="60" height="60" fill="#D9D9D9"/>
</mask>
<g mask="url(#mask0_3861_162)">
<path d="M12.6875 43.6875C11.5208 42.0208 10.5938 40.2396 9.90625 38.3438C9.21875 36.4479 8.70833 34.5 8.375 32.5H9.75C10 34.3333 10.4583 36.0938 11.125 37.7813C11.7917 39.4688 12.7083 41.0417 13.875 42.5L12.6875 43.6875ZM8.375 27.5C8.625 25.5 9.125 23.5625 9.875 21.6875C10.625 19.8125 11.6042 18.0625 12.8125 16.4375L13.875 17.5C12.7083 18.9583 11.7917 20.5313 11.125 22.2188C10.4583 23.9063 10 25.6667 9.75 27.5H8.375ZM27.375 51.625C25.375 51.3333 23.4479 50.8125 21.5938 50.0625C19.7396 49.3125 17.9792 48.3542 16.3125 47.1875L17.375 46.0625C18.875 47.1458 20.4583 48.0521 22.125 48.7813C23.7917 49.5104 25.5417 50 27.375 50.25V51.625ZM17.5 13.8125L16.3125 12.75C17.9792 11.5833 19.7604 10.6458 21.6563 9.9375C23.5521 9.22917 25.5 8.70833 27.5 8.375V9.75C25.6667 10 23.9063 10.4583 22.2188 11.125C20.5313 11.7917 18.9583 12.6875 17.5 13.8125ZM32.375 51.625V50.25C34.2083 50 35.9896 49.5417 37.7188 48.875C39.4479 48.2083 41.0417 47.3125 42.5 46.1875L43.6875 47.1875C42.0208 48.3958 40.2292 49.3542 38.3125 50.0625C36.3958 50.7708 34.4167 51.2917 32.375 51.625ZM42.625 13.9375C41.125 12.8542 39.5208 11.9479 37.8125 11.2188C36.1042 10.4896 34.3333 10 32.5 9.75V8.375C34.5417 8.66667 36.4896 9.17708 38.3438 9.90625C40.1979 10.6354 41.9792 11.5833 43.6875 12.75L42.625 13.9375ZM47.25 43.5625L46.1875 42.5C47.3125 41.0417 48.2083 39.4688 48.875 37.7813C49.5417 36.0938 50 34.3333 50.25 32.5H51.625C51.375 34.5 50.8854 36.4375 50.1563 38.3125C49.4271 40.1875 48.4583 41.9375 47.25 43.5625ZM50.25 27.5C50 25.6667 49.5417 23.9063 48.875 22.2188C48.2083 20.5313 47.3125 18.9583 46.1875 17.5L47.375 16.3125C48.5 17.9792 49.4167 19.7604 50.125 21.6563C50.8333 23.5521 51.3333 25.5 51.625 27.5H50.25Z" fill="#1C1B1F"/>
<path d="M34.725 31.05C34.0417 31.9167 32.4667 33.4833 30 35.75C28.7417 34.5761 27.7354 33.6243 26.9813 32.8946C26.2271 32.1649 25.6477 31.5382 25.2432 31.0146C24.8386 30.491 24.572 30.0449 24.4432 29.6762C24.3144 29.3075 24.25 28.8844 24.25 28.4069C24.25 27.5356 24.5667 26.7917 25.2 26.175C25.8333 25.5583 26.5833 25.25 27.45 25.25C27.9333 25.25 28.4042 25.3562 28.8625 25.5687C29.3208 25.7812 29.7 26.0583 30 26.4C30.2902 26.0583 30.6544 25.7812 31.0926 25.5687C31.5309 25.3562 32.0167 25.25 32.55 25.25C33.4303 25.25 34.1837 25.5592 34.8103 26.1776C35.4368 26.796 35.75 27.5397 35.75 28.4088C35.75 29.3029 35.4083 30.1833 34.725 31.05Z" fill="#1C1B1F"/>
</g>
</svg>
