<svg width="60" height="60" viewBox="0 0 60 60" fill="none" xmlns="http://www.w3.org/2000/svg">
<mask id="mask0_3861_172" style="mask-type:alpha" maskUnits="userSpaceOnUse" x="0" y="0" width="60" height="60">
<rect width="60" height="60" fill="#D9D9D9"/>
</mask>
<g mask="url(#mask0_3861_172)">
<path d="M30 53.375C24.8346 53.375 20.1891 51.8542 16.0634 48.8125C11.9378 45.7708 9.16667 41.7708 7.75 36.8125H9.0625C10.5208 41.3958 13.176 45.0729 17.0281 47.8438C20.8803 50.6146 25.2042 52 30 52C34.5534 52 38.6397 50.6979 42.2588 48.0938C45.8779 45.4896 48.7917 42.2083 51 38.25H41.9375V36.8125H53.375V48.375H52V39.0625C49.7917 43.2708 46.7604 46.7083 42.9062 49.375C39.0521 52.0417 34.75 53.375 30 53.375ZM30.0184 33.875C28.9228 33.875 28 33.5 27.25 32.75C26.5 32 26.125 31.0772 26.125 29.9816C26.125 28.886 26.5 27.959 27.25 27.2004C28 26.4418 28.9228 26.0625 30.0184 26.0625C31.114 26.0625 32.041 26.4418 32.7996 27.2004C33.5582 27.959 33.9375 28.886 33.9375 29.9816C33.9375 31.0772 33.5582 32 32.7996 32.75C32.041 33.5 31.114 33.875 30.0184 33.875ZM6.625 23.125V11.625H8V20.875C10.2083 16.6667 13.2396 13.2396 17.0938 10.5938C20.9479 7.94792 25.25 6.625 30 6.625C35.149 6.625 39.7904 8.14583 43.9243 11.1875C48.0581 14.2292 50.8542 18.2083 52.3125 23.125H50.9375C49.4792 18.5417 46.8333 14.875 43 12.125C39.1667 9.375 34.8333 8 30 8C25.5 8 21.4271 9.30208 17.7812 11.9062C14.1354 14.5104 11.2292 17.7917 9.0625 21.75H18.0625V23.125H6.625Z" fill="#1C1B1F"/>
</g>
</svg>
