<svg width="60" height="60" viewBox="0 0 60 60" fill="none" xmlns="http://www.w3.org/2000/svg">
<mask id="mask0_3861_152" style="mask-type:alpha" maskUnits="userSpaceOnUse" x="0" y="0" width="60" height="60">
<rect width="60" height="60" fill="#D9D9D9"/>
</mask>
<g mask="url(#mask0_3861_152)">
<path d="M20 44.25C16.0417 44.25 12.6771 42.8646 9.90625 40.0938C7.13542 37.3229 5.75 33.9583 5.75 30C5.75 26.0417 7.13542 22.6771 9.90625 19.9062C12.6771 17.1354 16.0417 15.75 20 15.75C21.75 15.75 23.4167 16.0312 25 16.5938C26.5833 17.1562 28 17.9375 29.25 18.9375L28.3125 19.875C27.1458 19 25.8646 18.3229 24.4688 17.8438C23.0729 17.3646 21.5833 17.125 20 17.125C16.4583 17.125 13.4271 18.375 10.9062 20.875C8.38542 23.375 7.125 26.4167 7.125 30C7.125 33.5417 8.38542 36.5729 10.9062 39.0938C13.4271 41.6146 16.4583 42.875 20 42.875C21.5833 42.875 23.0729 42.6354 24.4688 42.1562C25.8646 41.6771 27.1458 41 28.3125 40.125L29.25 41.0625C28 42.0625 26.5833 42.8438 25 43.4062C23.4167 43.9688 21.75 44.25 20 44.25ZM40 44.25C38.25 44.25 36.5833 43.9688 35 43.4062C33.4167 42.8438 32 42.0625 30.75 41.0625L31.6875 40.125C32.8125 41 34.0833 41.6771 35.5 42.1562C36.9167 42.6354 38.4167 42.875 40 42.875C43.5833 42.875 46.625 41.6146 49.125 39.0938C51.625 36.5729 52.875 33.5417 52.875 30C52.875 26.4167 51.625 23.375 49.125 20.875C46.625 18.375 43.5833 17.125 40 17.125C38.4167 17.125 36.9167 17.3646 35.5 17.8438C34.0833 18.3229 32.8125 19 31.6875 19.875L30.75 18.9375C32 17.9375 33.4167 17.1562 35 16.5938C36.5833 16.0312 38.25 15.75 40 15.75C43.9583 15.75 47.3229 17.1354 50.0938 19.9062C52.8646 22.6771 54.25 26.0417 54.25 30C54.25 33.9583 52.8646 37.3229 50.0938 40.0938C47.3229 42.8646 43.9583 44.25 40 44.25ZM30 40.125C28.6667 38.7917 27.625 37.25 26.875 35.5C26.125 33.75 25.75 31.9167 25.75 30C25.75 28.0833 26.125 26.25 26.875 24.5C27.625 22.75 28.6667 21.2083 30 19.875C31.3333 21.2083 32.375 22.75 33.125 24.5C33.875 26.25 34.25 28.0833 34.25 30C34.25 31.9167 33.875 33.75 33.125 35.5C32.375 37.25 31.3333 38.7917 30 40.125Z" fill="#1C1B1F"/>
</g>
</svg>
