<svg width="60" height="60" viewBox="0 0 60 60" fill="none" xmlns="http://www.w3.org/2000/svg">
<mask id="mask0_3861_177" style="mask-type:alpha" maskUnits="userSpaceOnUse" x="0" y="0" width="60" height="60">
<rect width="60" height="60" fill="#D9D9D9"/>
</mask>
<g mask="url(#mask0_3861_177)">
<path d="M21.625 40.875H38.375V39.5H21.625V40.875ZM27.375 32.625L39.1875 20.8125L38.1875 19.75L27.3961 30.5625L21.8125 25L20.8125 26.0625L27.375 32.625ZM30.0109 51.75C27.0036 51.75 24.1863 51.1793 21.5589 50.038C18.9314 48.8967 16.6278 47.3374 14.6479 45.36C12.6681 43.3827 11.1069 41.0819 9.96412 38.4578C8.82137 35.8338 8.25 33.0181 8.25 30.0108C8.25 27.0036 8.82065 24.1758 9.96194 21.5276C11.1033 18.8793 12.6626 16.5757 14.6399 14.6167C16.6173 12.6577 18.918 11.1068 21.5421 9.9641C24.1662 8.82135 26.9819 8.24997 29.9891 8.24997C32.9964 8.24997 35.8241 8.82061 38.4724 9.96191C41.1207 11.1032 43.4243 12.6522 45.3833 14.6087C47.3423 16.5652 48.8931 18.8659 50.0359 21.5108C51.1786 24.1558 51.75 26.9818 51.75 29.9891C51.75 32.9963 51.1794 35.8137 50.0381 38.4411C48.8967 41.0686 47.3478 43.3722 45.3913 45.352C43.4348 47.3318 41.134 48.8931 38.4891 50.0358C35.8442 51.1786 33.0181 51.75 30.0109 51.75ZM30 50.375C35.6667 50.375 40.4792 48.3958 44.4375 44.4375C48.3958 40.4791 50.375 35.6666 50.375 30C50.375 24.3333 48.3958 19.5208 44.4375 15.5625C40.4792 11.6041 35.6667 9.62497 30 9.62497C24.3333 9.62497 19.5208 11.6041 15.5625 15.5625C11.6042 19.5208 9.625 24.3333 9.625 30C9.625 35.6666 11.6042 40.4791 15.5625 44.4375C19.5208 48.3958 24.3333 50.375 30 50.375Z" fill="#1C1B1F"/>
</g>
</svg>
