<svg width="60" height="60" viewBox="0 0 60 60" fill="none" xmlns="http://www.w3.org/2000/svg">
<path fill-rule="evenodd" clip-rule="evenodd" d="M50.9238 8.62533L50.9699 8.04053L50.3852 8.08759C45.06 8.51618 40.7549 9.47215 37.4951 10.9985C35.8415 11.7727 34.3566 12.9135 32.8598 14.1357C32.5895 14.3565 32.3187 14.5799 32.0462 14.8048L32.0462 14.8048C30.7981 15.8347 29.5126 16.8955 28.0562 17.8737C27.7086 18.1036 27.1267 18.4149 26.5171 18.681C25.8959 18.9521 25.3084 19.1484 24.9367 19.1879C24.6965 19.2126 24.2924 19.1817 23.781 19.1034C23.2822 19.027 22.7238 18.9127 22.1972 18.7928C21.6715 18.6733 21.1832 18.5495 20.826 18.4556C20.6475 18.4087 20.5021 18.3693 20.4016 18.3417C20.3514 18.3279 20.3124 18.3171 20.286 18.3097L20.2563 18.3014L20.2489 18.2993L20.2472 18.2988L20.2468 18.2987L20.2468 18.2987L20.2468 18.2986L20.2349 18.2955C19.775 18.1772 19.3134 18.1876 18.8742 18.3381C18.4446 18.4817 18.0604 18.7274 17.7336 19.054L17.7329 19.0546L9.58548 27.1488L9.05859 27.6723L9.74182 27.9635L17.5478 31.2908L18.6557 32.1991L26.9054 40.4594L27.6813 41.5636L31.0054 49.334L31.2949 50.0106L31.8173 49.4923L39.9766 41.3969L39.978 41.3955C40.3209 41.0526 40.5445 40.6431 40.6617 40.2006L40.6625 40.1972C40.7731 39.7671 40.8 39.3516 40.7488 38.9542L40.7435 38.9133L40.7316 38.874L40.7316 38.874L40.7316 38.8739L40.7315 38.8735L40.731 38.8718L40.7288 38.8644L40.7199 38.8347C40.7121 38.8084 40.7006 38.7694 40.6859 38.7191C40.6566 38.6186 40.6147 38.4733 40.5648 38.2948C40.4647 37.9376 40.3328 37.4494 40.2047 36.9238C40.0764 36.3972 39.9533 35.839 39.8697 35.3405C39.7839 34.8284 39.7481 34.4252 39.7707 34.1868L39.7707 34.1865C39.8053 33.8186 40.0002 33.231 40.273 32.6061C40.5402 31.9944 40.8541 31.4096 41.0843 31.0616C42.0497 29.6244 43.0968 28.3488 44.1167 27.1064L44.1167 27.1064L44.1175 27.1054C44.357 26.8137 44.5949 26.5238 44.83 26.2341C46.0566 24.7222 47.202 23.2164 47.9813 21.5367C49.5281 18.2356 50.5057 13.9209 50.9238 8.62533ZM25.0415 20.1824C25.3602 20.1486 25.7405 20.0455 26.1305 19.9089C24.8873 21.3173 23.7388 22.7985 22.6887 24.3591L22.6881 24.36C21.2573 26.4962 19.9737 28.7149 18.8204 31.0411L18.1265 30.4722L18.0713 30.4269L18.0056 30.3989L10.8172 27.3348L18.4389 19.7629L18.44 19.7617C18.6664 19.5353 18.9204 19.3768 19.1926 19.286L19.1926 19.2861L19.197 19.2845C19.4374 19.2019 19.6976 19.1908 19.9805 19.2626L19.9853 19.264L20.017 19.2729C20.0447 19.2806 20.0852 19.2918 20.1369 19.3061C20.2405 19.3345 20.3893 19.3748 20.5717 19.4227C20.9361 19.5186 21.4358 19.6452 21.9753 19.7679C22.5138 19.8904 23.0979 20.0104 23.6296 20.0918C24.1482 20.1712 24.6626 20.2216 25.0403 20.1825L25.0415 20.1824ZM27.3901 39.5296L19.5973 31.7268C20.7622 29.3507 22.0631 27.0901 23.5186 24.9169C25.0248 22.6787 26.7396 20.6056 28.6535 18.6771C30.1385 17.6761 31.4566 16.5881 32.6951 15.566C32.9643 15.3438 33.2297 15.1247 33.4923 14.9103C34.986 13.6906 36.3878 12.6211 37.9191 11.9041C40.9124 10.5026 44.8911 9.57917 49.8778 9.13421C49.4409 14.0889 48.4975 18.0786 47.0753 21.1133L47.0744 21.1151C46.3518 22.6732 45.2765 24.0964 44.0534 25.6041C43.8253 25.8852 43.592 26.1694 43.3554 26.4576C42.3423 27.6914 41.2678 29.0001 40.2802 30.4655C38.3638 32.3879 36.2906 34.0932 34.0803 35.6122C31.9396 37.0662 29.7126 38.375 27.3901 39.5296ZM34.6456 36.4371C36.1755 35.3857 37.6427 34.2459 39.0403 33.0078C38.9056 33.396 38.8051 33.7747 38.7751 34.0924C38.7392 34.4718 38.7966 34.9873 38.8835 35.5058C38.9727 36.0379 39.1019 36.6221 39.2332 37.1606C39.3647 37.7003 39.4997 38.2 39.6018 38.5644C39.6528 38.7468 39.6958 38.8957 39.726 38.9993L39.7542 39.0954L39.7612 39.1192L39.7615 39.1201C39.7892 39.3722 39.7714 39.6465 39.6946 39.9462C39.62 40.227 39.4818 40.4772 39.2717 40.6876L39.2709 40.6884L31.6354 48.2641L28.5802 41.1223L28.5596 41.0742L28.5296 41.0315L28.0337 40.3258C30.3268 39.1747 32.5271 37.876 34.6434 36.4386L34.6456 36.4371ZM38.7751 34.0924L38.7751 34.0928L39.2729 34.1396L38.7751 34.0924ZM35.451 19.2718C36.0486 18.6742 36.7731 18.3743 37.6325 18.3743C38.4935 18.3743 39.2283 18.6753 39.8248 19.2718C40.4241 19.8711 40.7222 20.5857 40.7222 21.432C40.7222 22.2795 40.4345 22.9536 39.8389 23.5041L39.8303 23.5121L39.8221 23.5204C39.2258 24.1259 38.5029 24.4258 37.6325 24.4258C36.7638 24.4258 36.051 24.127 35.4536 23.5204L35.4454 23.5121L35.4368 23.5041C34.8382 22.9509 34.5429 22.2754 34.5429 21.432C34.5429 20.5884 34.839 19.8837 35.451 19.2718ZM37.6325 17.3743C36.5107 17.3743 35.531 17.7775 34.7438 18.5647C33.9498 19.3587 33.5429 20.3157 33.5429 21.432C33.5429 22.5446 33.9476 23.4854 34.7494 24.2305C35.5353 25.0244 36.5027 25.4258 37.6325 25.4258C38.7608 25.4258 39.7393 25.0255 40.5263 24.2305C41.3309 23.4827 41.7222 22.5405 41.7222 21.432C41.7222 20.3184 41.3173 19.3501 40.5319 18.5647C39.7436 17.7764 38.7527 17.3743 37.6325 17.3743ZM18.3819 37.7602C19.1053 37.7337 19.7405 37.9917 20.3002 38.5514C20.8618 39.1131 21.1337 39.755 21.1337 40.4987C21.1337 41.2412 20.8632 41.8555 20.3124 42.3702L20.3062 42.376L20.3002 42.382C19.7172 42.965 18.8286 43.5078 17.5915 43.9716L17.5881 43.9729C16.5212 44.382 15.3248 44.7015 13.9901 44.9292C14.1794 43.6011 14.4822 42.409 14.8896 41.3374C15.3665 40.0933 15.8798 39.2025 16.4237 38.6185C16.9832 38.0519 17.626 37.7784 18.3757 37.7604L18.3757 37.7604L18.3819 37.7602ZM21.0073 37.8443C20.2682 37.1053 19.3707 36.7242 18.3485 36.7607C17.3333 36.7859 16.4447 37.1714 15.7064 37.9218L15.7063 37.9217L15.6975 37.9311C15.0289 38.6466 14.4572 39.6715 13.9556 40.9801L13.9551 40.9814C13.4482 42.3148 13.0987 43.8053 12.9136 45.4711L12.8422 46.1132L13.4817 46.0212C15.1407 45.7827 16.6259 45.4126 17.9444 44.9073C19.2593 44.414 20.2854 43.8087 21.0013 43.095C21.7459 42.3964 22.1337 41.5215 22.1337 40.4987C22.1337 39.4742 21.7452 38.5822 21.0073 37.8443Z" fill="#231F20"/>
</svg>
