<svg width="80" height="80" viewBox="0 0 80 80" fill="none" xmlns="http://www.w3.org/2000/svg">
<mask id="mask0_3021_12011" style="mask-type:alpha" maskUnits="userSpaceOnUse" x="0" y="0" width="80" height="80">
<rect width="80" height="80" fill="#D9D9D9"/>
</mask>
<g mask="url(#mask0_3021_12011)">
<path d="M35.1706 52.3333L55.8372 31.6666L54.1706 30L35.1706 49L25.6706 39.5L24.0039 41.1666L35.1706 52.3333ZM40.0184 69C36.0087 69 32.2384 68.2391 28.7074 66.7174C25.1764 65.1956 22.1048 63.1304 19.4928 60.5217C16.8809 57.913 14.8131 54.8454 13.2894 51.3188C11.7657 47.7923 11.0039 44.0242 11.0039 40.0145C11.0039 36.0048 11.7648 32.2345 13.2865 28.7035C14.8083 25.1724 16.8735 22.1009 19.4822 19.489C22.0909 16.877 25.1585 14.8091 28.6851 13.2855C32.2116 11.7618 35.9797 11 39.9894 11C43.9991 11 47.7694 11.7608 51.3004 13.2826C54.8315 14.8043 57.903 16.8696 60.5149 19.4782C63.1269 22.087 65.1947 25.1546 66.7184 28.6811C68.2421 32.2077 69.0039 35.9758 69.0039 39.9855C69.0039 43.9951 68.2431 47.7655 66.7213 51.2965C65.1996 54.8275 63.1343 57.8991 60.5257 60.5111C57.9169 63.123 54.8493 65.1908 51.3227 66.7145C47.7962 68.2382 44.0281 69 40.0184 69ZM40.0039 66.6667C47.4484 66.6667 53.7539 64.0833 58.9206 58.9166C64.0872 53.75 66.6706 47.4444 66.6706 40C66.6706 32.5555 64.0872 26.25 58.9206 21.0833C53.7539 15.9166 47.4484 13.3333 40.0039 13.3333C32.5595 13.3333 26.2539 15.9166 21.0872 21.0833C15.9206 26.25 13.3372 32.5555 13.3372 40C13.3372 47.4444 15.9206 53.75 21.0872 58.9166C26.2539 64.0833 32.5595 66.6667 40.0039 66.6667Z" fill="#E1CDC0"/>
</g>
</svg>
