<svg id="Close" xmlns="http://www.w3.org/2000/svg" width="24" height="24" viewBox="0 0 24 24">
  <rect id="Rectangle_871" data-name="Rectangle 871" width="24" height="24" fill="none"/>
  <path id="close_FILL0_wght300_GRAD0_opsz24_2_" data-name="close_FILL0_wght300_GRAD0_opsz24 (2)" d="M232.231,329.228l-4.8,4.8a.685.685,0,0,1-.494.2.669.669,0,0,1-.5-.2.707.707,0,0,1,0-1l4.8-4.8-4.8-4.8a.685.685,0,0,1-.2-.494.668.668,0,0,1,.2-.5.707.707,0,0,1,1,0l4.8,4.8,4.8-4.8a.685.685,0,0,1,.494-.2.668.668,0,0,1,.5.2.707.707,0,0,1,0,1l-4.8,4.8,4.8,4.8a.685.685,0,0,1,.2.494.669.669,0,0,1-.2.5.707.707,0,0,1-1,0Z" transform="translate(-220.23 -316.231)" fill="#777374"/>
</svg>
