<svg width="33" height="32" viewBox="0 0 33 32" fill="none" xmlns="http://www.w3.org/2000/svg">
<mask id="mask0_1685_1407" style="mask-type:alpha" maskUnits="userSpaceOnUse" x="0" y="0" width="33" height="32">
<rect x="0.5" width="32" height="32" fill="#D9D9D9"/>
</mask>
<g mask="url(#mask0_1685_1407)">
<path d="M16.6333 28.4667C14.5444 28.4667 12.8333 28.1815 11.5 27.6111C10.1667 27.0408 9.5 26.3037 9.5 25.4C9.5 25 9.68333 24.6056 10.05 24.2167C10.4167 23.8278 10.9296 23.4852 11.5889 23.1889L11.8111 23.9556C11.337 24.1778 10.9778 24.4093 10.7333 24.65C10.4889 24.8908 10.337 25.1408 10.2778 25.4C10.4185 26.0963 11.0833 26.6482 12.2722 27.0556C13.4611 27.463 14.9148 27.6667 16.6333 27.6667C18.3296 27.6667 19.7778 27.463 20.9778 27.0556C22.1778 26.6482 22.8481 26.0963 22.9889 25.4C22.9445 25.1556 22.7963 24.9148 22.5444 24.6778C22.2926 24.4408 21.9296 24.2 21.4556 23.9556L21.7111 23.1889C22.3555 23.4852 22.8593 23.8278 23.2222 24.2167C23.5852 24.6056 23.7667 25 23.7667 25.4C23.7667 26.3037 23.1 27.0408 21.7667 27.6111C20.4333 28.1815 18.7222 28.4667 16.6333 28.4667ZM16.6333 22.5889C17.0497 21.7593 17.5538 20.8945 18.1456 19.9945C18.7374 19.0945 19.3519 18.2371 19.9889 17.4223C20.8852 16.2593 21.6019 15.2037 22.1389 14.2556C22.6759 13.3074 22.9444 12.1032 22.9444 10.6428C22.9444 8.91444 22.328 7.43077 21.0952 6.19179C19.8624 4.95283 18.3735 4.33336 16.6286 4.33336C14.8836 4.33336 13.3963 4.95283 12.1667 6.19179C10.937 7.43077 10.3222 8.91444 10.3222 10.6428C10.3222 12.1032 10.5926 13.3074 11.1333 14.2556C11.6741 15.2037 12.3889 16.2593 13.2778 17.4223C13.9148 18.2371 14.5292 19.0945 15.1211 19.9945C15.7129 20.8945 16.217 21.7593 16.6333 22.5889ZM16.6333 23.4889C16.4556 23.4889 16.2852 23.4184 16.1222 23.2774C15.9593 23.1363 15.8407 22.9624 15.7667 22.7556C15.1518 21.3852 14.485 20.2389 13.7662 19.3167C13.0474 18.3945 12.3735 17.5111 11.7444 16.6667C11.1074 15.8371 10.5778 14.963 10.1556 14.0445C9.73334 13.1259 9.52223 11.9923 9.52223 10.6436C9.52223 8.65158 10.2079 6.96855 11.5793 5.59446C12.9507 4.22039 14.6354 3.53336 16.6333 3.53336C18.6313 3.53336 20.316 4.21906 21.6873 5.59046C23.0587 6.96186 23.7444 8.64652 23.7444 10.6445C23.7444 11.9926 23.5361 13.1248 23.1195 14.0409C22.7028 14.9571 22.1778 15.8323 21.5444 16.6667C20.9074 17.5111 20.2278 18.3945 19.5056 19.3167C18.7833 20.2389 18.1159 21.3832 17.5033 22.7496C17.427 22.9536 17.3074 23.1278 17.1444 23.2723C16.9815 23.4167 16.8111 23.4889 16.6333 23.4889ZM16.638 12.2889C17.0867 12.2889 17.4722 12.13 17.7944 11.8121C18.1167 11.4942 18.2778 11.1034 18.2778 10.6398C18.2778 10.1911 18.1151 9.80928 17.7898 9.49446C17.4645 9.17966 17.0775 9.02226 16.6287 9.02226C16.1799 9.02226 15.7982 9.1812 15.4833 9.49909C15.1685 9.817 15.0111 10.2003 15.0111 10.6491C15.0111 11.1127 15.1701 11.5019 15.488 11.8167C15.8059 12.1315 16.1892 12.2889 16.638 12.2889Z" fill="#1C1B1F"/>
</g>
</svg>
