<svg width="60" height="60" viewBox="0 0 60 60" fill="none" xmlns="http://www.w3.org/2000/svg">
<path fill-rule="evenodd" clip-rule="evenodd" d="M10.2874 22.8404C10.4545 23.0349 10.6997 23.3114 11.0148 23.6429C11.6564 24.318 12.585 25.2181 13.7312 26.1172C16.0361 27.9253 19.159 29.6808 22.5654 29.6808C25.9718 29.6808 29.0947 27.9253 31.3996 26.1172C32.5458 25.2181 33.4743 24.318 34.116 23.6429C34.431 23.3114 34.6762 23.0349 34.8433 22.8404C34.6762 22.6459 34.431 22.3694 34.116 22.0379C33.4743 21.3628 32.5458 20.4627 31.3996 19.5636C29.0947 17.7555 25.9718 16 22.5654 16C19.159 16 16.0361 17.7555 13.7312 19.5636C12.585 20.4627 11.6564 21.3628 11.0148 22.0379C10.6997 22.3694 10.4545 22.6459 10.2874 22.8404ZM50.5019 22.3403H35.7305C35.6962 22.2993 35.6563 22.2522 35.611 22.1995C35.434 21.993 35.1743 21.6999 34.8408 21.349C34.1744 20.6478 33.21 19.7128 32.0168 18.7768C29.643 16.9147 26.3016 15 22.5654 15C18.8292 15 15.4878 16.9147 13.1139 18.7768C11.9208 19.7128 10.9564 20.6478 10.2899 21.349C9.95643 21.6999 9.69681 21.993 9.51972 22.1995C9.43116 22.3027 9.36319 22.3844 9.31688 22.4408C9.29373 22.469 9.27599 22.4909 9.2638 22.5061L9.24968 22.5237L9.24578 22.5286L9.24462 22.5301L9.24424 22.5306C9.2441 22.5307 9.24399 22.5309 9.63666 22.8404L9.24399 22.5309L9 22.8404L9.24399 23.1499L9.63666 22.8404C9.24399 23.1499 9.2441 23.1501 9.24424 23.1502L9.24462 23.1507L9.24578 23.1522L9.24968 23.1571L9.2638 23.1748C9.27599 23.1899 9.29373 23.2118 9.31688 23.24C9.36319 23.2965 9.43116 23.3781 9.51972 23.4813C9.69681 23.6878 9.95643 23.9809 10.2899 24.3318C10.9564 25.033 11.9208 25.968 13.1139 26.904C14.0352 27.6266 15.1021 28.3572 16.2812 28.9807V45.0806V45.5806H16.7812H50.5019H51.0019V45.0806V22.8403V22.3403H50.5019ZM17.2812 44.5806V29.4695C18.8928 30.1926 20.6788 30.6808 22.5654 30.6808C26.3016 30.6808 29.643 28.7661 32.0168 26.904C33.21 25.968 34.1744 25.033 34.8408 24.3318C35.1743 23.9809 35.434 23.6878 35.611 23.4813C35.6564 23.4285 35.6963 23.3814 35.7307 23.3403H50.0019V33.46H39.5859V34.46H50.0019V44.5806H30.8945V33.9111H29.8945V44.5806H17.2812ZM28.3826 22.8404C28.3826 26.0516 25.7794 28.6548 22.5682 28.6548C19.357 28.6548 16.7538 26.0516 16.7538 22.8404C16.7538 19.6292 19.357 17.026 22.5682 17.026C25.7794 17.026 28.3826 19.6292 28.3826 22.8404Z" fill="#231F20"/>
</svg>
