<svg xmlns="http://www.w3.org/2000/svg" viewBox="0 0 57 69"><path d="M39.7 56.6a25.7 25.7 0 0 1-10.2 9.1C25.2 67.8 14.3 69 14.3 69h12.8a34.1 34.1 0 0 0 15.5-3.3 25.7 25.7 0 0 0 10.2-9.1A26.9 26.9 0 0 0 57 43.2H43.9a26.9 26.9 0 0 1-4.2 13.4zm0-44.5a26.9 26.9 0 0 1 4.2 13.5H57a26 26 0 0 0-4.3-13.5 25.5 25.5 0 0 0-10.3-8.9A35.1 35.1 0 0 0 27.1 0H14.3s10.7 1.1 15 3.2a26.5 26.5 0 0 1 10.4 8.9zM6.8 16.8a14.5 14.5 0 0 0-5 6.7A29.1 29.1 0 0 0 0 34.3a29.1 29.1 0 0 0 1.8 10.8A15 15 0 0 0 6.7 52a13.1 13.1 0 0 0 7.6 2.3A12 12 0 0 0 20 53l.8-.5-1-.5a15 15 0 0 1-4.9-6.9 29.1 29.1 0 0 1-1.8-10.8 29.1 29.1 0 0 1 1.8-10.8 14.5 14.5 0 0 1 5-6.7 4.7 4.7 0 0 1 .9-.6 11.5 11.5 0 0 0-6.5-1.8 12 12 0 0 0-7.5 2.4z" fill="#fff"/></svg>