<svg width="74" height="74" viewBox="0 0 74 74" fill="none" xmlns="http://www.w3.org/2000/svg">
<path d="M0 73.9788V0L73.4965 21.4784L73.354 74L0 73.9788Z" fill="#FFBB00"/>
<path d="M5.16185 44.3034V41.4774C12.0127 36.4087 14.0184 34.6697 14.0184 32.6019C14.0184 31.1385 12.6883 30.4069 11.2844 30.4069C9.4001 30.4069 7.94865 31.165 6.81915 32.3474L4.78711 29.9774C6.41802 28.0846 8.90397 27.231 11.2369 27.231C14.7995 27.231 17.6338 29.2457 17.6338 32.6019C17.6338 35.4756 15.2745 37.9728 10.7829 41.1487H17.7605V44.2981H5.16185V44.3034Z" fill="#221F20"/>
<path d="M26.0683 27.2363C30.8344 27.2363 32.9931 31.5734 32.9931 35.9104C32.9931 40.2474 30.8344 44.6057 26.0683 44.6057C21.3023 44.6057 19.1436 40.2421 19.1436 35.9104C19.1436 31.5787 21.2759 27.2363 26.0683 27.2363ZM26.0683 30.4122C23.6615 30.4122 22.7537 32.8087 22.7537 35.9104C22.7537 39.0121 23.6563 41.4298 26.0683 41.4298C28.4804 41.4298 29.3565 39.0121 29.3565 35.9104C29.3565 32.8087 28.454 30.4122 26.0683 30.4122Z" fill="#221F20"/>
<path d="M34.2751 44.3034V41.4774C41.126 36.4087 43.1317 34.6697 43.1317 32.6019C43.1317 31.1385 41.8016 30.4069 40.3976 30.4069C38.5134 30.4069 37.0619 31.165 35.9324 32.3474L33.9004 29.9774C35.5313 28.0846 38.0172 27.231 40.3501 27.231C43.9128 27.231 46.7471 29.2457 46.7471 32.6019C46.7471 35.4756 44.3878 37.9728 39.8962 41.1487H46.8738V44.2981H34.2751V44.3034Z" fill="#221F20"/>
<path d="M49.7608 39.5635C50.9167 40.7723 52.7482 41.4775 54.3791 41.4775C56.4111 41.4775 57.5406 40.5974 57.5406 39.309C57.5406 37.9464 56.5114 37.3154 54.1785 37.3154C53.4765 37.3154 52.347 37.3154 52.0937 37.3419V34.2138C52.3945 34.2403 53.524 34.2403 54.1785 34.2403C56.0364 34.2403 57.2661 33.6358 57.2661 32.374C57.2661 31.0379 55.9097 30.3592 54.1521 30.3592C52.5212 30.3592 51.0645 30.9901 49.8875 32.1248L48.1299 29.9085C49.4863 28.371 51.5923 27.2363 54.5268 27.2363C58.4431 27.2363 60.8499 29.0019 60.8499 31.8013C60.8499 33.9168 59.0448 35.306 57.187 35.6347C58.8918 35.8097 61.1033 37.1458 61.1033 39.6695C61.1033 42.5697 58.517 44.611 54.5057 44.611C51.4181 44.611 49.138 43.4286 47.9082 41.9123L49.7661 39.5688L49.7608 39.5635Z" fill="#221F20"/>
<path d="M5.32617 57.1821V49.7646H8.95745C10.3086 49.7646 11.0634 50.6077 11.0634 51.6575C11.0634 52.5906 10.467 53.2162 9.78082 53.3594C10.5673 53.4813 11.2112 54.2713 11.2112 55.1833C11.2112 56.3285 10.4459 57.1874 9.06301 57.1874H5.33145L5.32617 57.1821ZM6.62457 52.8345H8.69355C9.35858 52.8345 9.73332 52.4316 9.73332 51.8801C9.73332 51.3287 9.35858 50.9099 8.69355 50.9099H6.62457V52.8345ZM6.62457 56.0369H8.75161C9.45886 56.0369 9.88111 55.6499 9.88111 55.003C9.88111 54.4463 9.49581 53.9797 8.75161 53.9797H6.62457V56.0369Z" fill="#221F20"/>
<path d="M14.4828 51.6787C16.0873 51.6787 17.1166 52.9141 17.1166 54.6054V54.8811H12.9839C13.0736 55.6923 13.6806 56.3604 14.6887 56.3604C15.2112 56.3604 15.8287 56.1483 16.2035 55.7719L16.7365 56.5406C16.2035 57.0496 15.417 57.32 14.5673 57.32C12.9628 57.32 11.7646 56.196 11.7646 54.4941C11.7646 52.9353 12.8941 51.6787 14.4776 51.6787H14.4828ZM12.9786 54.0593H15.9923C15.9712 53.4231 15.5384 52.6331 14.4881 52.6331C13.4906 52.6331 13.0367 53.4019 12.9839 54.0593H12.9786Z" fill="#221F20"/>
<path d="M17.972 55.6393C18.3467 56.0264 19.0909 56.3975 19.7876 56.3975C20.4843 56.3975 20.8379 56.143 20.8379 55.74C20.8379 55.2735 20.2732 55.1038 19.6187 54.9606C18.7003 54.7592 17.6025 54.5153 17.6025 53.3117C17.6025 52.4316 18.3572 51.6787 19.7084 51.6787C20.6162 51.6787 21.3024 52.0021 21.788 52.4369L21.3024 53.2587C20.9804 52.8929 20.384 52.6119 19.719 52.6119C19.112 52.6119 18.7214 52.8345 18.7214 53.211C18.7214 53.6245 19.2545 53.7677 19.8826 53.9109C20.8115 54.1123 21.9516 54.3774 21.9516 55.6446C21.9516 56.5884 21.1652 57.3147 19.7243 57.3147C18.8164 57.3147 17.9878 57.0231 17.4336 56.4823L17.9667 55.6393H17.972Z" fill="#221F20"/>
<path d="M22.9961 55.9364V52.8347H22.1094V51.8114H22.9961V50.3428H24.1572V51.8114H25.2445V52.8347H24.1572V55.6501C24.1572 56.0159 24.3367 56.2863 24.6639 56.2863C24.8856 56.2863 25.0967 56.1962 25.1865 56.0954L25.4609 56.9756C25.2498 57.1771 24.9067 57.3202 24.3631 57.3202C23.4658 57.3202 22.9908 56.8324 22.9908 55.9417L22.9961 55.9364Z" fill="#221F20"/>
<path d="M28.0742 54.4941C28.0742 52.9565 29.1245 51.6787 30.8188 51.6787C32.513 51.6787 33.5739 52.9565 33.5739 54.4941C33.5739 56.0317 32.5342 57.32 30.8188 57.32C29.1034 57.32 28.0742 56.0423 28.0742 54.4941ZM32.3705 54.4941C32.3705 53.5503 31.8163 52.7126 30.8188 52.7126C29.8212 52.7126 29.2776 53.545 29.2776 54.4941C29.2776 55.4431 29.8318 56.2861 30.8188 56.2861C31.8058 56.2861 32.3705 55.4537 32.3705 54.4941Z" fill="#221F20"/>
<path d="M35.8272 52.8345V57.1822H34.666V52.8345H33.7793V51.8112H34.666V51.509C34.666 50.3055 35.3733 49.6533 36.3603 49.6533C36.7244 49.6533 37.057 49.7329 37.2892 49.8654L37.0358 50.7243C36.9039 50.6448 36.735 50.613 36.5714 50.613C36.1175 50.613 35.8272 50.9152 35.8272 51.5143V51.8165H36.9144V52.8398H35.8272V52.8345Z" fill="#221F20"/>
<path d="M45.0799 57.1821V53.9426H41.2375V57.1821H39.9443V49.7646H41.2375V52.8027H45.0799V49.7646H46.3782V57.1821H45.0799Z" fill="#221F20"/>
<path d="M47.2168 54.4941C47.2168 52.9565 48.2671 51.6787 49.9614 51.6787C51.6556 51.6787 52.7165 52.9565 52.7165 54.4941C52.7165 56.0317 51.6767 57.32 49.9614 57.32C48.246 57.32 47.2168 56.0423 47.2168 54.4941ZM51.5131 54.4941C51.5131 53.5503 50.9589 52.7126 49.9614 52.7126C48.9638 52.7126 48.4202 53.545 48.4202 54.4941C48.4202 55.4431 48.9744 56.2861 49.9614 56.2861C50.9484 56.2861 51.5131 55.4537 51.5131 54.4941Z" fill="#221F20"/>
<path d="M57.1346 57.1824V56.4719C56.7493 56.9067 56.0843 57.3149 55.2398 57.3149C54.0892 57.3149 53.5244 56.7158 53.5244 55.613V51.8062H54.6856V55.1888C54.6856 56.0212 55.1078 56.281 55.7623 56.281C56.3482 56.281 56.8601 55.947 57.1346 55.5812V51.8115H58.2957V57.1824H57.1346Z" fill="#221F20"/>
<path d="M59.1928 57.1824V56.3022L61.8371 52.8294H59.1928V51.8062H63.3888V52.6651L60.7181 56.1697H63.431V57.1824H59.1875H59.1928Z" fill="#221F20"/>
<path d="M64.0961 57.1824V56.3022L66.7404 52.8294H64.0961V51.8062H68.2921V52.6651L65.6214 56.1697H68.3344V57.1824H64.0908H64.0961Z" fill="#221F20"/>
<path d="M5.5684 66.8001C6.08037 67.3462 6.87735 67.8234 7.90656 67.8234C8.93578 67.8234 9.38969 67.2985 9.38969 66.8107C9.38969 66.1426 8.60326 65.9411 7.706 65.7079C6.49733 65.4056 5.08282 65.0504 5.08282 63.481C5.08282 62.2563 6.15954 61.3125 7.77461 61.3125C8.92522 61.3125 9.85415 61.6783 10.5456 62.3464L9.80137 63.3167C9.22607 62.7387 8.43964 62.4736 7.66377 62.4736C6.8879 62.4736 6.41288 62.8395 6.41288 63.3962C6.41288 63.9529 7.16764 64.165 8.03851 64.3877C9.25774 64.7005 10.7092 65.0769 10.7092 66.6887C10.7092 67.9241 9.8436 68.9792 7.85378 68.9792C6.49205 68.9792 5.50506 68.502 4.85059 67.8021L5.5684 66.8001Z" fill="#221F20"/>
<path d="M13.8871 63.3433C15.4916 63.3433 16.5209 64.5786 16.5209 66.27V66.5457H12.3882C12.4779 67.3569 13.0849 68.0249 14.093 68.0249C14.6155 68.0249 15.233 67.8128 15.6078 67.4364L16.1408 68.2052C15.6078 68.7142 14.8213 68.9846 13.9716 68.9846C12.3671 68.9846 11.1689 67.8606 11.1689 66.1586C11.1689 64.5998 12.2984 63.3433 13.8818 63.3433H13.8871ZM12.3776 65.7239H15.3914C15.3703 65.0876 14.9375 64.2976 13.8871 64.2976C12.8896 64.2976 12.4357 65.0664 12.3829 65.7239H12.3776Z" fill="#221F20"/>
<path d="M17.3066 68.8464V63.4755H18.4678V64.2655C18.8637 63.7565 19.5076 63.3535 20.2043 63.3535V64.5094C20.104 64.4881 19.9826 64.4775 19.8401 64.4775C19.3545 64.4775 18.7 64.8116 18.4678 65.188V68.8464H17.3066Z" fill="#221F20"/>
<path d="M22.1886 68.8465L20.0088 63.4756H21.2491L22.8114 67.4998L24.3737 63.4756H25.6246L23.4448 68.8465H22.1939H22.1886Z" fill="#221F20"/>
<path d="M25.8408 61.8637C25.8408 61.4607 26.1733 61.1426 26.5586 61.1426C26.9439 61.1426 27.2764 61.466 27.2764 61.8637C27.2764 62.2613 26.9545 62.5847 26.5586 62.5847C26.1628 62.5847 25.8408 62.2613 25.8408 61.8637ZM25.9833 68.8464V63.4755H27.1445V68.8464H25.9833Z" fill="#221F20"/>
<path d="M30.7231 63.3431C31.7629 63.3431 32.3962 63.7885 32.771 64.2975L32.0057 65.008C31.7048 64.5838 31.2984 64.3717 30.7759 64.3717C29.7995 64.3717 29.1608 65.1034 29.1608 66.1532C29.1608 67.203 29.8047 67.9453 30.7759 67.9453C31.2984 67.9453 31.7048 67.7226 32.0057 67.309L32.771 68.0195C32.3962 68.5285 31.7629 68.9738 30.7231 68.9738C29.0975 68.9738 27.9521 67.7809 27.9521 66.1479C27.9521 64.5149 29.0922 63.3325 30.7231 63.3325V63.3431Z" fill="#221F20"/>
<path d="M35.8061 63.3433C37.4106 63.3433 38.4398 64.5786 38.4398 66.27V66.5457H34.3071C34.3968 67.3569 35.0038 68.0249 36.0119 68.0249C36.5344 68.0249 37.152 67.8128 37.5267 67.4364L38.0598 68.2052C37.5267 68.7142 36.7403 68.9846 35.8905 68.9846C34.286 68.9846 33.0879 67.8606 33.0879 66.1586C33.0879 64.5998 34.2174 63.3433 35.8008 63.3433H35.8061ZM34.2966 65.7239H37.3103C37.2892 65.0876 36.8564 64.2976 35.8061 64.2976C34.8085 64.2976 34.3546 65.0664 34.3018 65.7239H34.2966Z" fill="#221F20"/>
<path d="M11.4166 17.5975H15.0849V11.3517L7.73786 9.23624V6.60645H5.30469V17.5975H8.97819V14.1353H11.4166V17.5975Z" fill="white"/>
</svg>
