<svg width="74" height="74" viewBox="0 0 74 74" fill="none" xmlns="http://www.w3.org/2000/svg">
<path d="M0.4375 73.9788V0L73.934 21.4784L73.7968 74L0.4375 73.9788Z" fill="#FFBB00"/>
<path d="M5.60424 44.3034V41.4774C12.4551 36.4087 14.4608 34.6697 14.4608 32.6019C14.4608 31.1385 13.1307 30.4069 11.7267 30.4069C9.84248 30.4069 8.39103 31.165 7.26153 32.3474L5.22949 29.9774C6.8604 28.0846 9.34635 27.231 11.6792 27.231C15.2419 27.231 18.0762 29.2457 18.0762 32.6019C18.0762 35.4756 15.7169 37.9728 11.2253 41.1487H18.2029V44.2981H5.60424V44.3034Z" fill="#221F20"/>
<path d="M26.5048 27.2363C31.2709 27.2363 33.4296 31.5734 33.4296 35.9104C33.4296 40.2474 31.2709 44.6057 26.5048 44.6057C21.7388 44.6057 19.5801 40.2421 19.5801 35.9104C19.5801 31.5787 21.7124 27.2363 26.5048 27.2363ZM26.5048 30.4122C24.0981 30.4122 23.1902 32.8087 23.1902 35.9104C23.1902 39.0121 24.0928 41.4298 26.5048 41.4298C28.9169 41.4298 29.7931 39.0121 29.7931 35.9104C29.7931 32.8087 28.8905 30.4122 26.5048 30.4122Z" fill="#221F20"/>
<path d="M34.7126 44.3034V41.4774C41.5635 36.4087 43.5691 34.6697 43.5691 32.6019C43.5691 31.1385 42.2391 30.4069 40.8351 30.4069C38.9509 30.4069 37.4994 31.165 36.3699 32.3474L34.3379 29.9774C35.9688 28.0846 38.4547 27.231 40.7876 27.231C44.3503 27.231 47.1846 29.2457 47.1846 32.6019C47.1846 35.4756 44.8253 37.9728 40.3337 41.1487H47.3113V44.2981H34.7126V44.3034Z" fill="#221F20"/>
<path d="M49.0212 44.3034V41.4774C55.8721 36.4087 57.8777 34.6697 57.8777 32.6019C57.8777 31.1385 56.5477 30.4069 55.1437 30.4069C53.2595 30.4069 51.808 31.165 50.6785 32.3474L48.6465 29.9774C50.2774 28.0846 52.7633 27.231 55.0962 27.231C58.6589 27.231 61.4932 29.2457 61.4932 32.6019C61.4932 35.4756 59.1339 37.9728 54.6423 41.1487H61.6199V44.2981H49.0212V44.3034Z" fill="#221F20"/>
<path d="M5.76855 57.1821V49.7646H9.39984C10.751 49.7646 11.5058 50.6077 11.5058 51.6575C11.5058 52.5906 10.9094 53.2162 10.2232 53.3594C11.0096 53.4813 11.6535 54.2713 11.6535 55.1833C11.6535 56.3285 10.8882 57.1874 9.5054 57.1874H5.77383L5.76855 57.1821ZM7.06167 52.8345H9.13065C9.79568 52.8345 10.1704 52.4316 10.1704 51.8801C10.1704 51.3287 9.79568 50.9099 9.13065 50.9099H7.06167V52.8345ZM7.06167 56.0369H9.18871C9.89597 56.0369 10.3182 55.6499 10.3182 55.003C10.3182 54.4463 9.93291 53.9797 9.18871 53.9797H7.06167V56.0369Z" fill="#221F20"/>
<path d="M14.9203 51.6787C16.5248 51.6787 17.5541 52.9141 17.5541 54.6054V54.8811H13.4214C13.5111 55.6923 14.1181 56.3604 15.1262 56.3604C15.6487 56.3604 16.2662 56.1483 16.641 55.7719L17.174 56.5406C16.641 57.0496 15.8545 57.32 15.0048 57.32C13.4003 57.32 12.2021 56.196 12.2021 54.4941C12.2021 52.9353 13.3316 51.6787 14.9151 51.6787H14.9203ZM13.4161 54.0593H16.4298C16.4087 53.4231 15.9759 52.6331 14.9256 52.6331C13.9281 52.6331 13.4742 53.4019 13.4214 54.0593H13.4161Z" fill="#221F20"/>
<path d="M18.4085 55.6393C18.7832 56.0264 19.5274 56.3975 20.2241 56.3975C20.9208 56.3975 21.2744 56.143 21.2744 55.74C21.2744 55.2735 20.7097 55.1038 20.0552 54.9606C19.1368 54.7592 18.039 54.5153 18.039 53.3117C18.039 52.4316 18.7938 51.6787 20.145 51.6787C21.0528 51.6787 21.7389 52.0021 22.2245 52.4369L21.7389 53.2587C21.417 52.8929 20.8205 52.6119 20.1555 52.6119C19.5485 52.6119 19.158 52.8345 19.158 53.211C19.158 53.6245 19.691 53.7677 20.3191 53.9109C21.2481 54.1123 22.3881 54.3774 22.3881 55.6446C22.3881 56.5884 21.6017 57.3147 20.1608 57.3147C19.253 57.3147 18.4243 57.0231 17.8701 56.4823L18.4032 55.6393H18.4085Z" fill="#221F20"/>
<path d="M23.4336 55.9364V52.8347H22.5469V51.8114H23.4336V50.3428H24.5948V51.8114H25.682V52.8347H24.5948V55.6501C24.5948 56.0159 24.7742 56.2863 25.1014 56.2863C25.3231 56.2863 25.5342 56.1962 25.624 56.0954L25.8984 56.9756C25.6873 57.1771 25.3442 57.3202 24.8006 57.3202C23.9033 57.3202 23.4283 56.8324 23.4283 55.9417L23.4336 55.9364Z" fill="#221F20"/>
<path d="M28.5166 54.4941C28.5166 52.9565 29.5669 51.6787 31.2612 51.6787C32.9554 51.6787 34.0163 52.9565 34.0163 54.4941C34.0163 56.0317 32.9765 57.32 31.2612 57.32C29.5458 57.32 28.5166 56.0423 28.5166 54.4941ZM32.8129 54.4941C32.8129 53.5503 32.2587 52.7126 31.2612 52.7126C30.2636 52.7126 29.72 53.545 29.72 54.4941C29.72 55.4431 30.2742 56.2861 31.2612 56.2861C32.2482 56.2861 32.8129 55.4537 32.8129 54.4941Z" fill="#221F20"/>
<path d="M36.2647 52.8345V57.1822H35.1035V52.8345H34.2168V51.8112H35.1035V51.509C35.1035 50.3055 35.8108 49.6533 36.7978 49.6533C37.1619 49.6533 37.4945 49.7329 37.7267 49.8654L37.4733 50.7243C37.3414 50.6448 37.1725 50.613 37.0089 50.613C36.555 50.613 36.2647 50.9152 36.2647 51.5143V51.8165H37.3519V52.8398H36.2647V52.8345Z" fill="#221F20"/>
<path d="M45.5216 57.1821V53.9426H41.6792V57.1821H40.3809V49.7646H41.6792V52.8027H45.5216V49.7646H46.82V57.1821H45.5216Z" fill="#221F20"/>
<path d="M47.6543 54.4941C47.6543 52.9565 48.7046 51.6787 50.3989 51.6787C52.0931 51.6787 53.154 52.9565 53.154 54.4941C53.154 56.0317 52.1142 57.32 50.3989 57.32C48.6835 57.32 47.6543 56.0423 47.6543 54.4941ZM51.9506 54.4941C51.9506 53.5503 51.3964 52.7126 50.3989 52.7126C49.4013 52.7126 48.8577 53.545 48.8577 54.4941C48.8577 55.4431 49.4119 56.2861 50.3989 56.2861C51.3859 56.2861 51.9506 55.4537 51.9506 54.4941Z" fill="#221F20"/>
<path d="M57.577 57.1824V56.4719C57.1917 56.9067 56.5266 57.3149 55.6822 57.3149C54.5315 57.3149 53.9668 56.7158 53.9668 55.613V51.8062H55.128V55.1888C55.128 56.0212 55.5502 56.281 56.2047 56.281C56.7905 56.281 57.3025 55.947 57.577 55.5812V51.8115H58.7381V57.1824H57.577Z" fill="#221F20"/>
<path d="M59.6303 57.1824V56.3022L62.2746 52.8294H59.6303V51.8062H63.8263V52.6651L61.1556 56.1697H63.8685V57.1824H59.625H59.6303Z" fill="#221F20"/>
<path d="M64.5385 57.1824V56.3022L67.1828 52.8294H64.5385V51.8062H68.7345V52.6651L66.0638 56.1697H68.7767V57.1824H64.5332H64.5385Z" fill="#221F20"/>
<path d="M6.01078 66.8001C6.52275 67.3462 7.31973 67.8234 8.34895 67.8234C9.37816 67.8234 9.83207 67.2985 9.83207 66.8107C9.83207 66.1426 9.04565 65.9411 8.14838 65.7079C6.93971 65.4056 5.5252 65.0504 5.5252 63.481C5.5252 62.2563 6.60192 61.3125 8.217 61.3125C9.36761 61.3125 10.2965 61.6783 10.988 62.3464L10.2438 63.3167C9.66845 62.7387 8.88203 62.4736 8.10616 62.4736C7.33029 62.4736 6.85527 62.8395 6.85527 63.3962C6.85527 63.9529 7.61003 64.165 8.4809 64.3877C9.70012 64.7005 11.1516 65.0769 11.1516 66.6887C11.1516 67.9241 10.286 68.9792 8.29617 68.9792C6.93444 68.9792 5.94744 68.502 5.29297 67.8021L6.01078 66.8001Z" fill="#221F20"/>
<path d="M14.3236 63.3433C15.9282 63.3433 16.9574 64.5786 16.9574 66.27V66.5457H12.8247C12.9144 67.3569 13.5214 68.0249 14.5295 68.0249C15.052 68.0249 15.6695 67.8128 16.0443 67.4364L16.5774 68.2052C16.0443 68.7142 15.2579 68.9846 14.4081 68.9846C12.8036 68.9846 11.6055 67.8606 11.6055 66.1586C11.6055 64.5998 12.735 63.3433 14.3184 63.3433H14.3236ZM12.8194 65.7239H15.8332C15.8121 65.0876 15.3793 64.2976 14.3289 64.2976C13.3314 64.2976 12.8775 65.0664 12.8247 65.7239H12.8194Z" fill="#221F20"/>
<path d="M17.7441 68.8464V63.4755H18.9053V64.2655C19.3012 63.7565 19.9451 63.3535 20.6418 63.3535V64.5094C20.5415 64.4881 20.4201 64.4775 20.2776 64.4775C19.792 64.4775 19.1375 64.8116 18.9053 65.188V68.8464H17.7441Z" fill="#221F20"/>
<path d="M22.6261 68.8465L20.4463 63.4756H21.6866L23.2489 67.4998L24.8112 63.4756H26.0621L23.8823 68.8465H22.6314H22.6261Z" fill="#221F20"/>
<path d="M26.2783 61.8637C26.2783 61.4607 26.6108 61.1426 26.9961 61.1426C27.3814 61.1426 27.7139 61.466 27.7139 61.8637C27.7139 62.2613 27.392 62.5847 26.9961 62.5847C26.6003 62.5847 26.2783 62.2613 26.2783 61.8637ZM26.4208 68.8464V63.4755H27.582V68.8464H26.4208Z" fill="#221F20"/>
<path d="M31.1606 63.3431C32.2004 63.3431 32.8337 63.7885 33.2085 64.2975L32.4432 65.008C32.1423 64.5838 31.7359 64.3717 31.2134 64.3717C30.237 64.3717 29.5983 65.1034 29.5983 66.1532C29.5983 67.203 30.2422 67.9453 31.2134 67.9453C31.7359 67.9453 32.1423 67.7226 32.4432 67.309L33.2085 68.0195C32.8337 68.5285 32.2004 68.9738 31.1606 68.9738C29.535 68.9738 28.3896 67.7809 28.3896 66.1479C28.3896 64.5149 29.5297 63.3325 31.1606 63.3325V63.3431Z" fill="#221F20"/>
<path d="M36.2436 63.3433C37.8481 63.3433 38.8773 64.5786 38.8773 66.27V66.5457H34.7446C34.8343 67.3569 35.4413 68.0249 36.4494 68.0249C36.9719 68.0249 37.5895 67.8128 37.9642 67.4364L38.4973 68.2052C37.9642 68.7142 37.1778 68.9846 36.328 68.9846C34.7235 68.9846 33.5254 67.8606 33.5254 66.1586C33.5254 64.5998 34.6549 63.3433 36.2383 63.3433H36.2436ZM34.7341 65.7239H37.7478C37.7267 65.0876 37.2939 64.2976 36.2436 64.2976C35.246 64.2976 34.7921 65.0664 34.7393 65.7239H34.7341Z" fill="#221F20"/>
<path d="M11.8537 17.5975H15.5273V11.3517L8.18024 9.23624V6.60645H5.74707V17.5975H9.4153V14.1353H11.8537V17.5975Z" fill="white"/>
</svg>
