<svg width="354" height="54" viewBox="0 0 354 54" fill="none" xmlns="http://www.w3.org/2000/svg">
<g clip-path="url(#clip0_9771_14181)">
<path d="M20.7205 14.9397L24.6241 17.3494L23.1317 31.1265L44.1359 18.6144C43.7577 15.6649 42.7628 12.8228 41.213 10.2646C39.6632 7.70638 37.5915 5.48675 35.1267 3.7435C32.6618 2.00026 29.8564 0.770628 26.8847 0.13097C23.9129 -0.508688 20.8383 -0.544716 17.8517 0.025123C14.8651 0.594962 12.0303 1.7585 9.52337 3.44349C7.01642 5.12847 4.89086 7.29892 3.27866 9.82006C1.66647 12.3412 0.602069 15.1592 0.151561 18.099C-0.298947 21.0389 -0.125944 24.0378 0.659828 26.9096L20.7205 14.9397Z" fill="#323A56"/>
<path d="M21.3618 38.0783L17.4582 35.6687L18.9506 21.8976L2.52222 31.6928C4.71672 35.7611 8.17826 39.0427 12.4069 41.0635C16.6355 43.0844 21.4122 43.7399 26.0471 42.9353C30.682 42.1308 34.9351 39.9078 38.1921 36.5876C41.4491 33.2673 43.5414 29.0217 44.1667 24.4638L21.3618 38.0783Z" fill="#323A56"/>
<path d="M23.3168 12.9578C25.0503 12.9578 26.4557 11.585 26.4557 9.89158C26.4557 8.19813 25.0503 6.82532 23.3168 6.82532C21.5832 6.82532 20.1779 8.19813 20.1779 9.89158C20.1779 11.585 21.5832 12.9578 23.3168 12.9578Z" fill="#F64E00"/>
<path d="M55.4397 41.5663L60.9528 41.488V3.42777L55.4397 3.50608V41.5663ZM81.809 15.1205C79.3423 15.1205 75.1427 16.1928 73.2803 19.1025V15.6627H68.0755V41.5663H73.2803V27.5483C73.2803 22.4398 77.2271 20.1507 81.1368 20.1507C84.8369 20.1507 87.3036 22.8615 87.3036 26.8916V41.5663H92.5023V26.6205C92.5023 22.9398 91.4662 19.9278 89.4189 17.9157C87.5688 16.0844 84.9356 15.1205 81.809 15.1205ZM108.154 34.9037L100.192 15.6687H94.6237L105.638 41.5663H110.62L121.69 15.6687H116.066L108.154 34.9037ZM205.287 15.1205C197.27 15.1205 191.443 20.7591 191.443 28.5362C191.443 36.3133 197.4 42.1145 205.287 42.1145C207.126 42.16 208.954 41.8399 210.662 41.1737C212.37 40.5075 213.921 39.5091 215.222 38.2391C216.522 36.9692 217.545 35.4542 218.228 33.7862C218.911 32.1182 219.239 30.332 219.193 28.5362C219.193 20.7591 213.372 15.1205 205.287 15.1205ZM205.287 37.3073C200.422 37.3073 196.722 33.5362 196.722 28.5362C196.722 23.6266 200.422 19.9278 205.306 19.9278C206.461 19.9119 207.609 20.1246 208.678 20.5532C209.747 20.9818 210.717 21.6174 211.528 22.4217C212.339 23.226 212.975 24.1823 213.398 25.2332C213.821 26.284 214.022 27.4076 213.989 28.5362C213.989 33.5362 210.245 37.3073 205.287 37.3073ZM237.163 15.1205C233.322 15.1205 229.806 16.7531 228.018 19.3374V15.6627H222.813V54.0001H228.018V37.9519C229.794 40.5603 233.18 42.0964 237.219 42.0964C244.884 42.0964 250.447 36.4338 250.447 28.6266C250.447 20.8193 244.86 15.1205 237.163 15.1205ZM236.713 37.3073C235.561 37.3106 234.419 37.0894 233.355 36.6566C232.29 36.2237 231.325 35.5879 230.516 34.7863C229.706 33.9848 229.068 33.0336 228.639 31.9883C228.21 30.9431 227.999 29.8248 228.018 28.6989C228.018 23.6989 231.755 19.9278 236.713 19.9278C241.468 19.9278 245.187 23.7832 245.187 28.6989C245.187 33.6145 241.542 37.3073 236.713 37.3073ZM304.733 19.2772C302.957 16.6687 299.572 15.1326 295.532 15.1326C287.867 15.1326 282.305 20.7952 282.305 28.6025C282.305 36.4097 287.892 42.1266 295.588 42.1266C299.43 42.1266 302.945 40.494 304.733 37.9097V41.5663H309.938V1.69885H304.733V19.2772ZM296.007 37.3073C291.283 37.3073 287.59 33.4519 287.59 28.5362C287.59 23.6205 291.185 19.9278 296.007 19.9278C297.164 19.9205 298.31 20.1386 299.379 20.5693C300.448 21.0001 301.419 21.6349 302.234 22.4365C303.048 23.2382 303.691 24.1905 304.125 25.2379C304.558 26.2853 304.774 27.4066 304.758 28.5362C304.733 32.7892 301.668 37.3073 296.007 37.3073ZM316.524 15.6687H321.729V41.5663H316.524V15.6687ZM353.562 15.6627H348.357V18.6748C346.507 16.4217 343.319 15.1085 339.594 15.1085H339.175C331.51 15.1085 325.947 20.7711 325.947 28.5784C325.947 36.3856 331.534 42.1025 339.231 42.1025H339.668C343.214 42.1025 346.489 40.7049 348.376 38.488V41.5663H353.975V15.6627H353.562ZM339.829 37.2892C335.21 37.1687 331.627 33.3736 331.627 28.5302C331.627 23.6868 335.142 20.0422 339.829 19.9338C342.125 19.9734 344.312 20.9003 345.91 22.5114C347.509 24.1226 348.389 26.2867 348.357 28.5302C348.357 32.729 345.342 37.1748 339.829 37.2952V37.2892ZM161.768 25.735C159.048 25.0543 157.124 24.4458 157.124 22.7892C157.124 20.9278 159.048 19.6266 161.811 19.6266C163.815 19.6658 165.75 20.3474 167.318 21.5663L167.448 21.6627L170.241 17.8796L170.118 17.7832C167.655 15.91 164.604 14.9285 161.484 15.0061C156.791 15.0061 151.741 17.5302 151.741 23.0603C151.741 26.9157 155.034 28.7952 157.79 29.6868C158.715 29.988 159.64 30.2229 160.578 30.4519C163.458 31.1748 165.949 31.8013 165.949 33.994C165.949 35.5302 164.364 37.1567 161.429 37.1567C158.648 37.0812 155.969 36.1138 153.807 34.4037L153.671 34.3073L150.884 38.1989L151.001 38.2892C153.996 40.6109 157.723 41.8439 161.546 41.7772C166.294 41.7772 171.345 39.0121 171.345 33.8856C171.345 28.7591 166.504 26.9217 161.768 25.735ZM278.919 28.1748C278.919 20.4458 273.807 15.0603 266.407 15.0603C258.926 15.0603 253.499 20.5844 253.499 28.1868C253.449 30.008 253.773 31.8205 254.452 33.5173C255.131 35.2142 256.151 36.7609 257.452 38.0663C259.782 40.2826 262.914 41.5102 266.166 41.482H266.413C270.995 41.4037 273.986 40.6627 277.618 36.8314L277.729 36.7169L274.121 33.3615L274.01 33.482C273.098 34.5285 271.959 35.3642 270.676 35.9288C269.394 36.4934 267.998 36.7729 266.592 36.747C262.571 36.747 259.401 33.8675 258.655 29.5603L278.74 29.5181H278.888V29.3736C278.908 29.139 278.908 28.9033 278.888 28.6687C278.925 28.5723 278.919 28.4398 278.919 28.1748ZM259.45 25.5603C260.135 21.8193 262.645 19.7591 266.536 19.7591C270.304 19.7591 272.869 21.9217 273.437 25.5603H259.45ZM148.004 28.1748C148.004 20.4458 142.854 15.0603 135.503 15.0603C128.023 15.0603 122.596 20.5844 122.596 28.1868C122.546 30.008 122.87 31.8205 123.549 33.5173C124.228 35.2142 125.248 36.7609 126.549 38.0663C128.879 40.2826 132.011 41.5102 135.263 41.482H135.503C140.092 41.4037 143.083 40.6627 146.715 36.8314L146.826 36.7169L143.218 33.3615L143.107 33.482C142.193 34.5309 141.051 35.368 139.765 35.9327C138.479 36.4974 137.08 36.7756 135.67 36.747C131.643 36.747 128.479 33.8675 127.733 29.5603L147.812 29.5181H147.967V29.3736C147.983 29.1389 147.983 28.9034 147.967 28.6687C148.004 28.5723 148.004 28.4398 148.004 28.1748ZM128.516 25.5603C129.207 21.8193 131.717 19.7591 135.608 19.7591C139.376 19.7591 141.942 21.9217 142.509 25.5603H128.516ZM188.396 36.1868C187.681 36.3737 186.942 36.461 186.201 36.4458C185.607 36.4727 185.015 36.3795 184.46 36.1722C183.905 35.9649 183.399 35.6479 182.976 35.241C182.408 34.5904 182.291 33.5904 182.291 32.2952V20.0904H189.691V15.6627H182.291V7.27717H177.08V15.6627H174.219V20.0904H177.08V32.0302C177.08 34.9037 177.734 37.0181 179.078 38.488C179.956 39.4341 181.035 40.1803 182.24 40.6737C183.446 41.1672 184.747 41.3958 186.053 41.3434C187.361 41.3552 188.663 41.1807 189.92 40.8254L190.074 40.7772L188.55 36.1446L188.396 36.1868ZM319.127 3.25909C318.684 3.25822 318.246 3.34357 317.838 3.51014C317.43 3.67671 317.06 3.92116 316.75 4.22916C316.44 4.53716 316.196 4.90252 316.032 5.30384C315.869 5.70516 315.788 6.13437 315.797 6.56632C315.79 6.99531 315.872 7.42124 316.037 7.81885C316.202 8.21646 316.447 8.57766 316.757 8.88103C317.068 9.18441 317.437 9.42378 317.844 9.58496C318.252 9.74613 318.688 9.82584 319.127 9.81933C319.57 9.82898 320.011 9.75191 320.423 9.59268C320.835 9.43345 321.211 9.19527 321.527 8.89215C321.844 8.58903 322.095 8.22711 322.267 7.82768C322.438 7.42825 322.526 6.99938 322.525 6.56632C322.526 6.13055 322.439 5.69878 322.269 5.29601C322.099 4.89325 321.848 4.52749 321.532 4.21991C321.216 3.91233 320.841 3.66903 320.428 3.50411C320.015 3.33918 319.573 3.2559 319.127 3.25909Z" fill="#201D1E"/>
</g>
<defs>
<clipPath id="clip0_9771_14181">
<rect width="354" height="54" fill="white"/>
</clipPath>
</defs>
</svg>
