<svg width="34" height="35" viewBox="0 0 34 35" fill="none" xmlns="http://www.w3.org/2000/svg">
<g filter="url(#filter0_b_1157_11)">
<circle cx="17" cy="17.6553" r="17" fill="#231F20" fill-opacity="0.5"/>
</g>
<path d="M14.2347 17.6559C14.2347 17.5305 14.2564 17.406 14.2987 17.2879C14.3466 17.1601 14.4225 17.0447 14.5207 16.9499L19.5811 11.8909C19.656 11.8127 19.7468 11.7513 19.8473 11.7107C19.9478 11.6702 20.0558 11.6515 20.1641 11.6559C20.273 11.6576 20.3805 11.6808 20.4804 11.7243C20.5803 11.7677 20.6706 11.8304 20.7461 11.9089C20.8253 11.9853 20.8878 12.0773 20.9298 12.179C20.9717 12.2806 20.9923 12.3899 20.9902 12.4999C20.9923 12.6099 20.9717 12.7191 20.9298 12.8208C20.8878 12.9225 20.8253 13.0145 20.7461 13.0909L16.1768 17.6559L20.7641 22.2469C20.8423 22.3219 20.9037 22.4127 20.9442 22.5132C20.9847 22.6137 21.0034 22.7216 20.9992 22.8299C20.9975 22.9387 20.9744 23.0461 20.9312 23.146C20.8879 23.2459 20.8254 23.3362 20.7471 23.4119C20.6706 23.4911 20.5785 23.5537 20.4766 23.5957C20.3747 23.6377 20.2653 23.6582 20.1551 23.6559C20.0451 23.658 19.9358 23.6375 19.8341 23.5955C19.7324 23.5535 19.6405 23.491 19.5641 23.4119L14.5217 18.3699C14.4245 18.2766 14.3488 18.1633 14.2997 18.0379C14.2551 17.9155 14.2331 17.7861 14.2347 17.6559Z" fill="#FAF5EE"/>
<defs>
<filter id="filter0_b_1157_11" x="-4" y="-3.34473" width="42" height="42" filterUnits="userSpaceOnUse" color-interpolation-filters="sRGB">
<feFlood flood-opacity="0" result="BackgroundImageFix"/>
<feGaussianBlur in="BackgroundImageFix" stdDeviation="2"/>
<feComposite in2="SourceAlpha" operator="in" result="effect1_backgroundBlur_1157_11"/>
<feBlend mode="normal" in="SourceGraphic" in2="effect1_backgroundBlur_1157_11" result="shape"/>
</filter>
</defs>
</svg>
