<svg width="21" height="22" viewBox="0 0 21 22" fill="none" xmlns="http://www.w3.org/2000/svg">
<path d="M10.8024 16.2201C12.0839 15.1219 13.2083 13.8528 14.1441 12.4484C14.7987 11.5385 15.19 10.466 15.2751 9.34837C15.2978 8.73529 15.1945 8.12409 14.9719 7.55243C14.7492 6.98076 14.4118 6.46075 13.9805 6.02446C13.13 5.19643 11.9899 4.73309 10.8029 4.73309C9.61586 4.73309 8.47572 5.19643 7.62526 6.02446C7.19393 6.46075 6.85653 6.98076 6.63387 7.55243C6.4112 8.12409 6.308 8.73529 6.3306 9.34837C6.4157 10.466 6.80704 11.5385 7.46168 12.4484C8.39721 13.8527 9.52131 15.1218 10.8024 16.2201ZM10.8024 17.6555C9.21815 16.343 7.81528 14.8258 6.63065 13.1437C5.81188 12.0385 5.33391 10.7181 5.2555 9.34487C5.22018 8.57411 5.35156 7.80479 5.64066 7.08942C5.92975 6.37405 6.36976 5.72945 6.93069 5.19961C7.97577 4.2082 9.36143 3.65552 10.802 3.65552C12.2426 3.65552 13.6282 4.2082 14.6733 5.19961C15.2343 5.72942 15.6743 6.37401 15.9634 7.08939C16.2525 7.80477 16.3839 8.5741 16.3485 9.34487C16.2695 10.7165 15.7919 12.0352 14.9742 13.1394C13.7898 14.8226 12.387 16.341 10.8024 17.6546V17.6555Z" fill="#231F20"/>
<path d="M10.8024 16.2201C12.0839 15.1219 13.2083 13.8528 14.1441 12.4484C14.7987 11.5385 15.19 10.466 15.2751 9.34837C15.2978 8.73529 15.1945 8.12409 14.9719 7.55243C14.7492 6.98076 14.4118 6.46075 13.9805 6.02446C13.13 5.19643 11.9899 4.73309 10.8029 4.73309C9.61586 4.73309 8.47572 5.19643 7.62526 6.02446C7.19393 6.46075 6.85653 6.98076 6.63387 7.55243C6.4112 8.12409 6.308 8.73529 6.3306 9.34837C6.4157 10.466 6.80704 11.5385 7.46168 12.4484C8.39721 13.8527 9.52131 15.1218 10.8024 16.2201ZM10.8024 17.6555C9.21815 16.343 7.81528 14.8258 6.63065 13.1437C5.81188 12.0385 5.33391 10.7181 5.2555 9.34487C5.22018 8.57411 5.35156 7.80479 5.64066 7.08942C5.92975 6.37405 6.36976 5.72945 6.93069 5.19961C7.97577 4.2082 9.36143 3.65552 10.802 3.65552C12.2426 3.65552 13.6282 4.2082 14.6733 5.19961C15.2343 5.72942 15.6743 6.37401 15.9634 7.08939C16.2525 7.80477 16.3839 8.5741 16.3485 9.34487C16.2695 10.7165 15.7919 12.0352 14.9742 13.1394C13.7898 14.8226 12.387 16.341 10.8024 17.6546V17.6555Z" fill="#231F20"/>
<path d="M10.8024 16.2201C12.0839 15.1219 13.2083 13.8528 14.1441 12.4484C14.7987 11.5385 15.19 10.466 15.2751 9.34837C15.2978 8.73529 15.1945 8.12409 14.9719 7.55243C14.7492 6.98076 14.4118 6.46075 13.9805 6.02446C13.13 5.19643 11.9899 4.73309 10.8029 4.73309C9.61586 4.73309 8.47572 5.19643 7.62526 6.02446C7.19393 6.46075 6.85653 6.98076 6.63387 7.55243C6.4112 8.12409 6.308 8.73529 6.3306 9.34837C6.4157 10.466 6.80704 11.5385 7.46168 12.4484C8.39721 13.8527 9.52131 15.1218 10.8024 16.2201ZM10.8024 17.6555C9.21815 16.343 7.81528 14.8258 6.63065 13.1437C5.81188 12.0385 5.33391 10.7181 5.2555 9.34487C5.22018 8.57411 5.35156 7.80479 5.64066 7.08942C5.92975 6.37405 6.36976 5.72945 6.93069 5.19961C7.97577 4.2082 9.36143 3.65552 10.802 3.65552C12.2426 3.65552 13.6282 4.2082 14.6733 5.19961C15.2343 5.72942 15.6743 6.37401 15.9634 7.08939C16.2525 7.80477 16.3839 8.5741 16.3485 9.34487C16.2695 10.7165 15.7919 12.0352 14.9742 13.1394C13.7898 14.8226 12.387 16.341 10.8024 17.6546V17.6555Z" fill="#231F20"/>
</svg>
