<svg xmlns="http://www.w3.org/2000/svg" viewBox="0 0 147 33.8"><path d="M10.6 10.6a5 5 0 0 1 3.1 1 4.7 4.7 0 0 1 1.6 2.7h5.8a10.1 10.1 0 0 0-3.5-6.1A10.4 10.4 0 0 0 10.7 6a11.6 11.6 0 0 0-5.6 1.3 9 9 0 0 0-3.7 3.8A12.1 12.1 0 0 0 0 16.9a12.2 12.2 0 0 0 1.4 5.9 9.7 9.7 0 0 0 3.7 3.8 11.6 11.6 0 0 0 5.6 1.3 10.4 10.4 0 0 0 6.9-2.2 10.1 10.1 0 0 0 3.5-6.1h-5.8a4.7 4.7 0 0 1-1.6 2.7 5 5 0 0 1-3.1.9A4.4 4.4 0 0 1 7 21.6a6.5 6.5 0 0 1-1.5-4.7A6.4 6.4 0 0 1 7 12.3a4.5 4.5 0 0 1 3.6-1.7zm25.9-4.7A8.4 8.4 0 0 0 32 7a8.6 8.6 0 0 0-2.8 2.9V0h-5.4v27.7h5.4V16.3a6.2 6.2 0 0 1 1.4-4.3 4.8 4.8 0 0 1 3.7-1.5 4.5 4.5 0 0 1 3.6 1.4 5.3 5.3 0 0 1 1.3 3.9v11.9h5.4V15.2c0-2.9-.7-5.2-2.2-6.8a7.2 7.2 0 0 0-5.9-2.5zm27.6 4.8a6.7 6.7 0 0 0-2.7-3.5A8.5 8.5 0 0 0 56.8 6a8.8 8.8 0 0 0-4.9 1.3 8.4 8.4 0 0 0-3.4 3.8 13.4 13.4 0 0 0-1.2 5.8 13.5 13.5 0 0 0 1.2 5.9 8.4 8.4 0 0 0 3.4 3.8 8.8 8.8 0 0 0 4.9 1.3 7.8 7.8 0 0 0 4.6-1.3 6.5 6.5 0 0 0 2.7-3.4v4.5h5.4V6.2h-5.4zm-1.6 10.8a5.2 5.2 0 0 1-4 1.6 5.3 5.3 0 0 1-4.1-1.6 6.1 6.1 0 0 1-1.6-4.6 6.1 6.1 0 0 1 1.6-4.5 5.3 5.3 0 0 1 4.1-1.7 5.3 5.3 0 0 1 4 1.7 6.1 6.1 0 0 1 1.6 4.5 6.5 6.5 0 0 1-1.6 4.6zM91.1 7.3A9 9 0 0 0 86.2 6a8.5 8.5 0 0 0-4.6 1.2 6.7 6.7 0 0 0-2.7 3.5V6.2h-5.5v27.6h5.5V23.2a6.5 6.5 0 0 0 2.7 3.4 7.8 7.8 0 0 0 4.6 1.3 8.9 8.9 0 0 0 8.3-5.1 13.5 13.5 0 0 0 1.2-5.9 13.4 13.4 0 0 0-1.2-5.8 9 9 0 0 0-3.4-3.8zm-2.5 14.2a5.3 5.3 0 0 1-4.1 1.6 5.2 5.2 0 0 1-4-1.6 6.5 6.5 0 0 1-1.6-4.6 6.1 6.1 0 0 1 1.6-4.5 5.3 5.3 0 0 1 4-1.7 5.3 5.3 0 0 1 4.1 1.7 6.1 6.1 0 0 1 1.6 4.5 6.1 6.1 0 0 1-1.6 4.6zm16 .9a3.4 3.4 0 0 1-.6-2.2v-8.7h4.7V6.1H104V0h-5.5v20.1c0 2.7.6 4.7 1.9 5.8a7.8 7.8 0 0 0 5.5 1.8h2.9V23h-2.1a2.9 2.9 0 0 1-2.1-.6zm21.6-15.1a11 11 0 0 0-5.6-1.3 11.2 11.2 0 0 0-5.5 1.3 9.3 9.3 0 0 0-3.8 3.8 12.1 12.1 0 0 0-1.4 5.8 12.2 12.2 0 0 0 1.4 5.9 9.9 9.9 0 0 0 3.8 3.8 11.2 11.2 0 0 0 5.5 1.3 11.3 11.3 0 0 0 4.9-1 9 9 0 0 0 3.6-2.8 9.1 9.1 0 0 0 1.8-4h-5.8a3.6 3.6 0 0 1-1.6 2.5 5.3 5.3 0 0 1-6.7-.4 5.8 5.8 0 0 1-1.5-4.2H131a13.7 13.7 0 0 0 .2-1.9 11.1 11.1 0 0 0-1.3-5.2 9.8 9.8 0 0 0-3.7-3.6zm-5.6 3a5.2 5.2 0 0 1 3.7 1.3 4.1 4.1 0 0 1 1.3 2.9h-10.2a4.8 4.8 0 0 1 1.5-2.9 5.4 5.4 0 0 1 3.7-1.3zm21.1-4.2a7.8 7.8 0 0 0-7.8 7.8v13.8h5.5V15.2a3.6 3.6 0 0 1 3.6-3.6h4V6.1z" fill="#221f1f"/></svg>