<svg width="33" height="32" viewBox="0 0 33 32" fill="none" xmlns="http://www.w3.org/2000/svg">
<mask id="mask0_1685_1396" style="mask-type:alpha" maskUnits="userSpaceOnUse" x="0" y="0" width="33" height="32">
<rect x="0.5" width="32" height="32" fill="#D9D9D9"/>
</mask>
<g mask="url(#mask0_1685_1396)">
<path d="M6.36667 24.9333C5.83667 24.9333 5.39306 24.7547 5.03583 24.3975C4.67861 24.0403 4.5 23.5967 4.5 23.0667V8.93332C4.5 8.40332 4.67861 7.95971 5.03583 7.60248C5.39306 7.24526 5.83667 7.06665 6.36667 7.06665H25.8333C26.3633 7.06665 26.8069 7.24526 27.1642 7.60248C27.5214 7.95971 27.7 8.40332 27.7 8.93332V23.0667C27.7 23.5967 27.5214 24.0403 27.1642 24.3975C26.8069 24.7547 26.3633 24.9333 25.8333 24.9333H6.36667ZM16.1 15.6444L5.3 8.42218V23.0667C5.3 23.3778 5.4 23.6333 5.6 23.8333C5.8 24.0333 6.05556 24.1333 6.36667 24.1333H25.8333C26.1444 24.1333 26.4 24.0333 26.6 23.8333C26.8 23.6333 26.9 23.3778 26.9 23.0667V8.42218L16.1 15.6444ZM16.1 14.6444L26.3444 7.86665H5.87777L16.1 14.6444ZM5.3 8.42218V7.86665V23.0667C5.3 23.3778 5.4 23.6333 5.6 23.8333C5.8 24.0333 6.05556 24.1333 6.36667 24.1333H5.3V8.42218Z" fill="#1C1B1F"/>
</g>
</svg>
