<svg width="384" height="54" viewBox="0 0 384 54" fill="none" xmlns="http://www.w3.org/2000/svg">
<g clip-path="url(#clip0_9771_14155)">
<path d="M92.9858 23.605L92.3252 26.8386H92.16C91.3342 25.03 89.0219 22.5089 83.9019 22.5089C75.6439 22.5089 67.2206 28.8664 65.3488 38.8959C63.7523 47.6648 67.9914 55.3924 77.791 55.3924C81.3695 55.3924 85.4985 54.0223 87.6456 51.008H87.8107L87.2052 54.2963H96.3441L102.07 23.605H92.9858ZM90.0129 38.8959C89.4073 41.9102 86.5445 46.7879 80.8189 46.7879C75.2034 46.7879 74.0473 41.8554 74.5428 39.0055C75.2034 35.4979 78.3415 31.1134 83.6817 31.1134C88.9118 31.1682 90.6735 35.2787 90.0129 38.8959ZM107.245 23.605H115.833L115.228 26.8386H115.393C116.494 25.3588 118.641 22.5089 123.926 22.5089L122.219 31.8259C117.87 31.8807 114.732 32.7576 113.906 37.4709L110.768 54.2963H101.519L107.245 23.605ZM130.147 11.6025H139.396L135.047 34.7306H135.212L145.892 23.605H156.738L142.644 37.0873L150.737 54.2963H140.277L134.331 39.4987H134.166L131.468 54.2963H122.164L130.147 11.6025Z" fill="black"/>
<path d="M171.548 22.5089C162.188 22.5089 153.875 30.5106 152.334 39.0603C150.627 48.1581 156.793 55.3376 165.657 55.3376C168.795 55.3376 172.043 54.4059 174.906 52.5425C177.824 50.7887 180.521 48.1581 182.613 44.7053H173.199C171.658 46.2947 169.896 47.5552 167.033 47.5552C163.455 47.5552 160.757 45.4178 160.922 41.7458H184.045C184.32 41.0333 184.485 40.4852 184.705 39.3343C186.467 29.9625 180.962 22.5089 171.548 22.5089ZM162.188 35.5527C162.904 33.7441 165.437 30.2913 170.226 30.2913C175.016 30.2913 176.172 33.7441 176.172 35.5527H162.188ZM53.1269 11.6025L36.831 35.9364H36.7209V11.6025H28.8482L0 54.2963H11.1759L27.3617 29.9625H27.5269V54.2963H35.4546L51.6404 29.9625H51.8056V54.2963H61.0546V11.6025H53.1269ZM208.103 23.605H202.268L203.974 14.5073H195.881L195.221 18.0148C194.505 22.0157 191.972 23.2214 188.614 23.605H188.559L187.183 30.5654H191.752L187.348 54.2963H196.542L200.946 30.5654H206.837L208.103 23.605Z" fill="black"/>
<path d="M350.803 42.6776C347.775 49.6379 340.563 55.3377 332.25 55.3377C322.89 55.3377 317.11 47.9938 318.761 38.8412C320.468 29.853 328.836 22.509 338.085 22.509C346.233 22.509 351.849 27.9348 352.014 35.4432H342.655C342.049 33.3058 340.673 31.1136 336.764 31.1136C332.415 30.8943 328.836 34.4567 328.01 38.896C327.185 43.3901 329.497 46.7332 333.901 46.7332C337.7 46.7332 340.012 44.541 341.333 42.6228H350.803V42.6776ZM274.388 0.696289L256.44 11.6027H261.505L245.265 35.9365H245.099V11.6027H237.172L220.931 35.9365H220.766V11.6027H211.517V54.2964H219.554L235.795 29.9626H235.96V54.2964H243.888L272.626 11.6027H277.196L274.388 0.696289ZM291.895 54.2964H282.756L283.362 51.0081H283.197C281.05 54.0224 276.92 55.3926 273.342 55.3926C263.542 55.3926 259.303 47.7197 260.9 38.896C262.717 28.8665 271.195 22.509 279.453 22.509C284.518 22.509 286.885 24.9753 287.711 26.8387H287.876L288.537 23.6051H297.676L291.895 54.2964ZM276.37 46.8428C282.096 46.8428 284.958 41.9103 285.564 38.9508C286.225 35.2788 284.463 31.1684 279.233 31.1684C273.948 31.1684 270.754 35.5528 270.094 39.0604C269.598 41.9103 270.754 46.8428 276.37 46.8428ZM320.688 23.6051H314.908L316.614 14.5074H308.521L307.861 18.0149C307.145 22.0158 304.613 23.2215 301.254 23.6051H301.144L299.823 30.5655H304.392L299.988 54.2964H309.182L313.586 30.5655H319.477L320.688 23.6051ZM359.501 11.6027H368.695L365.887 26.8387H366.053C368.034 23.9888 370.677 22.509 374.751 22.509C377.669 22.509 381.027 23.6051 382.569 25.9618C384.551 28.9761 384.33 31.6616 383.284 37.1422L380.146 54.2964H370.952L374.035 37.5807C374.311 36.1009 375.191 31.1136 370.292 31.1136C365.117 31.1136 364.236 35.7172 363.96 37.2518L360.822 54.2416H351.628L359.501 11.6027Z" fill="#00AC4E"/>
</g>
<defs>
<clipPath id="clip0_9771_14155">
<rect width="384" height="54" fill="white"/>
</clipPath>
</defs>
</svg>
