<svg width="60" height="60" viewBox="0 0 60 60" fill="none" xmlns="http://www.w3.org/2000/svg">
<path fill-rule="evenodd" clip-rule="evenodd" d="M24.0738 11C22.9869 11 22.0799 11.7655 21.8527 12.7851H21.793V13.2851V23.4754C21.793 24.7342 22.8103 25.7605 24.0688 25.7605H42.326L43.9602 27.4032L44.3147 27.7595L44.6691 27.4032L46.3034 25.7605H48.727C49.9855 25.7605 51.0028 24.7342 51.0028 23.4754V13.2851C51.0028 12.0263 49.9855 11 48.727 11H24.0738ZM22.793 23.4754V13.7851H22.798V13.2851C22.798 12.5737 23.3724 12 24.0738 12H48.727C49.4283 12 50.0028 12.5737 50.0028 13.2851V23.4754C50.0028 24.1867 49.4283 24.7605 48.727 24.7605H46.0955H45.8876L45.741 24.9078L44.3147 26.3416L42.8883 24.9078L42.7417 24.7605H42.5338H24.0688C23.3675 24.7605 22.793 24.1867 22.793 23.4754ZM11.2759 31.3658C10.0173 31.3658 9 32.3922 9 33.6509V43.8412C9 45.1 10.0173 46.1263 11.2759 46.1263H13.4756L15.1098 47.769L15.4643 48.1253L15.8188 47.769L17.453 46.1263H35.929C37.1875 46.1263 38.2049 45.1 38.2049 43.8412V33.6509C38.2049 32.3922 37.1875 31.3658 35.929 31.3658H11.2759ZM10 33.6509C10 32.9396 10.5745 32.3658 11.2759 32.3658H35.929C36.6304 32.3658 37.2049 32.9396 37.2049 33.6509V43.8412C37.2049 44.5526 36.6304 45.1263 35.929 45.1263H17.2451H17.0373L16.8907 45.2737L15.4643 46.7074L14.0379 45.2737L13.8913 45.1263H13.6835H11.2759C10.5745 45.1263 10 44.5526 10 43.8412V33.6509ZM31.0875 19.2752C31.604 19.2752 32.0227 18.8543 32.0227 18.3352C32.0227 17.816 31.604 17.3951 31.0875 17.3951C30.571 17.3951 30.1523 17.816 30.1523 18.3352C30.1523 18.8543 30.571 19.2752 31.0875 19.2752ZM37.3899 18.3352C37.3899 18.8543 36.9712 19.2752 36.4547 19.2752C35.9382 19.2752 35.5195 18.8543 35.5195 18.3352C35.5195 17.816 35.9382 17.3951 36.4547 17.3951C36.9712 17.3951 37.3899 17.816 37.3899 18.3352ZM41.8258 19.2752C42.3423 19.2752 42.761 18.8543 42.761 18.3352C42.761 17.816 42.3423 17.3951 41.8258 17.3951C41.3093 17.3951 40.8906 17.816 40.8906 18.3352C40.8906 18.8543 41.3093 19.2752 41.8258 19.2752ZM19.3548 38.696C19.3548 39.2152 18.9361 39.636 18.4196 39.636C17.9031 39.636 17.4844 39.2152 17.4844 38.696C17.4844 38.1768 17.9031 37.756 18.4196 37.756C18.9361 37.756 19.3548 38.1768 19.3548 38.696ZM23.7867 39.636C24.3032 39.636 24.7219 39.2152 24.7219 38.696C24.7219 38.1768 24.3032 37.756 23.7867 37.756C23.2703 37.756 22.8516 38.1768 22.8516 38.696C22.8516 39.2152 23.2703 39.636 23.7867 39.636ZM30.093 38.696C30.093 39.2152 29.6743 39.636 29.1578 39.636C28.6414 39.636 28.2227 39.2152 28.2227 38.696C28.2227 38.1768 28.6414 37.756 29.1578 37.756C29.6743 37.756 30.093 38.1768 30.093 38.696Z" fill="#231F20"/>
</svg>
