<svg width="60" height="60" viewBox="0 0 60 60" fill="none" xmlns="http://www.w3.org/2000/svg">
<path fill-rule="evenodd" clip-rule="evenodd" d="M22.3321 11.2536C22.3321 10.0039 23.3577 9 24.6077 9H49.2578C50.5079 9 51.5334 10.0039 51.5334 11.2536V21.2642C51.5334 22.5139 50.5079 23.5178 49.2578 23.5178H33.6899V50.5003V51.0003H33.1899H8.5H8V50.5003V25.7538V25.5448L8.14866 25.398L15.5944 18.0448L15.7405 17.9005H15.9458H22.3321V11.2536ZM30.7816 23.5178H32.6899V50.0003H9V26.2596H15.9467H16.4467V25.7596V18.9005H22.3321V21.2642C22.3321 22.5139 23.3577 23.5178 24.6077 23.5178H26.8098L28.4443 25.132L28.7957 25.479L29.147 25.132L30.7816 23.5178ZM24.6077 10C23.8981 10 23.3321 10.5679 23.3321 11.2536V21.2642C23.3321 21.9498 23.8981 22.5178 24.6077 22.5178H27.015H27.2203L27.3664 22.662L28.7957 24.0735L30.2249 22.662L30.371 22.5178H30.5763H49.2578C49.9674 22.5178 50.5334 21.9498 50.5334 21.2642V11.2536C50.5334 10.5679 49.9674 10 49.2578 10H24.6077ZM15.4467 19.5961L9.71199 25.2596H15.4467V19.5961ZM20.5204 34.5857C19.2621 34.512 18.3121 34.0011 17.6953 33.3085L18.3021 32.5423C18.7846 33.0777 19.5356 33.5787 20.5254 33.6868V30.715C19.267 30.3761 17.9589 29.9586 17.9589 28.4604C17.9589 27.1931 19.0333 26.3041 20.5254 26.2157V25.0957H21.2764V26.2304C22.301 26.3286 23.1018 26.7167 23.7086 27.3405L23.0919 28.0822C22.5995 27.5566 21.9678 27.2521 21.2764 27.1538V29.7965C22.5497 30.1501 23.8926 30.6266 23.8926 32.2083C23.8926 33.3184 23.1764 34.4383 21.2764 34.5857V35.6712H20.5254V34.5857H20.5204ZM20.5204 29.6049V27.1195C19.6301 27.1784 19.0134 27.6794 19.0134 28.4015C19.0134 29.1235 19.6799 29.3642 20.5204 29.6098V29.6049ZM21.2715 30.9213V33.6868C22.4453 33.564 22.8283 32.8714 22.8283 32.2967C22.8283 31.5059 22.1369 31.1768 21.2715 30.9213ZM26.3108 45.0274H14.125V44.0274H26.3108V45.0274ZM14.125 39.924H26.3108V38.924H14.125V39.924ZM32.679 16.2148C32.679 16.7249 32.2603 17.1384 31.7438 17.1384C31.2274 17.1384 30.8087 16.7249 30.8087 16.2148C30.8087 15.7048 31.2274 15.2913 31.7438 15.2913C32.2603 15.2913 32.679 15.7048 32.679 16.2148ZM37.1188 17.1384C37.6353 17.1384 38.054 16.7249 38.054 16.2148C38.054 15.7048 37.6353 15.2913 37.1188 15.2913C36.6024 15.2913 36.1837 15.7048 36.1837 16.2148C36.1837 16.7249 36.6024 17.1384 37.1188 17.1384ZM43.4212 16.2148C43.4212 16.7249 43.0025 17.1384 42.486 17.1384C41.9695 17.1384 41.5508 16.7249 41.5508 16.2148C41.5508 15.7048 41.9695 15.2913 42.486 15.2913C43.0025 15.2913 43.4212 15.7048 43.4212 16.2148Z" fill="#231F20"/>
</svg>
