<svg width="33" height="32" viewBox="0 0 33 32" fill="none" xmlns="http://www.w3.org/2000/svg">
<mask id="mask0_1685_1401" style="mask-type:alpha" maskUnits="userSpaceOnUse" x="0" y="0" width="33" height="32">
<rect x="0.5" width="32" height="32" fill="#D9D9D9"/>
</mask>
<g mask="url(#mask0_1685_1401)">
<path d="M13.8111 26.2889H18.3889V25.3556H13.8111V26.2889ZM10.3667 28.9333C9.83667 28.9333 9.39306 28.7547 9.03583 28.3975C8.67861 28.0403 8.5 27.5967 8.5 27.0667V4.93332C8.5 4.40332 8.67861 3.95971 9.03583 3.60248C9.39306 3.24526 9.83667 3.06665 10.3667 3.06665H21.8333C22.3633 3.06665 22.8069 3.24526 23.1642 3.60248C23.5214 3.95971 23.7 4.40332 23.7 4.93332V27.0667C23.7 27.5967 23.5214 28.0403 23.1642 28.3975C22.8069 28.7547 22.3633 28.9333 21.8333 28.9333H10.3667ZM9.3 23.5333V27.0667C9.3 27.3333 9.41111 27.5778 9.63333 27.8C9.85556 28.0222 10.1 28.1333 10.3667 28.1333H21.8333C22.1 28.1333 22.3444 28.0222 22.5667 27.8C22.7889 27.5778 22.9 27.3333 22.9 27.0667V23.5333H9.3ZM9.3 22.7333H22.9V6.79998H9.3V22.7333ZM9.3 5.99998H22.9V4.93332C22.9 4.66665 22.7889 4.42221 22.5667 4.19998C22.3444 3.97776 22.1 3.86665 21.8333 3.86665H10.3667C10.1 3.86665 9.85556 3.97776 9.63333 4.19998C9.41111 4.42221 9.3 4.66665 9.3 4.93332V5.99998Z" fill="#1C1B1F"/>
</g>
</svg>
