<svg width="32" height="32" viewBox="0 0 32 32" fill="none" xmlns="http://www.w3.org/2000/svg">
<g clip-path="url(#clip0_3021_12122)">
<path d="M16.0231 0C7.19506 0 0.0390625 7.156 0.0390625 15.9827C0.0390625 22.7547 4.24973 28.5387 10.1964 30.8653C10.0564 29.6 9.93106 27.6613 10.2511 26.28C10.5431 25.0307 12.1257 18.3373 12.1257 18.3373C12.1257 18.3373 11.6471 17.3773 11.6471 15.9627C11.6471 13.7453 12.9364 12.0813 14.5377 12.0813C15.9031 12.0813 16.5617 13.1067 16.5617 14.332C16.5617 15.704 15.6911 17.7547 15.2391 19.6547C14.8591 21.2453 16.0391 22.5413 17.6057 22.5413C20.4431 22.5413 22.6297 19.548 22.6297 15.2253C22.6297 11.4107 19.8791 8.73333 15.9524 8.73333C11.4057 8.73333 8.7404 12.1493 8.7404 15.6653C8.7404 17.0427 9.26573 18.5227 9.92573 19.32C10.0577 19.48 10.0751 19.62 10.0391 19.78C9.91906 20.28 9.6484 21.3787 9.59373 21.5973C9.52306 21.8973 9.3644 21.9587 9.05906 21.8173C7.06573 20.8973 5.81506 17.98 5.81506 15.6227C5.81506 10.588 9.47906 5.95333 16.3751 5.95333C21.9191 5.95333 26.2311 9.90933 26.2311 15.184C26.2311 20.6973 22.7551 25.1333 17.9204 25.1333C16.3017 25.1333 14.7817 24.2947 14.2431 23.2947L13.2444 27.092C12.8857 28.4853 11.9057 30.228 11.2471 31.2867C12.7444 31.7467 14.3217 32 15.9804 32C24.7897 32 31.9604 24.8467 31.9604 16.0173C31.9604 7.18667 24.7897 0.0346667 15.9804 0.0346667L16.0231 0Z" fill="#231F20"/>
</g>
<defs>
<clipPath id="clip0_3021_12122">
<rect width="32" height="32" fill="white"/>
</clipPath>
</defs>
</svg>
