<svg width="34" height="35" viewBox="0 0 34 35" fill="none" xmlns="http://www.w3.org/2000/svg">
<g filter="url(#filter0_b_1157_16)">
<circle cx="17" cy="17.6553" r="17" transform="rotate(180 17 17.6553)" fill="#231F20" fill-opacity="0.5"/>
</g>
<path d="M20.765 17.6566C20.7649 17.782 20.7433 17.9065 20.7009 18.0246C20.653 18.1524 20.5771 18.2678 20.4789 18.3626L15.4186 23.4216C15.3436 23.4998 15.2528 23.5612 15.1523 23.6018C15.0518 23.6423 14.9438 23.661 14.8355 23.6566C14.7266 23.6549 14.6191 23.6317 14.5192 23.5882C14.4194 23.5448 14.329 23.4821 14.2535 23.4036C14.1744 23.3272 14.1119 23.2352 14.0699 23.1335C14.0279 23.0319 14.0073 22.9226 14.0095 22.8126C14.0073 22.7026 14.0279 22.5934 14.0699 22.4917C14.1119 22.39 14.1744 22.298 14.2535 22.2216L18.8228 17.6566L14.2355 13.0656C14.1573 12.9906 14.0959 12.8998 14.0554 12.7993C14.0149 12.6988 13.9962 12.5909 14.0005 12.4826C14.0021 12.3738 14.0252 12.2664 14.0685 12.1665C14.1117 12.0666 14.1743 11.9763 14.2525 11.9006C14.3291 11.8214 14.4212 11.7588 14.523 11.7168C14.6249 11.6748 14.7344 11.6543 14.8445 11.6566C14.9545 11.6545 15.0638 11.675 15.1655 11.717C15.2672 11.759 15.3591 11.8215 15.4356 11.9006L20.4779 16.9426C20.5751 17.0359 20.6509 17.1492 20.6999 17.2746C20.7445 17.397 20.7665 17.5264 20.765 17.6566Z" fill="#FAF5EE"/>
<defs>
<filter id="filter0_b_1157_16" x="-4" y="-3.34473" width="42" height="42" filterUnits="userSpaceOnUse" color-interpolation-filters="sRGB">
<feFlood flood-opacity="0" result="BackgroundImageFix"/>
<feGaussianBlur in="BackgroundImageFix" stdDeviation="2"/>
<feComposite in2="SourceAlpha" operator="in" result="effect1_backgroundBlur_1157_16"/>
<feBlend mode="normal" in="SourceGraphic" in2="effect1_backgroundBlur_1157_16" result="shape"/>
</filter>
</defs>
</svg>
