<svg width="505" height="8" viewBox="0 0 505 8" fill="none" xmlns="http://www.w3.org/2000/svg">
<mask id="mask0_1262_99" style="mask-type:alpha" maskUnits="userSpaceOnUse" x="0" y="0" width="505" height="8">
<g clip-path="url(#clip0_1262_99)">
<path d="M0 1C8.69 1 8.69 6.76 17.38 6.76C26.07 6.76 26.07 1 34.76 1C43.45 1 43.45 6.76 52.14 6.76C60.83 6.76 60.82 1 69.51 1C78.2 1 78.2 6.76 86.89 6.76C95.58 6.76 95.58 1 104.27 1C112.96 1 112.96 6.76 121.65 6.76C130.34 6.76 130.34 1 139.03 1C147.72 1 147.72 6.76 156.41 6.76C165.1 6.76 165.1 1 173.79 1C182.48 1 182.48 6.76 191.17 6.76C199.86 6.76 199.86 1 208.55 1C217.24 1 217.24 6.76 225.93 6.76C234.62 6.76 234.62 1 243.31 1C252 1 252 6.76 260.69 6.76C269.38 6.76 269.38 1 278.07 1C286.76 1 286.76 6.76 295.45 6.76C304.14 6.76 304.14 1 312.83 1C321.52 1 321.52 6.76 330.21 6.76C338.9 6.76 338.9 1 347.59 1C356.28 1 356.28 6.76 364.97 6.76C373.66 6.76 373.66 1 382.35 1C391.04 1 391.04 6.76 399.73 6.76C408.42 6.76 408.42 1 417.11 1C425.8 1 425.8 6.76 434.49 6.76C443.18 6.76 443.18 1 451.88 1C460.58 1 460.57 6.76 469.27 6.76C477.97 6.76 477.96 1 486.66 1C495.36 1 495.35 6.76 504.05 6.76" stroke="#231F20" stroke-width="2" stroke-miterlimit="10"/>
</g>
</mask>
<g mask="url(#mask0_1262_99)">
<rect x="-13" y="-14" width="408" height="36" fill="#231F20"/>
</g>
<defs>
<clipPath id="clip0_1262_99">
<rect width="504.05" height="7.76" fill="white"/>
</clipPath>
</defs>
</svg>
