<svg width="60" height="60" viewBox="0 0 60 60" fill="none" xmlns="http://www.w3.org/2000/svg">
<mask id="mask0_8959_1106" style="mask-type:alpha" maskUnits="userSpaceOnUse" x="0" y="0" width="60" height="60">
<rect width="60" height="60" fill="#D9D9D9"/>
</mask>
<g mask="url(#mask0_8959_1106)">
<path d="M18.5 37.4375L26.125 29.875L31.125 34.875L41.8125 24.1875V30.6875H43.1875V21.8125H34.3125V23.1875H40.8125L31.125 32.875L26.125 27.875L17.5625 36.5L18.5 37.4375ZM14.125 49.25C13.1762 49.25 12.3765 48.9248 11.7256 48.2744C11.0752 47.6235 10.75 46.8237 10.75 45.875V14.125C10.75 13.1758 11.0752 12.376 11.7256 11.7256C12.3765 11.0752 13.1762 10.75 14.125 10.75H45.875C46.8242 10.75 47.624 11.0752 48.2744 11.7256C48.9248 12.376 49.25 13.1758 49.25 14.125V45.875C49.25 46.8237 48.9248 47.6235 48.2744 48.2744C47.624 48.9248 46.8242 49.25 45.875 49.25H14.125ZM14.125 47.875H45.875C46.375 47.875 46.8333 47.6667 47.25 47.25C47.6667 46.8333 47.875 46.375 47.875 45.875V14.125C47.875 13.625 47.6667 13.1667 47.25 12.75C46.8333 12.3333 46.375 12.125 45.875 12.125H14.125C13.625 12.125 13.1667 12.3333 12.75 12.75C12.3333 13.1667 12.125 13.625 12.125 14.125V45.875C12.125 46.375 12.3333 46.8333 12.75 47.25C13.1667 47.6667 13.625 47.875 14.125 47.875Z" fill="#1C1B1F"/>
</g>
</svg>
