<svg width="60" height="60" viewBox="0 0 60 60" fill="none" xmlns="http://www.w3.org/2000/svg">
<mask id="mask0_8959_1118" style="mask-type:alpha" maskUnits="userSpaceOnUse" x="0" y="0" width="60" height="60">
<rect width="60" height="60" fill="#D9D9D9"/>
</mask>
<g mask="url(#mask0_8959_1118)">
<path d="M16.8125 45.375C18.6458 45.375 20.2188 44.7319 21.5312 43.4456C22.8438 42.1594 23.5 40.5942 23.5 38.75C23.5 37.5129 23.1563 36.3183 22.4688 35.1663C21.7812 34.0138 20.8542 33.1875 19.6875 32.6875L19.25 32.4375V17.0625C19.25 16.4167 19.0177 15.849 18.5531 15.3594C18.0885 14.8698 17.4979 14.625 16.7812 14.625C16.1562 14.625 15.599 14.8698 15.1094 15.3594C14.6198 15.849 14.375 16.4167 14.375 17.0625V32.4375L13.9375 32.6875C12.7292 33.2096 11.7917 34.0329 11.125 35.1575C10.4583 36.2825 10.125 37.481 10.125 38.7531C10.125 40.6131 10.7785 42.1819 12.0856 43.4594C13.3927 44.7365 14.9683 45.375 16.8125 45.375ZM16.7812 46.75C14.5521 46.75 12.6562 45.9669 11.0938 44.4006C9.53125 42.8344 8.75 40.9333 8.75 38.6975C8.75 37.1358 9.13542 35.7283 9.90625 34.475C10.6771 33.2217 11.7083 32.23 13 31.5V17.0625C13 15.995 13.3787 15.0927 14.1362 14.3556C14.8942 13.6185 15.79 13.25 16.8237 13.25C17.9412 13.25 18.8542 13.6185 19.5625 14.3556C20.2708 15.0927 20.625 15.995 20.625 17.0625V31.5C21.875 32.23 22.8958 33.2354 23.6875 34.5163C24.4792 35.7971 24.875 37.2117 24.875 38.76C24.875 40.955 24.0808 42.8354 22.4925 44.4012C20.9038 45.9671 19 46.75 16.7812 46.75ZM32.375 36.875C30.7083 35.8333 29.2292 34.3958 27.9375 32.5625C26.6458 30.7292 26 28.5 26 25.875C26 22.3679 27.2267 19.3871 29.68 16.9325C32.1333 14.4775 35.1125 13.25 38.6175 13.25C42.1225 13.25 45.1042 14.4775 47.5625 16.9325C50.0208 19.3871 51.25 22.3679 51.25 25.875C51.25 28.5 50.6042 30.7292 49.3125 32.5625C48.0208 34.3958 46.5417 35.8333 44.875 36.875H32.375ZM32.75 35.5H44.625C46.125 34.4583 47.375 33.1042 48.375 31.4375C49.375 29.7708 49.875 27.9167 49.875 25.875C49.875 22.75 48.7779 20.0938 46.5838 17.9062C44.3896 15.7188 41.7333 14.625 38.615 14.625C35.4863 14.625 32.8308 15.7185 30.6488 17.9056C28.4663 20.0923 27.375 22.7488 27.375 25.875C27.375 27.9583 27.8958 29.8333 28.9375 31.5C29.9792 33.1667 31.25 34.5 32.75 35.5ZM38.625 46.75C37.8333 46.75 37.1562 46.4792 36.5938 45.9375C36.0312 45.3958 35.7292 44.75 35.6875 44H41.5625C41.5208 44.75 41.2188 45.3958 40.6562 45.9375C40.0938 46.4792 39.4167 46.75 38.625 46.75ZM33.1875 41.125V39.75H44.0625V41.125H33.1875Z" fill="#1C1B1F"/>
</g>
</svg>
