<svg width="60" height="60" viewBox="0 0 60 60" fill="none" xmlns="http://www.w3.org/2000/svg">
<mask id="mask0_8959_1112" style="mask-type:alpha" maskUnits="userSpaceOnUse" x="0" y="0" width="60" height="60">
<rect width="60" height="60" fill="#D9D9D9"/>
</mask>
<g mask="url(#mask0_8959_1112)">
<path d="M18.0625 35.875V33.25H11.625V31.875H24.5V23.1875H13.1875C12.7937 23.1875 12.4348 23.03 12.1106 22.715C11.7869 22.3996 11.625 22.0154 11.625 21.5625V13.25C11.625 12.7967 11.7719 12.4229 12.0656 12.1287C12.3594 11.8346 12.7333 11.6875 13.1875 11.6875H18.0625V9.125H19.4375V11.6875H25.875V13.0625H13V21.8125H24.3125C24.7479 21.8125 25.1171 21.9594 25.42 22.2531C25.7233 22.5469 25.875 22.9208 25.875 23.375V31.6875C25.875 32.1417 25.7279 32.5156 25.4338 32.8094C25.1396 33.1031 24.7658 33.25 24.3125 33.25H19.4375V35.875H18.0625ZM34.875 50.25L26.5 41.875L27.5 40.875L34.875 48.25L49.375 33.75L50.375 34.75L34.875 50.25Z" fill="#1C1B1F"/>
</g>
</svg>
