<svg width="60" height="60" viewBox="0 0 60 60" fill="none" xmlns="http://www.w3.org/2000/svg">
<mask id="mask0_3861_233" style="mask-type:alpha" maskUnits="userSpaceOnUse" x="0" y="0" width="60" height="60">
<rect width="60" height="60" fill="#D9D9D9"/>
</mask>
<g mask="url(#mask0_3861_233)">
<path d="M50.75 51.7501L41.5625 42.5626V50.6876H40.1875V40.1876H50.6875V41.5626H42.5L51.6875 50.7501L50.75 51.7501ZM30 51.7501C26.9912 51.7501 24.1638 51.1778 21.5175 50.0332C18.8713 48.8887 16.5694 47.3353 14.6119 45.3731C12.6544 43.411 11.1047 41.117 9.96281 38.491C8.82094 35.865 8.25 33.0592 8.25 30.0735C8.25 27.004 8.82065 24.157 9.96194 21.5324C11.1033 18.9077 12.6522 16.6092 14.6087 14.6369C16.5652 12.6645 18.866 11.107 21.5109 9.96425C24.1558 8.8215 26.9819 8.25012 29.9891 8.25012C32.9964 8.25012 35.8241 8.82106 38.4724 9.96294C41.1207 11.1048 43.4243 12.6612 45.3833 14.632C47.3423 16.6029 48.8931 18.8996 50.0359 21.5222C51.1786 24.1449 51.75 26.9917 51.75 30.0626C51.75 30.6876 51.7292 31.323 51.6875 31.9689C51.6458 32.6147 51.5625 33.271 51.4375 33.9376H49.9375C50.1042 33.2848 50.2188 32.6321 50.2812 31.9793C50.3438 31.3265 50.375 30.6814 50.375 30.0439C50.375 29.0036 50.2928 27.9425 50.1284 26.8606C49.9641 25.7786 49.7099 24.721 49.3661 23.6876H38.375C38.5833 24.7293 38.7292 25.7796 38.8125 26.8387C38.8958 27.8977 38.9375 28.9567 38.9375 30.0157C38.9375 30.672 38.9271 31.3265 38.9062 31.9793C38.8854 32.6321 38.8542 33.2848 38.8125 33.9376H37.375C37.4375 33.271 37.4844 32.6192 37.5156 31.9822C37.5469 31.3454 37.5625 30.7085 37.5625 30.0716C37.5625 29.0006 37.5208 27.9297 37.4375 26.8587C37.3542 25.7878 37.2145 24.7308 37.0186 23.6876H23.0265C22.8422 24.7293 22.6979 25.7814 22.5938 26.8439C22.4896 27.9064 22.4375 28.9689 22.4375 30.0314C22.4375 31.0939 22.4896 32.146 22.5938 33.1876C22.6979 34.2293 22.8336 35.271 23.0009 36.3126H34.6875V37.6876H23.3125C23.9942 40.0595 24.8417 42.3504 25.855 44.5603C26.8683 46.7702 28.25 48.7501 30 50.5001C30.6805 50.5001 31.3403 50.4689 31.9792 50.4064C32.6181 50.3439 33.2708 50.2501 33.9375 50.1251V51.3751C33.2708 51.5001 32.6181 51.5939 31.9792 51.6564C31.3403 51.7189 30.6805 51.7501 30 51.7501ZM10.6113 36.3126H21.625C21.4375 35.271 21.2969 34.2293 21.2031 33.1876C21.1094 32.146 21.0625 31.1043 21.0625 30.0626C21.0625 28.9897 21.1042 27.9203 21.1875 26.8543C21.2708 25.7883 21.4167 24.7327 21.625 23.6876H10.6318C10.2879 24.721 10.0342 25.7768 9.8705 26.8553C9.70683 27.9338 9.625 29.0123 9.625 30.0907C9.625 31.1137 9.70198 32.1494 9.85594 33.1981C10.0099 34.2466 10.2617 35.2848 10.6113 36.3126ZM11 22.3126H21.8199C22.3983 19.9376 23.1875 17.6564 24.1875 15.4689C25.1875 13.2814 26.5208 11.2918 28.1875 9.50012C24.3542 9.95846 20.9271 11.3335 17.9062 13.6251C14.8854 15.9168 12.5833 18.8126 11 22.3126ZM28.125 50.5001C26.625 48.6251 25.3542 46.6043 24.3125 44.4376C23.2708 42.271 22.4583 40.021 21.875 37.6876H11C12.5417 41.1876 14.8333 44.0835 17.875 46.3751C20.9167 48.6668 24.3333 50.0418 28.125 50.5001ZM23.3125 22.3126H36.6875C36.1042 19.9376 35.2536 17.6682 34.1358 15.5045C33.0179 13.3407 31.6393 11.3392 30 9.50012C28.3333 11.2918 26.9479 13.2814 25.8438 15.4689C24.7396 17.6564 23.8958 19.9376 23.3125 22.3126ZM38.1746 22.3126H49C47.4167 18.8126 45.1114 15.9047 42.0841 13.5887C39.0569 11.2728 35.6538 9.90991 31.875 9.50012C33.375 11.3751 34.6155 13.4016 35.5966 15.5794C36.5776 17.7573 37.437 20.0017 38.1746 22.3126Z" fill="#1C1B1F"/>
</g>
</svg>
