<svg width="60" height="60" viewBox="0 0 60 60" fill="none" xmlns="http://www.w3.org/2000/svg">
<mask id="mask0_3861_238" style="mask-type:alpha" maskUnits="userSpaceOnUse" x="0" y="0" width="60" height="60">
<rect width="60" height="60" fill="#D9D9D9"/>
</mask>
<g mask="url(#mask0_3861_238)">
<path d="M7.625 45.5V42.5625C7.625 41.4792 7.90625 40.5729 8.46875 39.8438C9.03125 39.1146 9.83219 38.519 10.8716 38.0571C13.0405 37.1024 15.0833 36.3333 17 35.75C18.9167 35.1667 21.3854 34.875 24.4062 34.875C27.4271 34.875 29.8854 35.1667 31.7812 35.75C33.6771 36.3333 35.7303 37.1024 37.9409 38.0571C38.9386 38.519 39.7188 39.1146 40.2812 39.8438C40.8438 40.5729 41.125 41.4792 41.125 42.5625V45.5H7.625ZM45.75 45.5V42.75C45.75 41.1667 45.4699 39.792 44.9096 38.6261C44.3493 37.4602 43.6294 36.4807 42.75 35.6875C43.9167 35.9792 45.0625 36.3229 46.1875 36.7188C47.3125 37.1146 48.355 37.5422 49.315 38.0015C50.1883 38.4588 50.9167 39.1075 51.5 39.9475C52.0833 40.7875 52.375 41.7217 52.375 42.75V45.5H45.75ZM24.4062 28C22.5292 28 20.9609 27.3703 19.7016 26.1109C18.4422 24.8516 17.8125 23.2833 17.8125 21.4062C17.8125 19.5292 18.4422 17.9714 19.7016 16.7328C20.9609 15.4943 22.5292 14.875 24.4062 14.875C26.2833 14.875 27.8411 15.4943 29.0797 16.7328C30.3182 17.9714 30.9375 19.5292 30.9375 21.4062C30.9375 23.2833 30.3182 24.8516 29.0797 26.1109C27.8411 27.3703 26.2833 28 24.4062 28ZM39.75 21.4062C39.75 23.2833 39.1307 24.8516 37.8922 26.1109C36.6536 27.3703 35.0884 28 33.1964 28H33.375C34.0967 27.1349 34.6417 26.1452 35.0101 25.0309C35.3784 23.9167 35.5625 22.7163 35.5625 21.4297C35.5625 20.1432 35.3542 18.9688 34.9375 17.9063C34.5208 16.8438 34 15.8125 33.375 14.8125C33.3333 14.8542 33.3021 14.875 33.2812 14.875H33.1875C35.0854 14.875 36.6536 15.4943 37.8922 16.7328C39.1307 17.9714 39.75 19.5292 39.75 21.4062ZM9 44.125H39.75V42.5625C39.75 41.8958 39.5729 41.3021 39.2188 40.7812C38.8646 40.2604 38.2292 39.75 37.3125 39.25C35.3125 38.2083 33.3542 37.4479 31.4375 36.9688C29.5208 36.4896 27.1771 36.25 24.4062 36.25C21.6354 36.25 19.2917 36.4896 17.375 36.9688C15.4583 37.4479 13.5 38.2083 11.5 39.25C10.5833 39.75 9.9375 40.2604 9.5625 40.7812C9.1875 41.3021 9 41.8958 9 42.5625V44.125ZM24.375 26.625C25.8333 26.625 27.0625 26.125 28.0625 25.125C29.0625 24.125 29.5625 22.8958 29.5625 21.4375C29.5625 19.9792 29.0625 18.75 28.0625 17.75C27.0625 16.75 25.8333 16.25 24.375 16.25C22.9167 16.25 21.6875 16.75 20.6875 17.75C19.6875 18.75 19.1875 19.9792 19.1875 21.4375C19.1875 22.8958 19.6875 24.125 20.6875 25.125C21.6875 26.125 22.9167 26.625 24.375 26.625Z" fill="#1C1B1F"/>
</g>
</svg>
