<svg width="60" height="60" viewBox="0 0 60 60" fill="none" xmlns="http://www.w3.org/2000/svg">
<mask id="mask0_3861_243" style="mask-type:alpha" maskUnits="userSpaceOnUse" x="0" y="0" width="60" height="60">
<rect width="60" height="60" fill="#D9D9D9"/>
</mask>
<g mask="url(#mask0_3861_243)">
<path d="M29.3125 54.25V42.0625L25.125 46.3125L24.125 45.3125L30 39.375L35.875 45.3125L34.9375 46.3125L30.6875 42.0625V54.25H29.3125ZM14.6875 35.875L13.6875 34.875L17.9375 30.6875H5.75V29.3125H17.9375L13.6875 25.0625L14.6875 24.125L20.625 30L14.6875 35.875ZM45.3125 35.875L39.4375 30L45.3125 24.125L46.3125 25.0625L42.0625 29.3125H54.25V30.6875H42.0625L46.3125 34.875L45.3125 35.875ZM30 31.875C29.5 31.875 29.0625 31.6875 28.6875 31.3125C28.3125 30.9375 28.125 30.5 28.125 30C28.125 29.5 28.3125 29.0521 28.6875 28.6562C29.0625 28.2604 29.5 28.0625 30 28.0625C30.5417 28.0625 31 28.25 31.375 28.625C31.75 29 31.9375 29.4583 31.9375 30C31.9375 30.5 31.7396 30.9375 31.3438 31.3125C30.9479 31.6875 30.5 31.875 30 31.875ZM30 20.5625L24.125 14.6875L25.125 13.6875L29.3125 17.9375V5.75H30.6875V17.9375L34.9375 13.6875L35.875 14.6875L30 20.5625Z" fill="#1C1B1F"/>
</g>
</svg>
