<svg xmlns="http://www.w3.org/2000/svg" viewBox="0 0 247 247.2"><g fill="#e0ccbf"><path d="M117.9 133.5c-4.2 9-10 16.1-17.6 21.1a50.7 50.7 0 01-26 8.3c-9.8.5-20.2-1.4-31.2-5.8q-19.2-7.5-30-21A58.5 58.5 0 01.4 105.7C-.9 94.4.9 82.5 5.8 70.2a88.5 88.5 0 014.6-9.8 68.2 68.2 0 00-2 25.2A58 58 0 0021.1 116c7.2 9 17.2 16 29.9 21 11.1 4.4 21.5 6.3 31.3 5.8a52 52 0 0026-8.3c7.6-5 17.6-21.2 17.6-21.2l-8 20.2z"/><path d="M244.1 157.5c3.2-9.5 3.8-18.6 1.7-27.4a51.6 51.6 0 00-13.2-23.9c-6.8-7.2-15.7-12.9-26.7-17.3-12.8-5-24.9-6.8-36.2-5.2a58.6 58.6 0 00-30.1 13.4c-8.8 7.4-15.6 17.3-20.5 29.6-1.3 3.5-2.4 6.9-3.3 10.3a66 66 0 0115.8-19.7 58.3 58.3 0 0130.1-13.5c11.4-1.6 23.4.2 36.2 5.3 11 4.3 19.9 10.1 26.7 17.2s11.2 15 13.2 23.9-1.6 27.4-1.6 27.4l8-20.1z"/><path d="M110.3 118.1c-9.1-4.2-16.2-10-21.2-17.6s-7.7-16.2-8.3-26 1.4-20.2 5.8-31.2q7.5-19.2 21-30A58.8 58.8 0 01138 .6c11.3-1.3 23.2.5 35.6 5.4a86.9 86.9 0 019.7 4.6 70.2 70.2 0 00-25.2-2 58 58 0 00-30.4 12.7c-8.9 7.2-15.9 17.2-21 29.9-4.4 11.1-6.3 21.5-5.8 31.3a52.1 52.1 0 008.4 26c4.9 7.6 21.1 17.6 21.1 17.6l-20.1-8z"/><path d="M86.2 244.4c9.5 3.1 18.7 3.7 27.5 1.6a52.1 52.1 0 0023.9-13.2c7.1-6.8 12.8-15.7 17.2-26.7 5.1-12.8 6.8-24.9 5.2-36.2a58.6 58.6 0 00-13.4-30.1c-7.4-8.7-17.2-15.6-29.6-20.5-3.5-1.3-6.9-2.4-10.3-3.3a67.7 67.7 0 0119.8 15.8 58.9 58.9 0 0113.4 30.1c1.6 11.4-.2 23.4-5.2 36.2-4.4 11-10.1 19.9-17.3 26.7s-15 11.2-23.9 13.2-27.4-1.6-27.4-1.6l20.1 8z"/><path d="M111 127.5a50.2 50.2 0 01-27.4 2.7 51.1 51.1 0 01-24.4-12.3c-7.4-6.5-13.4-15.1-18.2-26-5.6-12.5-7.8-24.5-6.7-35.9a59.3 59.3 0 0112.3-30.7c7-9 16.6-16.2 28.7-21.5A70.3 70.3 0 0185.5 0a67.2 67.2 0 00-19.1 16.6 58.9 58.9 0 00-12.3 30.6c-1.1 11.4 1.1 23.4 6.7 36C65.6 94 71.6 102.7 79 109.1a52.2 52.2 0 0024.4 12.4c8.9 1.7 27.4-2.8 27.4-2.8l-19.8 8.8z"/><path d="M184.2 233.1c8.9-4.6 15.7-10.7 20.4-18.4a52.2 52.2 0 007.3-26.4c.1-9.8-2.2-20.1-7-31-5.5-12.5-12.9-22.2-22.1-29a58.6 58.6 0 00-30.9-11.6c-11.4-.8-23.2 1.4-35.4 6.8a96.6 96.6 0 00-9.6 5 69.1 69.1 0 0125.2-3A58.7 58.7 0 01163 137c9.2 6.8 16.6 16.5 22.1 29.1 4.8 10.8 7.1 21.2 7 31a51.6 51.6 0 01-7.3 26.3c-4.7 7.8-20.4 18.4-20.4 18.4l19.8-8.7z"/><path d="M118.7 118.9a49.6 49.6 0 01-4.9-27.1 52.1 52.1 0 0110.3-25.3c5.9-7.9 14-14.6 24.5-20.3 12-6.5 23.8-9.7 35.3-9.5a59.1 59.1 0 0131.5 9.8c9.5 6.3 17.5 15.2 23.8 26.9a95.3 95.3 0 014.6 9.8 69 69 0 00-18.1-17.7 57.6 57.6 0 00-31.5-9.7c-11.5-.3-23.7 2-35.3 9.5-10 6.4-18.6 12.4-24.4 20.2a51.3 51.3 0 00-10.4 25.3c-1 9 5 27.1 5 27.1l-10.4-19z"/><path d="M10.6 184.4c4.6 8.9 10.7 15.7 18.5 20.4a51.6 51.6 0 0026.3 7.3c9.8.1 20.1-2.2 31-7 12.5-5.5 22.2-12.9 29.1-22.1a59.4 59.4 0 0011.5-30.9c.8-11.4-1.4-23.2-6.8-35.3a78.6 78.6 0 00-5-9.6 68.4 68.4 0 013 25.1 57.9 57.9 0 01-11.5 30.9c-6.8 9.2-16.5 16.6-29.1 22.1-10.8 4.8-21.1 7.1-31 7a51.9 51.9 0 01-26.3-7.3c-7.7-4.7-18.4-20.4-18.4-20.4l8.7 19.8z"/></g></svg>