<svg width="16" height="16" viewBox="0 0 16 16" fill="none" xmlns="http://www.w3.org/2000/svg">
<path fill-rule="evenodd" clip-rule="evenodd" d="M8 14.5C11.5899 14.5 14.5 11.5899 14.5 8C14.5 4.41015 11.5899 1.5 8 1.5C4.41015 1.5 1.5 4.41015 1.5 8C1.5 11.5899 4.41015 14.5 8 14.5ZM8 16C12.4183 16 16 12.4183 16 8C16 3.58172 12.4183 0 8 0C3.58172 0 0 3.58172 0 8C0 12.4183 3.58172 16 8 16ZM3.96984 7.96955C4.26276 7.67669 4.73764 7.67672 5.03052 7.96963L6.50003 9.4393L10.9697 4.96968C11.2626 4.67679 11.7375 4.67679 12.0304 4.96967C12.3233 5.26256 12.3233 5.73743 12.0304 6.03032L7.03034 11.0303C7.03033 11.0303 7.03031 11.0303 7.0303 11.0304C6.7374 11.3232 6.26255 11.3232 5.96967 11.0303C5.96965 11.0303 5.96964 11.0303 5.96962 11.0303L3.96977 9.0302C3.67689 8.73729 3.67693 8.26242 3.96984 7.96955Z" fill="#FAF5EE"/>
</svg>
