<svg width="100" height="100" viewBox="0 0 100 100" fill="none" xmlns="http://www.w3.org/2000/svg">
<g clip-path="url(#clip0_130_3737)">
<path fill-rule="evenodd" clip-rule="evenodd" d="M12.5 2C11.6716 2 11 2.67157 11 3.5V97.42C11 98.2484 11.6716 98.92 12.5 98.92H87.25C88.0784 98.92 88.75 98.2484 88.75 97.42V14.66C88.75 14.6068 88.7472 14.5539 88.7416 14.5015C88.7132 14.2307 88.6126 13.9813 88.4596 13.7729C88.4057 13.6994 88.3448 13.6305 88.2775 13.5672L76.4075 2.40716C76.3716 2.37341 76.3342 2.34159 76.2955 2.31176C76.0451 2.11851 75.7318 2.00266 75.3917 2.00005L75.38 2H75.3799H12.5ZM73.8799 5H14V95.92H85.75V16.16H75.3799C74.5515 16.16 73.8799 15.4884 73.8799 14.66V5ZM83.4647 13.16L76.8799 6.96903V13.16H83.4647ZM43.5221 22.3139C44.2655 22.6794 44.5718 23.5784 44.2063 24.3218L34.4363 44.1918C34.1902 44.6923 33.6868 45.0149 33.1293 45.0295C32.5718 45.044 32.0523 44.748 31.7805 44.2611L26.4105 34.6411C26.0067 33.9177 26.2657 33.004 26.9891 32.6002C27.7125 32.1964 28.6262 32.4555 29.03 33.1789L33.006 40.3017L41.5141 22.9981C41.8797 22.2547 42.7787 21.9484 43.5221 22.3139ZM44.2064 55.1316C44.5718 54.3881 44.2653 53.4891 43.5218 53.1238C42.7783 52.7584 41.8794 53.0649 41.514 53.8084L33.0057 71.1211L29.03 63.9988C28.6262 63.2755 27.7125 63.0164 26.9891 63.4202C26.2657 63.824 26.0067 64.7377 26.4105 65.4611L31.7805 75.0811C32.0523 75.5681 32.5719 75.8641 33.1295 75.8495C33.687 75.8349 34.1904 75.5121 34.4364 75.0116L44.2064 55.1316ZM55.75 29.48C55.75 28.6516 56.4216 27.98 57.25 27.98H75.38C76.2084 27.98 76.88 28.6516 76.88 29.48C76.88 30.3084 76.2084 30.98 75.38 30.98H57.25C56.4216 30.98 55.75 30.3084 55.75 29.48ZM57.25 35.44C56.4216 35.44 55.75 36.1116 55.75 36.94C55.75 37.7684 56.4216 38.44 57.25 38.44H75.38C76.2084 38.44 76.88 37.7684 76.88 36.94C76.88 36.1116 76.2084 35.44 75.38 35.44H57.25ZM55.75 60.68C55.75 59.8516 56.4216 59.18 57.25 59.18H75.38C76.2084 59.18 76.88 59.8516 76.88 60.68C76.88 61.5084 76.2084 62.18 75.38 62.18H57.25C56.4216 62.18 55.75 61.5084 55.75 60.68ZM57.25 66.64C56.4216 66.64 55.75 67.3116 55.75 68.14C55.75 68.9684 56.4216 69.64 57.25 69.64H75.38C76.2084 69.64 76.88 68.9684 76.88 68.14C76.88 67.3116 76.2084 66.64 75.38 66.64H57.25Z" fill="#221F1F"/>
</g>
<defs>
<clipPath id="clip0_130_3737">
<rect width="77.75" height="96.92" fill="white" transform="translate(11 2)"/>
</clipPath>
</defs>
</svg>
