<svg width="37" height="30" viewBox="0 0 37 30" fill="none" xmlns="http://www.w3.org/2000/svg">
<g clip-path="url(#clip0_144_656)">
<path fill-rule="evenodd" clip-rule="evenodd" d="M19.5 1.96545C19.5 1.41317 19.0523 0.965454 18.5 0.965454C17.9477 0.965454 17.5 1.41317 17.5 1.96545V4.86126C17.5 5.41354 17.9477 5.86126 18.5 5.86126C19.0523 5.86126 19.5 5.41354 19.5 4.86126V1.96545ZM5.04785 6.61276C5.34882 6.34191 5.7834 6.27928 6.1486 6.45412L17.7823 12.0238C18.1429 12.1964 18.366 12.5672 18.3496 12.9666C18.3333 13.366 18.0807 13.7174 17.7072 13.86L9.59242 16.9585L4.89163 27.5187L7.06717 28.5613C7.56521 28.8 7.77547 29.3972 7.53679 29.8953C7.2981 30.3933 6.70087 30.6036 6.20282 30.3649L0.085636 27.4333C-0.412409 27.1946 -0.622664 26.5974 -0.383981 26.0993C-0.145298 25.6013 0.451938 25.391 0.949983 25.6297L3.08734 26.654L7.7718 16.1305L4.77445 7.69075C4.63894 7.3092 4.74689 6.8836 5.04785 6.61276ZM7.46979 9.30403L9.44758 14.8729L14.8184 12.8222L7.46979 9.30403ZM31.9523 6.61276C32.2532 6.8836 32.3612 7.3092 32.2257 7.69075L29.2282 16.1307L33.9151 26.6528L36.05 25.6297C36.548 25.391 37.1453 25.6013 37.384 26.0993C37.6226 26.5974 37.4124 27.1946 36.9143 27.4333L33.8531 28.9003L33.8523 28.9008L30.7971 30.3649C30.2991 30.6036 29.7019 30.3933 29.4632 29.8953C29.2245 29.3972 29.4348 28.8 29.9328 28.5613L32.1109 27.5175L27.4075 16.9584L19.2929 13.86C18.9195 13.7174 18.6668 13.366 18.6505 12.9666C18.6341 12.5672 18.8573 12.1964 19.2178 12.0238L30.8515 6.45412C31.2167 6.27928 31.6513 6.34191 31.9523 6.61276ZM22.1818 12.8222L27.5525 14.8729L29.5303 9.30403L22.1818 12.8222ZM25.3085 2.51316C25.7058 2.89678 25.7169 3.52985 25.3332 3.92716L22.4127 6.95182C22.0291 7.34912 21.396 7.36021 20.9987 6.97659C20.6014 6.59297 20.5903 5.9599 20.974 5.56259L23.8945 2.53793C24.2781 2.14063 24.9112 2.12954 25.3085 2.51316ZM13.0928 2.49594C12.7096 2.09818 12.0765 2.08634 11.6788 2.46949C11.281 2.85265 11.2692 3.4857 11.6523 3.88346L14.5694 6.9117C14.9526 7.30946 15.5856 7.3213 15.9834 6.93814C16.3811 6.55499 16.393 5.92194 16.0098 5.52418L13.0928 2.49594Z" fill="#231F20"/>
</g>
<defs>
<clipPath id="clip0_144_656">
<rect width="37" height="30" fill="white"/>
</clipPath>
</defs>
</svg>
