<svg width="177" height="91" viewBox="0 0 177 91" fill="none" xmlns="http://www.w3.org/2000/svg">
<path fill-rule="evenodd" clip-rule="evenodd" d="M20.1636 57.8491H34.7944C46.4725 40.9023 66.1608 29.7706 88.4911 29.7706C110.821 29.7706 130.51 40.9023 142.188 57.8491H156.819C143.781 33.8024 118.081 17.438 88.4911 17.438C58.9009 17.438 33.2008 33.8024 20.1636 57.8491ZM17.6574 60.8491C17.6784 60.8495 17.6994 60.8495 17.7203 60.8491H35.5884C36.0884 60.8491 36.5555 60.5999 36.8341 60.1847C47.9126 43.6692 66.9017 32.7706 88.4911 32.7706C110.081 32.7706 129.07 43.6692 140.148 60.1847C140.427 60.5999 140.894 60.8491 141.394 60.8491H159.262C159.283 60.8495 159.304 60.8495 159.325 60.8491H175.137C175.637 60.8491 176.104 60.6001 176.383 60.1852C176.661 59.7702 176.715 59.2437 176.526 58.7811C162.463 24.4044 128.357 0.151123 88.4911 0.151123C48.6255 0.151123 14.5192 24.4044 0.456527 58.7811C0.26729 59.2437 0.320894 59.7702 0.599484 60.1852C0.878074 60.6001 1.34505 60.8491 1.84486 60.8491H17.6574ZM16.77 57.8491H4.10957C18.223 25.6762 50.6726 3.15112 88.4911 3.15112C126.31 3.15112 158.759 25.6762 172.873 57.8491H160.212C146.918 32.0803 119.793 14.438 88.4911 14.438C57.1895 14.438 30.0639 32.0803 16.77 57.8491ZM92.4945 50.7518C92.4945 49.9234 91.8229 49.2518 90.9945 49.2518C90.166 49.2518 89.4945 49.9234 89.4945 50.7518V54.8059C89.4945 55.6344 90.166 56.3059 90.9945 56.3059C91.8229 56.3059 92.4945 55.6344 92.4945 54.8059V50.7518ZM71.6041 57.1931C72.0514 56.783 72.7017 56.6827 73.2517 56.9392L89.9758 64.7367C90.5239 64.9923 90.865 65.5521 90.8407 66.1564C90.8164 66.7607 90.4316 67.2914 89.8647 67.5022L78.2247 71.8306L71.533 86.4706L74.5723 87.8891C75.323 88.2395 75.6475 89.1321 75.2972 89.8828C74.9468 90.6335 74.0542 90.958 73.3035 90.6076L64.5098 86.5034C63.7591 86.153 63.4345 85.2604 63.7849 84.5098C64.1353 83.7591 65.0279 83.4345 65.7785 83.7849L68.8145 85.2018L75.499 70.5774L71.2087 58.8126C71.0007 58.2425 71.1568 57.6032 71.6041 57.1931ZM75.2688 61.1897L78.011 68.7094L85.4577 65.9403L75.2688 61.1897ZM110.385 57.1931C110.832 57.6032 110.988 58.2425 110.78 58.8126L106.49 70.5772L113.178 85.2001L116.21 83.7849C116.961 83.4345 117.854 83.7591 118.204 84.5098C118.554 85.2604 118.23 86.153 117.479 86.5034L113.095 88.5495C113.086 88.554 113.076 88.5584 113.067 88.5628L113.06 88.566L108.685 90.6076C107.935 90.958 107.042 90.6335 106.692 89.8828C106.341 89.1321 106.666 88.2395 107.417 87.8891L110.46 86.4689L103.764 71.8307L92.1242 67.5022C91.5573 67.2914 91.1725 66.7607 91.1482 66.1564C91.124 65.5521 91.465 64.9923 92.0132 64.7367L108.737 56.9392C109.287 56.6827 109.938 56.783 110.385 57.1931ZM96.5312 65.9403L103.978 68.7094L106.72 61.1897L96.5312 65.9403ZM100.839 51.4605C101.428 52.0438 101.432 52.9935 100.848 53.5818L96.6501 57.8164C96.0668 58.4047 95.1171 58.4087 94.5288 57.8255C93.9405 57.2422 93.9364 56.2924 94.5197 55.7042L98.7181 51.4696C99.3014 50.8813 100.251 50.8773 100.839 51.4605ZM83.2523 51.4108C82.6697 50.8218 81.72 50.8167 81.131 51.3992C80.542 51.9818 80.5368 52.9315 81.1194 53.5205L85.3128 57.7601C85.8954 58.349 86.8451 58.3542 87.4341 57.7717C88.0231 57.1891 88.0283 56.2393 87.4457 55.6504L83.2523 51.4108Z" fill="#231F20"/>
</svg>
