<svg width="100" height="100" viewBox="0 0 100 100" fill="none" xmlns="http://www.w3.org/2000/svg">
<path fill-rule="evenodd" clip-rule="evenodd" d="M2.13 20.63H0.630005V22.13V32.51V34.01H2.13H62.91H64.41V32.51V22.13V20.63H62.91H2.13ZM3.63 31.01V23.63H61.41V31.01H3.63ZM90.21 28.76C91.41 29.66 92.08 30.88 92.23 32.4H94.64C94.58 31.01 94.17 29.77 93.4 28.68C92.63 27.59 91.59 26.73 90.28 26.11C89.1516 25.5674 87.8601 25.2621 86.45 25.1879V22.13H84.7V25.213C83.4351 25.3179 82.2701 25.6153 81.21 26.11C79.86 26.74 78.79 27.62 78 28.73C77.21 29.84 76.82 31.14 76.82 32.61C76.82 34.36 77.41 35.81 78.6 36.94C79.79 38.07 81.45 38.96 83.6 39.6L84.7 39.922V51.0797C83.7951 51.012 82.9599 50.8303 82.19 50.53C81.19 50.15 80.38 49.58 79.76 48.83C79.14 48.08 78.78 47.17 78.69 46.09H76.12C76.21 47.53 76.66 48.8 77.44 49.9C78.23 50.99 79.31 51.85 80.68 52.47C81.8421 52.9959 83.1842 53.2988 84.7 53.3786V56.36H86.45V53.3744C88.0414 53.2837 89.4334 52.9523 90.62 52.38C92.03 51.7 93.12 50.78 93.88 49.61C94.64 48.45 95.02 47.13 95.02 45.67C95.02 44.53 94.8 43.56 94.36 42.74C93.92 41.93 93.34 41.24 92.61 40.67C91.88 40.1 91.08 39.63 90.21 39.26C89.34 38.89 88.46 38.58 87.59 38.34L86.45 38.0126V27.437C87.9308 27.5463 89.1883 27.9873 90.21 28.76ZM84.7 27.4584V37.51C84.04 37.32 83.39 37.09 82.74 36.81C82.1 36.53 81.51 36.2 80.98 35.81C80.45 35.42 80.03 34.95 79.72 34.41C79.41 33.87 79.25 33.23 79.25 32.51C79.25 31.53 79.52 30.65 80.07 29.88C80.62 29.11 81.38 28.51 82.34 28.07C83.0401 27.7491 83.8307 27.5452 84.7 27.4584ZM86.45 40.4342V51.0732C87.4452 50.9914 88.3549 50.7737 89.17 50.42C90.23 49.96 91.07 49.32 91.68 48.49C92.29 47.67 92.6 46.71 92.6 45.61C92.6 44.68 92.36 43.91 91.88 43.28C91.4 42.65 90.73 42.12 89.87 41.7C89.01 41.27 88.01 40.89 86.88 40.56L86.45 40.4342ZM0.630005 43.2H2.13H51.96H53.46V44.7V55.08V56.58H51.96H2.13H0.630005V55.08V44.7V43.2ZM3.63 46.2V53.58H50.46V46.2H3.63ZM2.13 65.76H0.630005V67.26V77.64V79.14H2.13H98.14H99.64V77.64V67.26V65.76H98.14H2.13ZM3.63 76.14V68.76H96.64V76.14H3.63Z" fill="#221F1F"/>
</svg>
