<svg width="60" height="60" viewBox="0 0 60 60" fill="none" xmlns="http://www.w3.org/2000/svg">
<g clip-path="url(#clip0_1765_836)">
<path d="M38.6201 12.62H1.62012V20.62H38.6201V12.62Z" stroke="#231F20" stroke-width="1.25" stroke-miterlimit="10"/>
<path d="M32.6201 26.12H1.62012V34.12H32.6201V26.12Z" stroke="#231F20" stroke-width="1.25" stroke-miterlimit="10"/>
<path d="M58.6201 39.62H1.62012V47.62H58.6201V39.62Z" stroke="#231F20" stroke-width="1.25" stroke-miterlimit="10"/>
<path d="M54.4002 30.6C53.5802 31.3 52.4402 31.69 50.9802 31.75V33.73H49.8602V31.73C48.8402 31.64 47.9202 31.4 47.0902 31C46.2602 30.6 45.5602 30.11 44.9902 29.53L46.0002 28.47C47.1102 29.58 48.4002 30.21 49.8602 30.36V24.32C48.3002 23.77 47.1702 23.14 46.4602 22.43C45.7502 21.73 45.3902 20.81 45.3902 19.69C45.3902 18.48 45.7802 17.51 46.5502 16.78C47.3202 16.05 48.4302 15.65 49.8602 15.58V13.58H50.9802V15.6C52.4902 15.72 53.8302 16.22 55.0002 17.1L54.1502 18.25C53.2102 17.52 52.1502 17.09 50.9802 16.97V23.12L51.0202 23.14C52.1302 23.54 53.0102 23.95 53.6702 24.36C54.3302 24.77 54.8202 25.25 55.1402 25.81C55.4602 26.36 55.6202 27.05 55.6202 27.88C55.6202 28.99 55.2102 29.89 54.4002 30.6ZM47.6702 21.43C48.1202 21.86 48.8502 22.28 49.8502 22.7V16.97C47.9502 17.06 47.0002 17.96 47.0002 19.66C47.0002 20.41 47.2202 21 47.6702 21.42V21.43ZM53.2302 29.67C53.7502 29.23 54.0002 28.63 54.0002 27.89C54.0002 27.37 53.9102 26.93 53.7402 26.59C53.5702 26.25 53.2702 25.94 52.8402 25.66C52.4102 25.38 51.7902 25.08 50.9602 24.75V30.41C51.9502 30.37 52.7002 30.12 53.2202 29.68L53.2302 29.67Z" fill="black"/>
</g>
<defs>
<clipPath id="clip0_1765_836">
<rect width="58.25" height="36.25" fill="white" transform="translate(1 12)"/>
</clipPath>
</defs>
</svg>
