<svg width="100" height="100" viewBox="0 0 100 100" fill="none" xmlns="http://www.w3.org/2000/svg">
<g clip-path="url(#clip0_130_3781)">
<path fill-rule="evenodd" clip-rule="evenodd" d="M12.8896 14.3898C12.8896 13.5613 13.5612 12.8898 14.3896 12.8898H85.6101C86.4386 12.8898 87.1101 13.5613 87.1101 14.3898V34.8655C87.1101 35.694 86.4386 36.3655 85.6101 36.3655C84.7817 36.3655 84.1101 35.694 84.1101 34.8655V15.8898H53.4499C53.4744 15.9973 53.4873 16.1093 53.4873 16.2242V34.254C53.4873 35.0825 52.8157 35.754 51.9873 35.754C51.1589 35.754 50.4873 35.0825 50.4873 34.254V16.2242C50.4873 16.1093 50.5002 15.9973 50.5247 15.8898H15.8896V48.4954H68.7941C69.6225 48.4954 70.2941 49.1669 70.2941 49.9954C70.2941 50.8238 69.6225 51.4954 68.7941 51.4954H15.8896V84.1103H84.1101V61.762C84.1101 60.9336 84.7817 60.262 85.6101 60.262C86.4386 60.262 87.1101 60.9336 87.1101 61.762V85.6103C87.1101 86.4387 86.4386 87.1103 85.6101 87.1103H14.3896C13.5612 87.1103 12.8896 86.4387 12.8896 85.6103V49.9954V14.3898ZM30.8166 27.0542C28.4828 27.0542 26.5908 28.9462 26.5908 31.28C26.5908 33.6138 28.4828 35.5058 30.8166 35.5058C33.1505 35.5058 35.0424 33.6138 35.0424 31.28C35.0424 28.9462 33.1505 27.0542 30.8166 27.0542ZM23.5908 31.28C23.5908 27.2893 26.8259 24.0542 30.8166 24.0542C34.8073 24.0542 38.0424 27.2893 38.0424 31.28C38.0424 35.2707 34.8073 38.5058 30.8166 38.5058C26.8259 38.5058 23.5908 35.2707 23.5908 31.28ZM26.9253 63.3195C26.0969 63.3195 25.4253 63.991 25.4253 64.8195V75.8263C25.4253 76.6548 26.0969 77.3263 26.9253 77.3263H55.0447C55.8732 77.3263 56.5447 76.6548 56.5447 75.8263V64.8195C56.5447 63.991 55.8732 63.3195 55.0447 63.3195H26.9253ZM28.4253 74.3263V66.3195H53.5447V74.3263H28.4253Z" fill="#221F1F"/>
</g>
<defs>
<clipPath id="clip0_130_3781">
<rect width="74" height="74" fill="white" transform="translate(13 13)"/>
</clipPath>
</defs>
</svg>
