<svg width="100" height="100" viewBox="0 0 100 100" fill="none" xmlns="http://www.w3.org/2000/svg">
<g clip-path="url(#clip0_130_3752)">
<path fill-rule="evenodd" clip-rule="evenodd" d="M12.5 18C11.6716 18 11 18.6716 11 19.5V80.1C11 80.9284 11.6716 81.6 12.5 81.6H87.25C88.0784 81.6 88.75 80.9284 88.75 80.1V19.5C88.75 18.6716 88.0784 18 87.25 18H77.62H59.21H58.95H40.54H40.5399H22.1299H12.5ZM69.6429 28.06C69.642 28.06 69.641 28.06 69.64 28.06L60.71 28.06V21H76.12V28.06H69.6429ZM71.14 31.06H77.62C78.4484 31.06 79.12 30.3884 79.12 29.56V21H85.75V78.6H14V21H20.6299V29.56C20.6299 30.3884 21.3015 31.06 22.1299 31.06H31.3198V39.62C31.3198 40.4484 31.9914 41.12 32.8198 41.12H51.2298C51.2299 41.12 51.2299 41.12 51.2299 41.12C51.2299 41.12 51.23 41.12 51.23 41.12H69.64C70.4684 41.12 71.14 40.4484 71.14 39.62V31.06ZM59.207 31.06C59.208 31.06 59.209 31.06 59.21 31.06L68.14 31.06V38.12H52.73V31.06L58.95 31.06C58.951 31.06 58.952 31.06 58.953 31.06H59.207ZM57.45 28.06L51.23 28.06H51.2298L42.04 28.06V21H57.45V28.06ZM34.3198 38.12V31.06L40.5399 31.06H40.54L49.7298 31.06V38.12H34.3198ZM39.0399 21V28.06L32.8198 28.06L32.8169 28.06H23.6299V21H39.0399Z" fill="#221F1F"/>
</g>
<defs>
<clipPath id="clip0_130_3752">
<rect width="77.75" height="63.6" fill="white" transform="translate(11 18)"/>
</clipPath>
</defs>
</svg>
