<svg width="117" height="100" viewBox="0 0 117 100" fill="none" xmlns="http://www.w3.org/2000/svg">
<g clip-path="url(#clip0_130_3693)">
<path fill-rule="evenodd" clip-rule="evenodd" d="M18 1.5C17.1716 1.5 16.5 2.17157 16.5 3V97C16.5 97.8284 17.1716 98.5 18 98.5H81C81.8284 98.5 82.5 97.8284 82.5 97V59.5C82.5 58.6716 81.8284 58 81 58C80.1716 58 79.5 58.6716 79.5 59.5V95.5H19.5V4.5H67.5V15.66C67.5 16.4884 68.1716 17.16 69 17.16H79.5V18C79.5 18.8284 80.1716 19.5 81 19.5C81.8284 19.5 82.5 18.8284 82.5 18V14.1695C82.5 13.8002 82.3638 13.4438 82.1173 13.1687L72.1132 1.99923C71.8287 1.68154 71.4223 1.5 70.9959 1.5H18ZM78.9778 14.16L70.5 4.69466V14.16H78.9778ZM85.739 16.25C86.1533 15.5326 87.0706 15.2867 87.7881 15.701L97.7647 21.461C98.4821 21.8752 98.7279 22.7926 98.3137 23.51L76.0687 62.0395C75.9306 62.2788 75.7365 62.4656 75.5124 62.5929L64.2663 70.6811C63.7873 71.0256 63.1508 71.0573 62.6399 70.762C62.1291 70.4668 61.8388 69.8994 61.8981 69.3124L63.2928 55.525C63.2934 55.2715 63.3582 55.0147 63.494 54.7795L85.739 16.25ZM74.2252 59.2326L66.8467 54.9726L87.5871 19.049L94.9657 23.309L74.2252 59.2326ZM66.0586 57.9922L65.218 66.3013L72.001 61.423L66.0586 57.9922ZM26.5 69.58C26.5 68.7516 27.1716 68.08 28 68.08H60C60.8284 68.08 61.5 68.7516 61.5 69.58C61.5 70.4084 60.8284 71.08 60 71.08H28C27.1716 71.08 26.5 70.4084 26.5 69.58ZM28.48 56.55C27.6516 56.55 26.98 57.2216 26.98 58.05C26.98 58.8784 27.6516 59.55 28.48 59.55H51.92C52.7484 59.55 53.42 58.8784 53.42 58.05C53.42 57.2216 52.7484 56.55 51.92 56.55H28.48ZM26.98 47.03C26.98 46.2016 27.6516 45.53 28.48 45.53H62.25C63.0784 45.53 63.75 46.2016 63.75 47.03C63.75 47.8585 63.0784 48.53 62.25 48.53H28.48C27.6516 48.53 26.98 47.8585 26.98 47.03ZM28.48 34.5C27.6516 34.5 26.98 35.1716 26.98 36C26.98 36.8284 27.6516 37.5 28.48 37.5H69.96C70.7884 37.5 71.46 36.8284 71.46 36C71.46 35.1716 70.7884 34.5 69.96 34.5H28.48Z" fill="#221F1F"/>
</g>
<defs>
<clipPath id="clip0_130_3693">
<rect width="100.03" height="96.92" fill="white" transform="translate(16 2)"/>
</clipPath>
</defs>
</svg>
