<svg width="60" height="60" viewBox="0 0 60 60" fill="none" xmlns="http://www.w3.org/2000/svg">
<path d="M8.96094 25.0202C10.7309 16.4502 17.4909 9.70019 26.0709 7.94019" stroke="#231F20" stroke-width="1.25" stroke-miterlimit="10"/>
<path d="M26.0895 51.0501C17.4795 49.3001 10.6895 42.5101 8.93945 33.9001" stroke="#231F20" stroke-width="1.25" stroke-miterlimit="10"/>
<path d="M52.0602 33.9102C50.3102 42.5202 43.5202 49.3102 34.9102 51.0602" stroke="#231F20" stroke-width="1.25" stroke-miterlimit="10"/>
<path d="M34.9199 7.94019C43.5299 9.69019 50.3199 16.4802 52.0699 25.0902" stroke="#231F20" stroke-width="1.25" stroke-miterlimit="10"/>
<path d="M30.5 12C32.9853 12 35 9.98528 35 7.5C35 5.01472 32.9853 3 30.5 3C28.0147 3 26 5.01472 26 7.5C26 9.98528 28.0147 12 30.5 12Z" stroke="#231F20" stroke-width="1.25" stroke-miterlimit="10"/>
<path d="M30.5 56C32.9853 56 35 53.9853 35 51.5C35 49.0147 32.9853 47 30.5 47C28.0147 47 26 49.0147 26 51.5C26 53.9853 28.0147 56 30.5 56Z" stroke="#231F20" stroke-width="1.25" stroke-miterlimit="10"/>
<path d="M52.5 34C54.9853 34 57 31.9853 57 29.5C57 27.0147 54.9853 25 52.5 25C50.0147 25 48 27.0147 48 29.5C48 31.9853 50.0147 34 52.5 34Z" stroke="#231F20" stroke-width="1.25" stroke-miterlimit="10"/>
<path d="M8.5 25C10.99 25 13 27.01 13 29.5C13 31.99 10.99 34 8.5 34C6.01 34 4 31.98 4 29.5C4 27.02 6.01 25 8.5 25Z" stroke="#231F20" stroke-width="1.25" stroke-miterlimit="10"/>
</svg>
