<svg width="61" height="60" viewBox="0 0 61 60" fill="none" xmlns="http://www.w3.org/2000/svg">
<path fill-rule="evenodd" clip-rule="evenodd" d="M21.7694 13.6118C12.843 13.6118 5.60547 20.8383 5.60547 29.7638C5.60547 38.6898 12.8375 45.9218 21.7634 45.9218C24.588 45.9218 27.2445 45.1975 29.5524 43.9266C25.0469 40.8344 22.0917 35.6472 22.0917 29.7698C22.0917 23.8894 25.0499 18.6999 29.5593 15.6083C27.2469 14.3364 24.5945 13.6118 21.7694 13.6118ZM30.7246 43.4984C30.7554 43.5133 30.7848 43.5313 30.8122 43.5525C33.268 45.0591 36.1574 45.9278 39.2497 45.9278C48.1735 45.9278 55.4077 38.6936 55.4077 29.7698C55.4077 20.846 48.1735 13.6118 39.2497 13.6118C36.1519 13.6118 33.2577 14.4836 30.7991 15.9951C30.7837 16.0059 30.7677 16.0157 30.7513 16.0246C26.1539 18.8732 23.0917 23.9639 23.0917 29.7698C23.0917 35.5645 26.142 40.6467 30.7246 43.4984ZM21.7634 46.9218C24.9542 46.9218 27.9456 46.0505 30.5038 44.5345C33.0648 46.0548 36.0553 46.9278 39.2497 46.9278C48.7258 46.9278 56.4077 39.2459 56.4077 29.7698C56.4077 20.2937 48.7258 12.6118 39.2497 12.6118C36.0585 12.6118 33.0709 13.483 30.5115 15.0005C27.9482 13.4839 24.9615 12.6118 21.7694 12.6118C12.2916 12.6118 4.60547 20.2851 4.60547 29.7638C4.60547 39.2421 12.2852 46.9218 21.7634 46.9218ZM42.3381 22.9646C43.094 23.5339 43.5198 24.3042 43.6155 25.2659L43.6059 25.2707H45.137C45.1035 24.3903 44.8451 23.6057 44.3571 22.9167C43.8691 22.2278 43.2088 21.6871 42.3811 21.29C41.6676 20.9477 40.8545 20.7547 39.9602 20.708V18.7734H38.855V20.7243C38.0518 20.7917 37.3142 20.9826 36.6446 21.2948C35.793 21.6919 35.1136 22.2469 34.616 22.9502C34.1184 23.6535 33.8697 24.4765 33.8697 25.4046C33.8697 26.5194 34.2428 27.4284 34.994 28.1461C35.7451 28.8638 36.7977 29.4235 38.1565 29.8302L38.855 30.0351V37.0836C38.2779 37.0402 37.7459 36.923 37.257 36.7341C36.6255 36.4901 36.1088 36.1313 35.7164 35.6576C35.3241 35.184 35.0993 34.6099 35.0418 33.9257H33.4199C33.4821 34.8395 33.7596 35.6433 34.2572 36.337C34.7548 37.0308 35.4389 37.5714 36.3049 37.9637C37.0445 38.2969 37.8945 38.4887 38.855 38.5389V40.4181H39.9602V38.5358C40.9637 38.4781 41.8443 38.2683 42.5964 37.9063C43.4911 37.4757 44.1801 36.8872 44.6585 36.1504C45.137 35.4136 45.3762 34.5811 45.3762 33.6578C45.3762 32.9353 45.2374 32.3181 44.9599 31.8014C44.6824 31.2847 44.314 30.8493 43.8547 30.4905C43.3954 30.1364 42.8883 29.8398 42.3381 29.6006C41.7879 29.3613 41.2329 29.17 40.6827 29.0169L39.9602 28.8088V22.1298C40.8981 22.1982 41.6887 22.4755 42.3381 22.9646ZM38.855 22.1432V28.4906C38.4388 28.371 38.0225 28.2274 37.6159 28.0504C37.2092 27.8734 36.836 27.6629 36.5011 27.4189C36.1662 27.1701 35.8982 26.8782 35.7021 26.5338C35.5059 26.1893 35.4055 25.7874 35.4055 25.3329C35.4055 24.7157 35.5825 24.1607 35.927 23.6727C36.2714 23.1895 36.7547 22.8067 37.3623 22.5292C37.8062 22.3265 38.3038 22.1978 38.855 22.1432ZM39.9602 30.3593V37.079C40.5875 37.0274 41.1608 36.8908 41.6778 36.6672C42.3524 36.3753 42.8787 35.9686 43.2663 35.4519C43.6538 34.9304 43.8452 34.3228 43.8452 33.629C43.8452 33.0406 43.6921 32.5526 43.3906 32.1554C43.0844 31.7583 42.6634 31.4234 42.118 31.1555C41.5726 30.8828 40.9458 30.6436 40.2281 30.4378L39.9602 30.3593Z" fill="#231F20"/>
</svg>
