<svg width="61" height="61" viewBox="0 0 61 61" fill="none" xmlns="http://www.w3.org/2000/svg">
<path fill-rule="evenodd" clip-rule="evenodd" d="M13.2188 29.4613C13.2188 19.7914 21.1042 11.9204 30.7961 11.9204C40.4881 11.9204 48.3735 19.7914 48.3735 29.4613C48.3735 29.5906 48.4226 29.7084 48.5031 29.7972C48.4226 29.8859 48.3735 30.0038 48.3735 30.133C48.3735 39.803 40.4881 47.674 30.7961 47.674C21.1042 47.674 13.2188 39.803 13.2188 30.133C13.2188 30.0038 13.1697 29.8859 13.0891 29.7972C13.1697 29.7084 13.2188 29.5906 13.2188 29.4613ZM49.3735 29.4613C49.3735 29.5906 49.3245 29.7084 49.2439 29.7972C49.3245 29.8859 49.3735 30.0038 49.3735 30.133C49.3735 40.3572 41.0385 48.674 30.7961 48.674C20.5538 48.674 12.2188 40.3572 12.2188 30.133C12.2188 30.0038 12.2678 29.8859 12.3484 29.7972C12.2678 29.7084 12.2188 29.5906 12.2188 29.4613C12.2188 19.2372 20.5538 10.9204 30.7961 10.9204C41.0385 10.9204 49.3735 19.2372 49.3735 29.4613ZM19.8145 29.4613C19.8145 23.4097 24.7287 18.5039 30.795 18.5039C36.8613 18.5039 41.7756 23.4097 41.7756 29.4613C41.7756 29.5905 41.8246 29.7083 41.9051 29.7971C41.8246 29.8858 41.7756 30.0036 41.7756 30.1328C41.7756 36.1844 36.8613 41.0902 30.795 41.0902C24.7287 41.0902 19.8145 36.1844 19.8145 30.1328C19.8145 30.0036 19.7654 29.8858 19.685 29.7971C19.7654 29.7083 19.8145 29.5905 19.8145 29.4613ZM18.9439 29.7971C18.8635 29.7083 18.8145 29.5905 18.8145 29.4613C18.8145 22.8555 24.1784 17.5039 30.795 17.5039C37.4117 17.5039 42.7756 22.8555 42.7756 29.4613C42.7756 29.5905 42.7266 29.7083 42.6461 29.7971C42.7266 29.8858 42.7756 30.0036 42.7756 30.1328C42.7756 36.7386 37.4117 42.0902 30.795 42.0902C24.1784 42.0902 18.8145 36.7386 18.8145 30.1328C18.8145 30.0036 18.8635 29.8858 18.9439 29.7971ZM25.4123 29.4613C25.4123 26.4971 27.8284 24.0874 30.7961 24.0874C33.7639 24.0874 36.1799 26.4971 36.1799 29.4613C36.1799 29.5906 36.1308 29.7084 36.0503 29.7972C36.1308 29.8859 36.1799 30.0038 36.1799 30.133C36.1799 33.0973 33.7639 35.507 30.7961 35.507C27.8284 35.507 25.4123 33.0973 25.4123 30.133C25.4123 30.0038 25.4614 29.8859 25.542 29.7972C25.4614 29.7084 25.4123 29.5906 25.4123 29.4613ZM26.2827 29.7972C26.3633 29.8859 26.4123 30.0038 26.4123 30.133C26.4123 32.5431 28.3787 34.507 30.7961 34.507C33.2135 34.507 35.1799 32.5431 35.1799 30.133C35.1799 30.0038 35.229 29.8859 35.3095 29.7972C35.229 29.7084 35.1799 29.5906 35.1799 29.4613C35.1799 27.0513 33.2135 25.0874 30.7961 25.0874C28.3787 25.0874 26.4123 27.0513 26.4123 29.4613C26.4123 29.5906 26.3633 29.7084 26.2827 29.7972Z" fill="#231F20"/>
</svg>
