<svg width="64" height="61" viewBox="0 0 64 61" fill="none" xmlns="http://www.w3.org/2000/svg">
<path fill-rule="evenodd" clip-rule="evenodd" d="M23.0185 9.74316C21.0117 9.74316 19.372 11.3312 19.3319 13.3187C19.3282 13.3431 19.3263 13.368 19.3263 13.3934V21.444C19.3263 23.4664 20.9819 25.0943 23.0137 25.0943H43.8371L47.5149 28.7292C47.7096 28.9217 48.023 28.9217 48.2178 28.7292L51.8956 25.0943H56.6435C58.6753 25.0943 60.3309 23.4664 60.3309 21.444V13.3934C60.3309 11.3711 58.6753 9.74316 56.6435 9.74316H23.0185ZM20.3263 21.444V13.4629C20.3295 13.4402 20.3311 13.417 20.3311 13.3934C20.3311 11.9344 21.5279 10.7432 23.0185 10.7432H56.6435C58.1341 10.7432 59.3309 11.9344 59.3309 13.3934V21.444C59.3309 22.9031 58.1341 24.0943 56.6435 24.0943H51.6902C51.5586 24.0943 51.4323 24.1462 51.3387 24.2387L47.8663 27.6706L44.394 24.2387C44.3004 24.1462 44.1741 24.0943 44.0425 24.0943H23.0137C21.5231 24.0943 20.3263 22.9031 20.3263 21.444ZM8.13672 35.5634C8.13672 34.1044 9.3335 32.9132 10.8241 32.9132H44.4539C45.9445 32.9132 47.1412 34.1044 47.1412 35.5634V43.614C47.1412 45.0731 45.9445 46.2643 44.4539 46.2643H23.4251C23.2935 46.2643 23.1672 46.3162 23.0736 46.4087L19.6012 49.8406L16.1288 46.4087C16.0353 46.3162 15.909 46.2643 15.7774 46.2643H10.8241C9.33349 46.2643 8.13672 45.0731 8.13672 43.614V35.5634ZM10.8241 31.9132C8.79228 31.9132 7.13672 33.5411 7.13672 35.5634V43.614C7.13672 45.6364 8.79228 47.2643 10.8241 47.2643H15.572L19.2497 50.8992C19.4445 51.0918 19.7579 51.0918 19.9527 50.8992L23.6305 47.2643H44.4539C46.4857 47.2643 48.1412 45.6364 48.1412 43.614V35.5634C48.1412 33.5411 46.4857 31.9132 44.4539 31.9132H10.8241Z" fill="#231F20"/>
</svg>
