<svg width="61" height="60" viewBox="0 0 61 60" fill="none" xmlns="http://www.w3.org/2000/svg">
<g clip-path="url(#clip0_2987_7600)">
<path fill-rule="evenodd" clip-rule="evenodd" d="M18.026 2.38379H15.0569V5.21136H4.17188C3.89573 5.21136 3.67188 5.43522 3.67188 5.71136V56.501C3.67188 56.7771 3.89573 57.001 4.17188 57.001H55.7644C56.0406 57.001 56.2644 56.7771 56.2644 56.501V5.71136C56.2644 5.43522 56.0406 5.21136 55.7644 5.21136H44.9321V2.38379H41.963V5.21136H18.026V2.38379ZM41.963 6.21136H18.026V8.84853H15.0569V6.21136H4.67188V46.8849H55.2644V6.21136H44.9321V8.84853H41.963V6.21136ZM20.9426 15.8179H12.0352V22.2493H20.9426V15.8179ZM25.5176 15.8179H34.425V22.2493H25.5176V15.8179ZM47.9015 15.8179H38.9941V22.2493H47.9015V15.8179ZM12.0352 24.6724H20.9426V31.1038H12.0352V24.6724ZM34.425 24.6724H25.5176V31.1038H34.425V24.6724ZM38.9941 24.6724H47.9015V31.1038H38.9941V24.6724ZM20.9426 33.5317H12.0352V39.9632H20.9426V33.5317ZM25.5176 33.5317H34.425V39.9632H25.5176V33.5317ZM47.9015 33.5316H38.9941V39.9631H47.9015V33.5316Z" fill="#231F20"/>
</g>
<defs>
<clipPath id="clip0_2987_7600">
<rect width="53.0433" height="54.8313" fill="white" transform="translate(3.44727 2.38379)"/>
</clipPath>
</defs>
</svg>
