<svg xmlns="http://www.w3.org/2000/svg" viewBox="0 0 114.1 114.2"><g fill="#e0ccbf"><path d="M54.5 61.7a22.9 22.9 0 01-8.1 9.7 24.8 24.8 0 01-12.1 3.9 35.2 35.2 0 01-14.4-2.7 32.4 32.4 0 01-13.8-9.7A26.9 26.9 0 01.2 48.8a33.3 33.3 0 012.5-16.4 31 31 0 012.1-4.5 30.9 30.9 0 00-.9 11.6 26.1 26.1 0 005.9 14.1 32.4 32.4 0 0013.8 9.7A35.2 35.2 0 0038 66a24.4 24.4 0 0012-3.9c3.5-2.3 8.2-9.7 8.2-9.7l-3.7 9.3z"/><path d="M112.8 72.8a23.1 23.1 0 00.8-12.7 23.7 23.7 0 00-6.2-11.1 34.4 34.4 0 00-12.3-7.9 31.4 31.4 0 00-16.7-2.4 26.7 26.7 0 00-13.9 6.2A34.3 34.3 0 0055 58.5a44.2 44.2 0 00-1.5 4.8 31.5 31.5 0 017.3-9.1A26.7 26.7 0 0174.7 48a31.3 31.3 0 0116.7 2.4 35.7 35.7 0 0112.4 7.9 24.4 24.4 0 016.1 11.1c.9 4.1-.8 12.7-.8 12.7l3.7-9.3z"/><path d="M50.9 54.6a23.1 23.1 0 01-9.7-8.2 24.1 24.1 0 01-3.9-12A35.2 35.2 0 0140 20a32.4 32.4 0 019.7-13.8A26.1 26.1 0 0163.8.3a33.3 33.3 0 0116.4 2.5 31 31 0 014.5 2.1A30.9 30.9 0 0073.1 4 26.1 26.1 0 0059 9.9a32.4 32.4 0 00-9.7 13.8 35.2 35.2 0 00-2.7 14.4 24.4 24.4 0 003.9 12c2.3 3.5 9.7 8.2 9.7 8.2l-9.3-3.7z"/><path d="M39.8 112.9a23.1 23.1 0 0012.7.8 23.7 23.7 0 0011.1-6.2 34.4 34.4 0 007.9-12.3 31.4 31.4 0 002.4-16.7 26.7 26.7 0 00-6.2-13.9 33.3 33.3 0 00-13.6-9.5 44.2 44.2 0 00-4.8-1.5 31.5 31.5 0 019.1 7.3 26.7 26.7 0 016.2 13.9 31.3 31.3 0 01-2.4 16.7 35.7 35.7 0 01-7.9 12.4 24.4 24.4 0 01-11.1 6.1c-4 .9-12.7-.8-12.7-.8l9.3 3.7z"/><path d="M51.3 58.9a23.5 23.5 0 01-12.7 1.3 23.5 23.5 0 01-11.2-5.7 34.1 34.1 0 01-8.5-12c-2.5-5.8-3.6-11.4-3-16.6a27.2 27.2 0 015.6-14.2 34.1 34.1 0 0113.3-10A44.3 44.3 0 0139.5 0a30 30 0 00-8.8 7.7A25.9 25.9 0 0025 21.8a32.6 32.6 0 003.1 16.6 33.9 33.9 0 008.4 12 23.8 23.8 0 0011.3 5.7c4.1.8 12.6-1.2 12.6-1.2l-9.1 4z"/><path d="M85.1 107.7a22.3 22.3 0 009.4-8.5A24 24 0 0097.9 87a33.8 33.8 0 00-3.2-14.3c-2.6-5.8-6-10.3-10.3-13.4a26.4 26.4 0 00-14.2-5.4 34.1 34.1 0 00-16.4 3.2 36.8 36.8 0 00-4.4 2.3A31.3 31.3 0 0161 58a27.5 27.5 0 0114.3 5.3 32.8 32.8 0 0110.2 13.4 34.3 34.3 0 013.2 14.4 22.7 22.7 0 01-3.3 12.1c-2.2 3.6-9.5 8.5-9.5 8.5l9.2-4z"/><path d="M54.9 54.9a22.3 22.3 0 01-2.3-12.5 23.8 23.8 0 014.8-11.7 33.8 33.8 0 0111.2-9.3A32.4 32.4 0 0185 17a26.9 26.9 0 0114.5 4.5 33.4 33.4 0 0111 12.4 38.2 38.2 0 012.1 4.6 30.7 30.7 0 00-8.3-8.2 27 27 0 00-14.6-4.5 28.1 28.1 0 00-16.3 4.4c-4.6 2.9-8.6 5.7-11.3 9.3a23.3 23.3 0 00-4.7 11.7c-.5 4.2 2.2 12.5 2.2 12.5l-4.7-8.8z"/><path d="M4.9 85.2a22.3 22.3 0 008.5 9.4A24 24 0 0025.6 98a33.8 33.8 0 0014.3-3.2c5.8-2.6 10.3-6 13.4-10.3a26.4 26.4 0 005.4-14.2 34.1 34.1 0 00-3.2-16.4 36.8 36.8 0 00-2.3-4.4 31.3 31.3 0 011.4 11.6 27.5 27.5 0 01-5.3 14.3 32.8 32.8 0 01-13.4 10.2 33.9 33.9 0 01-14.4 3.2 23.6 23.6 0 01-12.1-3.3C5.8 83.3.9 76 .9 76l4 9.2z"/></g><path fill="none" stroke="#221f1f" stroke-miterlimit="10" stroke-width="10" d="M31.3 60l12.6 12.6 34.9-33.9"/></svg>