<svg width="33" height="32" viewBox="0 0 33 32" fill="none" xmlns="http://www.w3.org/2000/svg">
<mask id="mask0_9447_8412" style="mask-type:alpha" maskUnits="userSpaceOnUse" x="0" y="0" width="33" height="32">
<rect x="0.5" width="32" height="32" fill="#D9D9D9"/>
</mask>
<g mask="url(#mask0_9447_8412)">
<path d="M4.06667 26.1352C3.95556 26.224 3.83889 26.2629 3.71667 26.2518C3.59444 26.2407 3.48889 26.1907 3.4 26.1018C2.71111 25.3907 2.13889 24.6129 1.68333 23.7685C1.22778 22.924 1 22.0018 1 21.0018C1 20.0463 1.15 19.1185 1.45 18.2185C1.75 17.3185 2.1 16.4463 2.5 15.6018C2.87778 14.824 3.21667 14.0296 3.51667 13.2185C3.81667 12.4074 3.96667 11.5796 3.96667 10.7352C3.96667 9.89071 3.73333 9.11849 3.26667 8.41849C2.8 7.71849 2.24444 7.0796 1.6 6.50182C1.51111 6.43516 1.47222 6.34071 1.48333 6.21849C1.49444 6.09627 1.54444 5.99071 1.63333 5.90182C1.72222 5.79071 1.82778 5.73516 1.95 5.73516C2.07222 5.73516 2.18889 5.7796 2.3 5.86849C3.03333 6.51293 3.65 7.24071 4.15 8.05182C4.65 8.86293 4.9 9.75738 4.9 10.7352C4.9 11.6463 4.74444 12.524 4.43333 13.3685C4.12222 14.2129 3.77778 15.0463 3.4 15.8685C3.02222 16.6907 2.68333 17.524 2.38333 18.3685C2.08333 19.2129 1.93333 20.0907 1.93333 21.0018C1.93333 21.8685 2.14444 22.6796 2.56667 23.4352C2.98889 24.1907 3.51111 24.8796 4.13333 25.5018C4.22222 25.5907 4.25556 25.6963 4.23333 25.8185C4.21111 25.9407 4.15556 26.0463 4.06667 26.1352ZM9.1 26.1352C8.98889 26.224 8.87222 26.2629 8.75 26.2518C8.62778 26.2407 8.52222 26.1907 8.43333 26.1018C7.74444 25.3907 7.17222 24.6129 6.71667 23.7685C6.26111 22.924 6.03333 22.0018 6.03333 21.0018C6.03333 20.0463 6.18333 19.1185 6.48333 18.2185C6.78333 17.3185 7.13333 16.4463 7.53333 15.6018C7.91111 14.824 8.25 14.0296 8.55 13.2185C8.85 12.4074 9 11.5796 9 10.7352C9 9.89071 8.76667 9.11849 8.3 8.41849C7.83333 7.71849 7.27778 7.0796 6.63333 6.50182C6.54444 6.43516 6.50556 6.34071 6.51667 6.21849C6.52778 6.09627 6.57778 5.99071 6.66667 5.90182C6.75556 5.79071 6.86111 5.73516 6.98333 5.73516C7.10556 5.73516 7.22222 5.7796 7.33333 5.86849C8.06667 6.51293 8.68333 7.24071 9.18333 8.05182C9.68333 8.86293 9.93333 9.75738 9.93333 10.7352C9.93333 11.6463 9.77778 12.524 9.46667 13.3685C9.15556 14.2129 8.81111 15.0463 8.43333 15.8685C8.05556 16.6907 7.71667 17.524 7.41667 18.3685C7.11667 19.2129 6.96667 20.0907 6.96667 21.0018C6.96667 21.8685 7.17778 22.6796 7.6 23.4352C8.02222 24.1907 8.54444 24.8796 9.16667 25.5018C9.25556 25.5907 9.28889 25.6963 9.26667 25.8185C9.24444 25.9407 9.18889 26.0463 9.1 26.1352ZM12.6 28.0018V4.00182C12.6 3.86849 12.6444 3.75738 12.7333 3.66849C12.8222 3.5796 12.9333 3.53516 13.0667 3.53516C13.2 3.53516 13.3111 3.5796 13.4 3.66849C13.4889 3.75738 13.5333 3.86849 13.5333 4.00182V10.2685L18.4 5.46849C18.5111 5.35738 18.6222 5.30182 18.7333 5.30182C18.8444 5.30182 18.9556 5.35738 19.0667 5.46849C19.1778 5.5796 19.2333 5.69071 19.2333 5.80182C19.2333 5.91293 19.1778 6.02405 19.0667 6.13516L13.5333 11.6685V15.5352H17.4L22.9333 10.0018C23.0444 9.89071 23.1556 9.83516 23.2667 9.83516C23.3778 9.83516 23.4889 9.89071 23.6 10.0018C23.6889 10.0907 23.7333 10.1963 23.7333 10.3185C23.7333 10.4407 23.6889 10.5574 23.6 10.6685L18.8 15.5352H25.0667C25.2 15.5352 25.3111 15.5796 25.4 15.6685C25.4889 15.7574 25.5333 15.8685 25.5333 16.0018C25.5333 16.1352 25.4889 16.2463 25.4 16.3352C25.3111 16.424 25.2 16.4685 25.0667 16.4685H18.8L23.6 21.3352C23.7111 21.4463 23.7667 21.5574 23.7667 21.6685C23.7667 21.7796 23.7111 21.8907 23.6 22.0018C23.4889 22.1129 23.3778 22.1685 23.2667 22.1685C23.1556 22.1685 23.0444 22.1129 22.9333 22.0018L17.4 16.4685H13.5333V20.3352L19.0667 25.8685C19.1778 25.9796 19.2333 26.0907 19.2333 26.2018C19.2333 26.3129 19.1778 26.424 19.0667 26.5352C18.9778 26.624 18.8722 26.6685 18.75 26.6685C18.6278 26.6685 18.5111 26.624 18.4 26.5352L13.5333 21.7352V28.0018C13.5333 28.1352 13.4889 28.2463 13.4 28.3352C13.3111 28.424 13.2 28.4685 13.0667 28.4685C12.9333 28.4685 12.8222 28.424 12.7333 28.3352C12.6444 28.2463 12.6 28.1352 12.6 28.0018Z" fill="#1C1B1F"/>
</g>
</svg>
