<svg width="33" height="32" viewBox="0 0 33 32" fill="none" xmlns="http://www.w3.org/2000/svg">
<mask id="mask0_2173_27921" style="mask-type:alpha" maskUnits="userSpaceOnUse" x="0" y="0" width="33" height="32">
<rect x="0.5" width="32" height="32" fill="#D9D9D9"/>
</mask>
<g mask="url(#mask0_2173_27921)">
<path d="M1.13333 26.1333L1 25.2L4.33333 16C4.46667 16.1111 4.6 16.1944 4.73333 16.25C4.86667 16.3056 5 16.3556 5.13333 16.4L1.86667 25.4667L1.13333 26.1333ZM13.8 26.1333L13.0667 25.4667L9.8 16.4C9.93333 16.3556 10.0667 16.3056 10.2 16.25C10.3333 16.1944 10.4667 16.1111 10.6 16L13.9333 25.2L13.8 26.1333ZM7.46667 13.8C6.6 13.8 5.86111 13.4944 5.25 12.8833C4.63889 12.2722 4.33333 11.5333 4.33333 10.6667C4.33333 9.8 4.61111 9.08889 5.16667 8.53333C5.72222 7.97778 6.33333 7.66667 7 7.6V4H7.93333V7.6C8.6 7.66667 9.21111 7.97778 9.76667 8.53333C10.3222 9.08889 10.6 9.8 10.6 10.6667C10.6 11.5333 10.2944 12.2722 9.68333 12.8833C9.07222 13.4944 8.33333 13.8 7.46667 13.8ZM7.46667 12.8667C8.06667 12.8667 8.58333 12.65 9.01667 12.2167C9.45 11.7833 9.66667 11.2667 9.66667 10.6667C9.66667 10.0667 9.45 9.55 9.01667 9.11667C8.58333 8.68333 8.06667 8.46667 7.46667 8.46667C6.86667 8.46667 6.35 8.68333 5.91667 9.11667C5.48333 9.55 5.26667 10.0667 5.26667 10.6667C5.26667 11.2667 5.48333 11.7833 5.91667 12.2167C6.35 12.65 6.86667 12.8667 7.46667 12.8667Z" fill="#231F20"/>
</g>
</svg>
