<svg width="33" height="32" viewBox="0 0 33 32" fill="none" xmlns="http://www.w3.org/2000/svg">
<mask id="mask0_2173_27989" style="mask-type:alpha" maskUnits="userSpaceOnUse" x="0" y="0" width="33" height="32">
<rect x="0.5" width="32" height="32" fill="#D9D9D9"/>
</mask>
<g mask="url(#mask0_2173_27989)">
<path d="M6.13333 13.8331C5.62222 13.8331 5.19444 13.6601 4.85 13.3141C4.50556 12.9682 4.33333 12.5523 4.33333 12.0664C4.33333 11.5623 4.50556 11.1307 4.85 10.7716C5.19444 10.4126 5.62222 10.2331 6.13333 10.2331C6.64444 10.2331 7.07222 10.411 7.41667 10.7669C7.76111 11.1227 7.93333 11.5505 7.93333 12.0502C7.93333 12.5499 7.76111 12.972 7.41667 13.3164C7.07222 13.6609 6.64444 13.8331 6.13333 13.8331ZM4.33333 27.5998C3.95556 27.5998 3.63889 27.4609 3.38333 27.1831C3.12778 26.9053 3 26.5776 3 26.1998C2.42222 26.1998 1.94444 25.9974 1.56667 25.5927C1.18889 25.188 1 24.7014 1 24.1331V18.7998H4.33333V17.7664C4.33333 17.122 4.56111 16.5609 5.01667 16.0831C5.47222 15.6053 6.02222 15.3664 6.66667 15.3664C7.06667 15.3664 7.44444 15.4609 7.8 15.6498C8.15556 15.8387 8.46667 16.0887 8.73333 16.3998L9.93333 17.8331C10.1111 18.0172 10.2833 18.1899 10.45 18.351C10.6167 18.5121 10.8 18.6617 11 18.7998H20.6V7.39978C20.6 6.84422 20.4167 6.36089 20.05 5.94978C19.6833 5.53867 19.2333 5.33311 18.7 5.33311C18.4412 5.33311 18.1931 5.38867 17.9559 5.49978C17.7186 5.61089 17.5111 5.75534 17.3333 5.93311L15.6667 7.64978C15.7778 8.03889 15.8 8.42228 15.7333 8.79995C15.6667 9.17761 15.5333 9.53311 15.3333 9.86645L12.8667 7.33311C13.1778 7.12622 13.5111 6.99404 13.8667 6.93655C14.2222 6.87908 14.5778 6.91931 14.9333 7.05725L16.6 5.33311C16.88 5.04031 17.1994 4.81156 17.5581 4.64685C17.9169 4.48214 18.2975 4.39978 18.7 4.39978C19.4953 4.39978 20.1664 4.69422 20.7132 5.28311C21.2599 5.872 21.5333 6.57756 21.5333 7.39978V18.7998H24.2V24.1331C24.2 24.7014 24.0111 25.188 23.6333 25.5927C23.2556 25.9974 22.7778 26.1998 22.2 26.1998C22.2 26.5776 22.0722 26.9053 21.8167 27.1831C21.5611 27.4609 21.2444 27.5998 20.8667 27.5998H4.33333ZM3 25.2664H22.2C22.5111 25.2664 22.7667 25.1553 22.9667 24.9331C23.1667 24.7109 23.2667 24.4442 23.2667 24.1331V19.7331H1.93333V24.1331C1.93333 24.4442 2.03333 24.7109 2.23333 24.9331C2.43333 25.1553 2.68889 25.2664 3 25.2664ZM3 25.2664H1.93333H23.2667H3Z" fill="#231F20"/>
</g>
</svg>
