<svg width="33" height="32" viewBox="0 0 33 32" fill="none" xmlns="http://www.w3.org/2000/svg">
<mask id="mask0_1886_3839" style="mask-type:alpha" maskUnits="userSpaceOnUse" x="0" y="0" width="33" height="32">
<rect x="0.5" width="32" height="32" fill="#D9D9D9"/>
</mask>
<g mask="url(#mask0_1886_3839)">
<path d="M1 17.3334V7.7334C1 7.15562 1.18889 6.67784 1.56667 6.30007C1.94444 5.92229 2.42222 5.7334 3 5.7334H9.93333V17.3334H1ZM12.6 5.7334H19.5333C20.1111 5.7334 20.5889 5.92229 20.9667 6.30007C21.3444 6.67784 21.5333 7.15931 21.5333 7.74446V12.0001H12.6V5.7334ZM12.6 26.2667V14.6667H21.5333V24.2667C21.5333 24.8445 21.3444 25.3223 20.9667 25.7001C20.5889 26.0778 20.1111 26.2667 19.5333 26.2667H12.6ZM1 20.0001H9.93333V26.2667H3C2.42222 26.2667 1.94444 26.0778 1.56667 25.7001C1.18889 25.3223 1 24.8408 1 24.2557V20.0001ZM1.93333 16.4001H9V6.66673H3C2.68889 6.66673 2.43333 6.76673 2.23333 6.96673C2.03333 7.16673 1.93333 7.42229 1.93333 7.7334V16.4001ZM13.5333 11.0667H20.6V7.7334C20.6 7.42229 20.5 7.16673 20.3 6.96673C20.1 6.76673 19.8444 6.66673 19.5333 6.66673H13.5333V11.0667ZM13.5333 15.6001V25.3334H19.5333C19.8444 25.3334 20.1 25.2334 20.3 25.0334C20.5 24.8334 20.6 24.5778 20.6 24.2667V15.6001H13.5333ZM1.93333 20.9334V24.2667C1.93333 24.5778 2.03333 24.8334 2.23333 25.0334C2.43333 25.2334 2.68889 25.3334 3 25.3334H9V20.9334H1.93333Z" fill="#231F20"/>
</g>
</svg>
