<svg width="33" height="32" viewBox="0 0 33 32" fill="none" xmlns="http://www.w3.org/2000/svg">
<mask id="mask0_1886_3882" style="mask-type:alpha" maskUnits="userSpaceOnUse" x="0" y="0" width="33" height="32">
<rect x="0.5" width="32" height="32" fill="#D9D9D9"/>
</mask>
<g mask="url(#mask0_1886_3882)">
<path d="M3 24.9334C2.42222 24.9334 1.94444 24.7445 1.56667 24.3668C1.18889 23.989 1 23.5112 1 22.9334V9.06677C1 8.48899 1.18889 8.01122 1.56667 7.63344C1.94444 7.25566 2.42222 7.06677 3 7.06677H22.2C22.7778 7.06677 23.2556 7.25566 23.6333 7.63344C24.0111 8.01122 24.2 8.48899 24.2 9.06677V22.9334C24.2 23.5112 24.0111 23.989 23.6333 24.3668C23.2556 24.7445 22.7778 24.9334 22.2 24.9334H3ZM1.93333 15.5334H8.43333V8.00011H3C2.68889 8.00011 2.43333 8.10011 2.23333 8.30011C2.03333 8.50011 1.93333 8.75566 1.93333 9.06677V15.5334ZM9.36667 15.5334H15.8333V8.00011H9.36667V15.5334ZM16.7667 15.5334H23.2667V9.06677C23.2667 8.75566 23.1667 8.50011 22.9667 8.30011C22.7667 8.10011 22.5111 8.00011 22.2 8.00011H16.7667V15.5334ZM8.43333 24.0001V16.4668H1.93333V22.9334C1.93333 23.2446 2.03333 23.5001 2.23333 23.7001C2.43333 23.9001 2.68889 24.0001 3 24.0001H8.43333ZM9.36667 24.0001H15.8333V16.4668H9.36667V24.0001ZM16.7667 24.0001H22.2C22.5111 24.0001 22.7667 23.9001 22.9667 23.7001C23.1667 23.5001 23.2667 23.2446 23.2667 22.9334V16.4668H16.7667V24.0001Z" fill="#231F20"/>
</g>
</svg>
