<svg width="33" height="32" viewBox="0 0 33 32" fill="none" xmlns="http://www.w3.org/2000/svg">
<mask id="mask0_2173_27964" style="mask-type:alpha" maskUnits="userSpaceOnUse" x="0" y="0" width="33" height="32">
<rect x="0.5" width="32" height="32" fill="#D9D9D9"/>
</mask>
<g mask="url(#mask0_2173_27964)">
<path d="M15.9 27.633C15.7 27.833 15.4722 27.983 15.2167 28.083C14.9611 28.183 14.7111 28.233 14.4667 28.233C14.2222 28.233 13.9778 28.183 13.7333 28.083C13.4889 27.983 13.2667 27.833 13.0667 27.633L11.4667 26.0664C11.2667 25.8664 11.1222 25.6441 11.0333 25.3997C10.9444 25.1553 10.9 24.9108 10.9 24.6664C10.9 24.4219 10.95 24.1775 11.05 23.933C11.15 23.6886 11.2889 23.4664 11.4667 23.2664L11.8667 22.833L1 7.2997L5.06667 3.23303L21.2667 19.433C21.4667 19.633 21.6167 19.8608 21.7167 20.1164C21.8167 20.3719 21.8667 20.6219 21.8667 20.8664C21.8667 21.1108 21.8167 21.3553 21.7167 21.5997C21.6167 21.8441 21.4667 22.0664 21.2667 22.2664L15.9 27.633ZM12.5 22.1664L17.6333 17.0997L5.06667 4.53303L2.2 7.3997L12.5 22.1664ZM13.7667 26.9664C13.9889 27.1664 14.2444 27.2664 14.5333 27.2664C14.8222 27.2664 15.0667 27.1664 15.2667 26.9664L20.6 21.633C20.8 21.433 20.9 21.1886 20.9 20.8997C20.9 20.6108 20.8 20.3553 20.6 20.133L18.2667 17.733L12.1333 23.8664C11.9111 24.0886 11.8 24.3497 11.8 24.6497C11.8 24.9497 11.9111 25.1997 12.1333 25.3997L13.7667 26.9664Z" fill="#231F20"/>
</g>
</svg>
