<svg width="33" height="32" viewBox="0 0 33 32" fill="none" xmlns="http://www.w3.org/2000/svg">
<mask id="mask0_2173_27981" style="mask-type:alpha" maskUnits="userSpaceOnUse" x="0" y="0" width="33" height="32">
<rect x="0.5" width="32" height="32" fill="#D9D9D9"/>
</mask>
<g mask="url(#mask0_2173_27981)">
<path d="M9.46667 25.0003V22.9336C9.46667 22.6225 9.36667 22.3669 9.16667 22.1669C8.96667 21.9669 8.71111 21.8669 8.4 21.8669H1V20.9336H8.4C8.95556 20.9336 9.42778 21.128 9.81667 21.5169C10.2056 21.9058 10.4 22.378 10.4 22.9336V25.0003H9.46667ZM13.0667 25.0003V22.9336C13.0667 22.378 13.2611 21.9058 13.65 21.5169C14.0389 21.128 14.5111 20.9336 15.0667 20.9336H22.4667V21.8669H15.0667C14.7556 21.8669 14.5 21.9669 14.3 22.1669C14.1 22.3669 14 22.6225 14 22.9336V25.0003H13.0667ZM4.6 18.2669C3.73333 18.2669 2.99444 17.9614 2.38333 17.3503C1.77222 16.7392 1.46667 16.0003 1.46667 15.1336V11.8669H22V15.1336C22 16.0003 21.6944 16.7392 21.0833 17.3503C20.4722 17.9614 19.7333 18.2669 18.8667 18.2669H4.6ZM4.6 17.3336H18.8667C19.4667 17.3336 19.9833 17.1169 20.4167 16.6836C20.85 16.2503 21.0667 15.7336 21.0667 15.1336V12.8003H2.4V15.1336C2.4 15.7336 2.61667 16.2503 3.05 16.6836C3.48333 17.1169 4 17.3336 4.6 17.3336ZM1.46667 9.20026V8.26693H8.6V7.93359C8.6 7.6447 8.69444 7.40582 8.88333 7.21693C9.07222 7.02804 9.31111 6.93359 9.6 6.93359H13.8667C14.1556 6.93359 14.3944 7.02804 14.5833 7.21693C14.7722 7.40582 14.8667 7.6447 14.8667 7.93359V8.26693H22V9.20026H1.46667Z" fill="#231F20"/>
</g>
</svg>
