<svg width="33" height="32" viewBox="0 0 33 32" fill="none" xmlns="http://www.w3.org/2000/svg">
<mask id="mask0_9447_8406" style="mask-type:alpha" maskUnits="userSpaceOnUse" x="0" y="0" width="33" height="32">
<rect x="0.5" width="32" height="32" fill="#D9D9D9"/>
</mask>
<g mask="url(#mask0_9447_8406)">
<path d="M3.66667 24.9331V15.0664H1V14.1331H5.5C4.99578 14.1331 4.56422 13.9503 4.20533 13.5847C3.84622 13.2192 3.66667 12.7797 3.66667 12.2664V7.06641H10.1333V12.2664C10.1333 12.7797 9.95055 13.2192 9.585 13.5847C9.21944 13.9503 8.78 14.1331 8.26667 14.1331H19.6667V10.3664C19.6667 9.72196 19.447 9.16641 19.0077 8.69974C18.5683 8.23307 18.0239 7.99974 17.3743 7.99974C16.7248 7.99974 16.1722 8.23307 15.7167 8.69974C15.2611 9.16641 15.0333 9.72196 15.0333 10.3664H14.0667C14.1111 9.43307 14.4444 8.64974 15.0667 8.01641C15.6889 7.38307 16.4556 7.06641 17.3667 7.06641C18.2778 7.06641 19.0444 7.38718 19.6667 8.02874C20.2889 8.67052 20.6 9.44974 20.6 10.3664V14.1331H24.2V15.0664H21.5333V24.9331H3.66667ZM4.6 13.1997H9.2V7.99974H4.6V13.1997ZM4.6 23.9997H12.1333V15.0664H4.6V23.9997ZM13.0667 23.9997H20.6V15.0664H13.0667V23.9997Z" fill="#1C1B1F"/>
</g>
</svg>
