<svg width="33" height="32" viewBox="0 0 33 32" fill="none" xmlns="http://www.w3.org/2000/svg">
<mask id="mask0_5586_4993" style="mask-type:alpha" maskUnits="userSpaceOnUse" x="0" y="0" width="33" height="32">
<rect x="0.5" width="32" height="32" fill="#D9D9D9"/>
</mask>
<g mask="url(#mask0_5586_4993)">
<path d="M1 26.2667V25.3334H3.66667V5.7334H21.5333V25.3334H24.2V26.2667H1ZM4.6 25.3334H10.7C10.5222 23.5556 9.93333 21.7834 8.93333 20.0167C7.93333 18.2501 6.48889 17.1223 4.6 16.6334V25.3334ZM4.6 6.66673V15.3667C6.48889 14.8778 7.93333 13.7501 8.93333 11.9834C9.93333 10.2167 10.5222 8.44451 10.7 6.66673H4.6ZM5.63333 16.0001C7.47778 16.689 8.9 17.9445 9.9 19.7667C10.9 21.589 11.4889 23.4445 11.6667 25.3334H13.5333C13.7111 23.4445 14.3 21.589 15.3 19.7667C16.3 17.9445 17.7222 16.689 19.5667 16.0001C17.7 15.3112 16.2667 14.0556 15.2667 12.2334C14.2667 10.4112 13.6778 8.55562 13.5 6.66673H11.6667C11.4889 8.55562 10.9 10.4112 9.9 12.2334C8.9 14.0556 7.47778 15.3112 5.63333 16.0001ZM20.6 6.66673H14.4667C14.6444 8.44451 15.2333 10.2167 16.2333 11.9834C17.2333 13.7501 18.6889 14.8778 20.6 15.3667V6.66673ZM20.6 25.3334V16.6334C18.6889 17.1223 17.2389 18.2501 16.25 20.0167C15.2611 21.7834 14.6778 23.5556 14.5 25.3334H20.6Z" fill="#1C1B1F"/>
</g>
</svg>
