<svg width="33" height="32" viewBox="0 0 33 32" fill="none" xmlns="http://www.w3.org/2000/svg">
<mask id="mask0_1886_3847" style="mask-type:alpha" maskUnits="userSpaceOnUse" x="0" y="0" width="33" height="32">
<rect x="0.5" width="32" height="32" fill="#D9D9D9"/>
</mask>
<g mask="url(#mask0_1886_3847)">
<path d="M6.46667 21.4334L11.2667 16.6334L16.0667 21.4334L16.7 20.8001L11.9 16.0001L16.7 11.2001L16.0667 10.5667L11.2667 15.3667L6.46667 10.5667L5.83333 11.2001L10.6333 16.0001L5.83333 20.8001L6.46667 21.4334ZM3 26.2667C2.42222 26.2667 1.94444 26.0778 1.56667 25.7001C1.18889 25.3223 1 24.8445 1 24.2667V7.7334C1 7.15562 1.18889 6.67784 1.56667 6.30007C1.94444 5.92229 2.42222 5.7334 3 5.7334H19.5333C20.1111 5.7334 20.5889 5.92229 20.9667 6.30007C21.3444 6.67784 21.5333 7.15562 21.5333 7.7334V24.2667C21.5333 24.8445 21.3444 25.3223 20.9667 25.7001C20.5889 26.0778 20.1111 26.2667 19.5333 26.2667H3ZM3 25.3334H19.5333C19.8 25.3334 20.0444 25.2223 20.2667 25.0001C20.4889 24.7778 20.6 24.5334 20.6 24.2667V7.7334C20.6 7.46673 20.4889 7.22229 20.2667 7.00007C20.0444 6.77784 19.8 6.66673 19.5333 6.66673H3C2.73333 6.66673 2.48889 6.77784 2.26667 7.00007C2.04444 7.22229 1.93333 7.46673 1.93333 7.7334V24.2667C1.93333 24.5334 2.04444 24.7778 2.26667 25.0001C2.48889 25.2223 2.73333 25.3334 3 25.3334Z" fill="#231F20"/>
</g>
</svg>
