<svg width="33" height="32" viewBox="0 0 33 32" fill="none" xmlns="http://www.w3.org/2000/svg">
<mask id="mask0_1886_3831" style="mask-type:alpha" maskUnits="userSpaceOnUse" x="0" y="0" width="33" height="32">
<rect x="0.5" width="32" height="32" fill="#D9D9D9"/>
</mask>
<g mask="url(#mask0_1886_3831)">
<path d="M2.33333 26.2667V23.6334L19.9667 6.00007C20.0778 5.88895 20.1889 5.81673 20.3 5.7834C20.4111 5.75007 20.5222 5.7334 20.6333 5.7334C20.7444 5.7334 20.8611 5.75007 20.9833 5.7834C21.1056 5.81673 21.2111 5.88895 21.3 6.00007L22.6 7.30007C22.7111 7.38895 22.7833 7.49451 22.8167 7.61673C22.85 7.73895 22.8667 7.85562 22.8667 7.96673C22.8667 8.07784 22.85 8.18895 22.8167 8.30007C22.7833 8.41118 22.7111 8.52229 22.6 8.6334L4.96667 26.2667H2.33333ZM3.26667 25.3334H4.56667L21.9167 7.9834L21.2667 7.3334L20.6167 6.6834L3.26667 24.0334V25.3334ZM21.2667 7.3334L20.6167 6.6834L21.9167 7.9834L21.2667 7.3334ZM14.4 26.2667C15.8222 26.2667 17.1444 25.9334 18.3667 25.2667C19.5889 24.6001 20.2 23.6667 20.2 22.4667C20.2 21.7112 19.9278 21.0334 19.3833 20.4334C18.8389 19.8334 18.0333 19.3445 16.9667 18.9667L16.2333 19.7001C17.1889 20.0112 17.9333 20.4056 18.4667 20.8834C19 21.3612 19.2667 21.889 19.2667 22.4667C19.2667 23.289 18.7889 23.9723 17.8333 24.5167C16.8778 25.0612 15.7333 25.3334 14.4 25.3334C14.2667 25.3334 14.1556 25.3778 14.0667 25.4667C13.9778 25.5556 13.9333 25.6667 13.9333 25.8001C13.9333 25.9334 13.9778 26.0445 14.0667 26.1334C14.1556 26.2223 14.2667 26.2667 14.4 26.2667ZM3.16667 18.1001L3.83333 17.4001C3.18889 17.1112 2.71111 16.8112 2.4 16.5001C2.08889 16.189 1.93333 15.8667 1.93333 15.5334C1.93333 15.089 2.19444 14.6556 2.71667 14.2334C3.23889 13.8112 4.2 13.3001 5.6 12.7001C7.28889 11.989 8.43333 11.3501 9.03333 10.7834C9.63333 10.2167 9.93333 9.57784 9.93333 8.86673C9.93333 7.97784 9.51667 7.2334 8.68333 6.6334C7.85 6.0334 6.77778 5.7334 5.46667 5.7334C4.68889 5.7334 3.93333 5.87784 3.2 6.16673C2.46667 6.45562 1.94444 6.81118 1.63333 7.2334C1.54444 7.34451 1.50556 7.46118 1.51667 7.5834C1.52778 7.70562 1.58889 7.81118 1.7 7.90007C1.81111 7.96673 1.92222 7.99451 2.03333 7.9834C2.14444 7.97229 2.24444 7.92229 2.33333 7.8334C2.71111 7.45562 3.16667 7.16673 3.7 6.96673C4.23333 6.76673 4.82222 6.66673 5.46667 6.66673C6.55556 6.66673 7.41667 6.8834 8.05 7.31673C8.68333 7.75007 9 8.26673 9 8.86673C9 9.37784 8.73889 9.83895 8.21667 10.2501C7.69444 10.6612 6.7 11.189 5.23333 11.8334C3.61111 12.5445 2.5 13.1667 1.9 13.7001C1.3 14.2334 1 14.8445 1 15.5334C1 16.0223 1.18333 16.4834 1.55 16.9167C1.91667 17.3501 2.45556 17.7445 3.16667 18.1001Z" fill="#231F20"/>
</g>
</svg>
