<svg width="33" height="32" viewBox="0 0 33 32" fill="none" xmlns="http://www.w3.org/2000/svg">
<mask id="mask0_1886_3898" style="mask-type:alpha" maskUnits="userSpaceOnUse" x="0" y="0" width="33" height="32">
<rect x="0.5" width="32" height="32" fill="#D9D9D9"/>
</mask>
<g mask="url(#mask0_1886_3898)">
<path d="M5.63333 28.9334V20.1667L1 12.6667L6.1 4.40002H16.3667L21.4667 12.6667L16.8333 20.1667V28.9334L11.2333 26.9667L5.63333 28.9334ZM6.56667 27.5L11.2333 25.9334L15.9 27.5V20.9334H6.56667V27.5ZM6.6 5.33336L2.06667 12.6667L6.6 20H15.8667L20.4 12.6667L15.8667 5.33336H6.6ZM9.83333 16.8667L6.33333 13.4L7 12.7334L9.83333 15.5667L15.4667 9.90002L16.1333 10.5334L9.83333 16.8667Z" fill="#231F20"/>
</g>
</svg>
