<svg width="33" height="32" viewBox="0 0 33 32" fill="none" xmlns="http://www.w3.org/2000/svg">
<mask id="mask0_9289_8209" style="mask-type:alpha" maskUnits="userSpaceOnUse" x="0" y="0" width="33" height="32">
<rect x="0.5" width="32" height="32" fill="#D9D9D9"/>
</mask>
<g mask="url(#mask0_9289_8209)">
<path d="M1.93333 22.6668H9.4C8.68889 22.2668 8.05 21.7668 7.48333 21.1668C6.91667 20.5668 6.46667 19.889 6.13333 19.1335H1.93333V22.6668ZM13.0667 22.6668C14.9111 22.6668 16.4833 22.0168 17.7833 20.7168C19.0833 19.4168 19.7333 17.8446 19.7333 16.0001C19.7333 14.1557 19.0833 12.5835 17.7833 11.2835C16.4833 9.98346 14.9111 9.33346 13.0667 9.33346C11.2222 9.33346 9.65 9.98346 8.35 11.2835C7.05 12.5835 6.4 14.1557 6.4 16.0001C6.4 17.8446 7.05 19.4168 8.35 20.7168C9.65 22.0168 11.2222 22.6668 13.0667 22.6668ZM20 12.8668H24.2V9.33346H16.7333C17.4444 9.73346 18.0833 10.2335 18.65 10.8335C19.2167 11.4335 19.6667 12.1112 20 12.8668ZM1 24.5335V17.2668H1.93333V18.2001H5.8C5.68889 17.8446 5.60556 17.4835 5.55 17.1168C5.49444 16.7501 5.46667 16.3779 5.46667 16.0001C5.46667 13.883 6.204 12.087 7.67867 10.6121C9.15355 9.13746 10.9496 8.40013 13.0667 8.40013H24.2V7.4668H25.1333V14.7335H24.2V13.8001H20.3333C20.4444 14.1557 20.5278 14.5168 20.5833 14.8835C20.6389 15.2501 20.6667 15.6224 20.6667 16.0001C20.6667 18.1172 19.9293 19.9132 18.4547 21.3881C16.9798 22.8628 15.1838 23.6001 13.0667 23.6001H1.93333V24.5335H1ZM13.0667 18.6335C12.5556 18.6335 12.1278 18.4612 11.7833 18.1168C11.4389 17.7724 11.2667 17.3446 11.2667 16.8335C11.2667 16.5224 11.3389 16.2001 11.4833 15.8668C11.6278 15.5335 11.8778 15.1001 12.2333 14.5668L13.0333 13.3668L13.8667 14.5668C14.258 15.1437 14.5224 15.5867 14.66 15.8958C14.7978 16.2049 14.8667 16.5175 14.8667 16.8335C14.8667 17.3446 14.6944 17.7724 14.35 18.1168C14.0056 18.4612 13.5778 18.6335 13.0667 18.6335Z" fill="#1C1B1F"/>
</g>
</svg>
