<svg width="33" height="32" viewBox="0 0 33 32" fill="none" xmlns="http://www.w3.org/2000/svg">
<mask id="mask0_9289_8185" style="mask-type:alpha" maskUnits="userSpaceOnUse" x="0" y="0" width="33" height="32">
<rect x="0.5" width="32" height="32" fill="#D9D9D9"/>
</mask>
<g mask="url(#mask0_9289_8185)">
<path d="M4.13333 25.4676C3.26667 25.4676 2.52778 25.162 1.91667 24.5509C1.30556 23.9398 1 23.2009 1 22.3342V15.4009C1 14.8454 1.19444 14.3731 1.58333 13.9842C1.97222 13.5954 2.44444 13.4009 3 13.4009H10.0333V6.76758H15.0667C15.9333 6.76758 16.6722 7.07313 17.2833 7.68424C17.8944 8.29536 18.2 9.03425 18.2 9.90091V15.5342H20.0667V13.6676C20.0667 13.4231 20.1111 13.1898 20.2 12.9676C20.2889 12.7454 20.4222 12.5454 20.6 12.3676L22.3 10.6676L27.0667 19.6676H21.8667C21.3778 19.6676 20.9611 19.4954 20.6167 19.1509C20.2722 18.8065 20.0889 18.3787 20.0667 17.8676V16.4676H18.2V19.6342C18.6889 19.9231 19.0722 20.3009 19.35 20.7676C19.6278 21.2342 19.7667 21.7565 19.7667 22.3342C19.7667 23.2009 19.4611 23.9398 18.85 24.5509C18.2389 25.162 17.5 25.4676 16.6333 25.4676C15.8556 25.4676 15.1722 25.2231 14.5833 24.7342C13.9944 24.2454 13.6444 23.612 13.5333 22.8342H7.23333C7.12222 23.612 6.77222 24.2454 6.18333 24.7342C5.59444 25.2231 4.91111 25.4676 4.13333 25.4676ZM4.13333 24.5342C4.73333 24.5342 5.25 24.3176 5.68333 23.8842C6.11667 23.4509 6.33333 22.9342 6.33333 22.3342C6.33333 21.7342 6.11667 21.2176 5.68333 20.7842C5.25 20.3509 4.73333 20.1342 4.13333 20.1342C3.53333 20.1342 3.01667 20.3509 2.58333 20.7842C2.15 21.2176 1.93333 21.7342 1.93333 22.3342C1.93333 22.9342 2.15 23.4509 2.58333 23.8842C3.01667 24.3176 3.53333 24.5342 4.13333 24.5342ZM16.6333 24.5342C17.2333 24.5342 17.75 24.3176 18.1833 23.8842C18.6167 23.4509 18.8333 22.9342 18.8333 22.3342C18.8333 21.7342 18.6167 21.2176 18.1833 20.7842C17.75 20.3509 17.2333 20.1342 16.6333 20.1342C16.0333 20.1342 15.5167 20.3509 15.0833 20.7842C14.65 21.2176 14.4333 21.7342 14.4333 22.3342C14.4333 22.9342 14.65 23.4509 15.0833 23.8842C15.5167 24.3176 16.0333 24.5342 16.6333 24.5342ZM10.0333 21.8676V14.3342H3C2.68889 14.3342 2.43333 14.4342 2.23333 14.6342C2.03333 14.8342 1.93333 15.0898 1.93333 15.4009V20.1342C2.22222 19.8231 2.55556 19.5898 2.93333 19.4342C3.31111 19.2787 3.71111 19.2009 4.13333 19.2009C4.91111 19.2009 5.58889 19.4509 6.16667 19.9509C6.74444 20.4509 7.08889 21.0898 7.2 21.8676H10.0333ZM10.9667 21.8676H13.5333C13.6444 21.0898 13.9944 20.4509 14.5833 19.9509C15.1722 19.4509 15.8556 19.2009 16.6333 19.2009C16.7444 19.2009 16.85 19.2065 16.95 19.2176C17.05 19.2287 17.1556 19.2454 17.2667 19.2676V16.4676H10.9667V21.8676ZM25.5333 18.7342L22.0667 12.2009L21.2667 13.0342C21.1778 13.1231 21.1111 13.2231 21.0667 13.3342C21.0222 13.4454 21 13.5565 21 13.6676V17.8676C21.0222 18.112 21.1111 18.3176 21.2667 18.4842C21.4222 18.6509 21.6222 18.7342 21.8667 18.7342H25.5333ZM10.9667 15.5342H17.2667V9.90091C17.2667 9.30091 17.05 8.78424 16.6167 8.35091C16.1833 7.91758 15.6667 7.70091 15.0667 7.70091H10.9667V15.5342ZM10.0333 21.8676V19.2009V20.1342V14.3342V21.8676ZM10.9667 21.8676V16.4676V19.2676V19.2009V21.8676Z" fill="#1C1B1F"/>
</g>
</svg>
