<svg width="33" height="32" viewBox="0 0 33 32" fill="none" xmlns="http://www.w3.org/2000/svg">
<mask id="mask0_6033_2787" style="mask-type:alpha" maskUnits="userSpaceOnUse" x="0" y="0" width="33" height="32">
<rect x="0.5" width="32" height="32" fill="#D9D9D9"/>
</mask>
<g mask="url(#mask0_6033_2787)">
<path d="M6.86667 21.0334L6.23333 20.4001L12.8333 13.8001H6.8V12.8667H14.4V20.4667H13.4667V14.4334L6.86667 21.0334ZM20.6 16.0001V6.66673H11.2667V5.7334H21.5333V16.0001H20.6ZM3 26.2667C2.42222 26.2667 1.94444 26.0778 1.56667 25.7001C1.18889 25.3223 1 24.8445 1 24.2667V5.7334H1.93333V24.2667C1.93333 24.5334 2.04444 24.7778 2.26667 25.0001C2.48889 25.2223 2.73333 25.3334 3 25.3334H21.5333V26.2667H3Z" fill="#1C1B1F"/>
</g>
</svg>
