<svg width="33" height="32" viewBox="0 0 33 32" fill="none" xmlns="http://www.w3.org/2000/svg">
<mask id="mask0_2173_27972" style="mask-type:alpha" maskUnits="userSpaceOnUse" x="0" y="0" width="33" height="32">
<rect x="0.5" width="32" height="32" fill="#D9D9D9"/>
</mask>
<g mask="url(#mask0_2173_27972)">
<path d="M21 27.5664C20.8667 27.5664 20.7444 27.5441 20.6333 27.4997C20.5222 27.4553 20.4111 27.3775 20.3 27.2664L13.7 20.6997C13.5889 20.5886 13.5111 20.4775 13.4667 20.3664C13.4222 20.2553 13.4 20.133 13.4 19.9997C13.4 19.8664 13.4222 19.7441 13.4667 19.633C13.5111 19.5219 13.5889 19.4108 13.7 19.2997L15.7333 17.2664C15.8444 17.1553 15.9556 17.0775 16.0667 17.033C16.1778 16.9886 16.3 16.9664 16.4333 16.9664C16.5667 16.9664 16.6889 16.9886 16.8 17.033C16.9111 17.0775 17.0222 17.1553 17.1333 17.2664L23.7333 23.8664C23.8444 23.9775 23.9222 24.0886 23.9667 24.1997C24.0111 24.3108 24.0333 24.433 24.0333 24.5664C24.0333 24.6997 24.0111 24.8219 23.9667 24.933C23.9222 25.0441 23.8444 25.1553 23.7333 25.2664L21.7 27.2664C21.5889 27.3775 21.4778 27.4553 21.3667 27.4997C21.2556 27.5441 21.1333 27.5664 21 27.5664ZM21 26.6997L23.1333 24.5664L16.4333 17.8664L14.3 19.9997L21 26.6997ZM4.03333 27.5664C3.9 27.5664 3.77778 27.5441 3.66667 27.4997C3.55556 27.4553 3.44444 27.3775 3.33333 27.2664L1.3 25.2664C1.18889 25.1553 1.11111 25.0441 1.06667 24.933C1.02222 24.8219 1 24.6997 1 24.5664C1 24.433 1.02222 24.3053 1.06667 24.183C1.11111 24.0608 1.18889 23.9441 1.3 23.833L8.1 17.033H10.8667L11.8667 16.033L6.16667 10.333H4.26667L1.1 7.16637L3.66667 4.5997L6.83333 7.76637V9.66637L12.5333 15.3664L16.6 11.2997L13.8333 8.53303L15.2333 7.13303H12.4333L12 6.73303L15.5 3.23303L15.9 3.63303V6.46637L17.3 5.06637L22.7667 10.4664C23.0778 10.7553 23.3056 11.0886 23.45 11.4664C23.5944 11.8441 23.6667 12.2441 23.6667 12.6664C23.6667 12.933 23.6333 13.1941 23.5667 13.4497C23.5 13.7053 23.4 13.9553 23.2667 14.1997L20.5667 11.4997L18.6667 13.3997L17.2333 11.9664L11.5 17.6997V20.533L4.73333 27.2664C4.62222 27.3775 4.51111 27.4553 4.4 27.4997C4.28889 27.5441 4.16667 27.5664 4.03333 27.5664ZM4.03333 26.6664L10.8667 19.833V17.6997H8.73333L1.9 24.533L4.03333 26.6664Z" fill="#231F20"/>
</g>
</svg>
