<svg width="33" height="32" viewBox="0 0 33 32" fill="none" xmlns="http://www.w3.org/2000/svg">
<mask id="mask0_1886_4439" style="mask-type:alpha" maskUnits="userSpaceOnUse" x="0" y="0" width="33" height="32">
<rect x="0.5" width="32" height="32" fill="#D9D9D9"/>
</mask>
<g mask="url(#mask0_1886_4439)">
<path d="M3 27.5998C2.44444 27.5998 1.97222 27.4053 1.58333 27.0164C1.19444 26.6276 1 26.1553 1 25.5998V6.39978C1 5.84422 1.19444 5.372 1.58333 4.98311C1.97222 4.59422 2.44444 4.39978 3 4.39978H16.8667C17.4222 4.39978 17.8944 4.59422 18.2833 4.98311C18.6722 5.372 18.8667 5.84422 18.8667 6.39978V25.5998C18.8667 26.1553 18.6722 26.6276 18.2833 27.0164C17.8944 27.4053 17.4222 27.5998 16.8667 27.5998H3ZM3 26.6664H16.8667C17.1333 26.6664 17.3778 26.5553 17.6 26.3331C17.8222 26.1109 17.9333 25.8664 17.9333 25.5998V6.39978C17.9333 6.13311 17.8222 5.88867 17.6 5.66645C17.3778 5.44422 17.1333 5.33311 16.8667 5.33311H3C2.73333 5.33311 2.48889 5.44422 2.26667 5.66645C2.04444 5.88867 1.93333 6.13311 1.93333 6.39978V25.5998C1.93333 25.8664 2.04444 26.1109 2.26667 26.3331C2.48889 26.5553 2.73333 26.6664 3 26.6664ZM9.93333 23.9998C11.4 23.9998 12.6556 23.4776 13.7 22.4331C14.7444 21.3887 15.2667 20.1331 15.2667 18.6664C15.2667 17.1998 14.7444 15.9442 13.7 14.8998C12.6556 13.8553 11.4 13.3331 9.93333 13.3331C8.46667 13.3331 7.21111 13.8553 6.16667 14.8998C5.12222 15.9442 4.6 17.1998 4.6 18.6664C4.6 20.1331 5.12222 21.3887 6.16667 22.4331C7.21111 23.4776 8.46667 23.9998 9.93333 23.9998ZM9.93333 23.0664C9.35556 23.0664 8.8 22.9553 8.26667 22.7331C7.73333 22.5109 7.26667 22.1998 6.86667 21.7998L13.0667 15.5998C13.4667 15.9998 13.7778 16.4664 14 16.9998C14.2222 17.5331 14.3333 18.0887 14.3333 18.6664C14.3333 19.8887 13.9056 20.9276 13.05 21.7831C12.1944 22.6387 11.1556 23.0664 9.93333 23.0664ZM4.6 9.33311C4.97778 9.33311 5.29444 9.20534 5.55 8.94978C5.80556 8.69422 5.93333 8.37756 5.93333 7.99978C5.93333 7.622 5.80556 7.30534 5.55 7.04978C5.29444 6.79422 4.97778 6.66645 4.6 6.66645C4.22222 6.66645 3.90556 6.79422 3.65 7.04978C3.39444 7.30534 3.26667 7.622 3.26667 7.99978C3.26667 8.37756 3.39444 8.69422 3.65 8.94978C3.90556 9.20534 4.22222 9.33311 4.6 9.33311ZM8.6 9.33311C8.97778 9.33311 9.29444 9.20534 9.55 8.94978C9.80556 8.69422 9.93333 8.37756 9.93333 7.99978C9.93333 7.622 9.80556 7.30534 9.55 7.04978C9.29444 6.79422 8.97778 6.66645 8.6 6.66645C8.22222 6.66645 7.90556 6.79422 7.65 7.04978C7.39444 7.30534 7.26667 7.622 7.26667 7.99978C7.26667 8.37756 7.39444 8.69422 7.65 8.94978C7.90556 9.20534 8.22222 9.33311 8.6 9.33311Z" fill="#231F20"/>
</g>
</svg>
