<svg width="33" height="32" viewBox="0 0 33 32" fill="none" xmlns="http://www.w3.org/2000/svg">
<mask id="mask0_1886_3890" style="mask-type:alpha" maskUnits="userSpaceOnUse" x="0" y="0" width="33" height="32">
<rect x="0.5" width="32" height="32" fill="#D9D9D9"/>
</mask>
<g mask="url(#mask0_1886_3890)">
<path d="M3 24.9334C2.42222 24.9334 1.94444 24.7445 1.56667 24.3668C1.18889 23.989 1 23.5112 1 22.9334V9.06677C1 8.48899 1.18889 8.01122 1.56667 7.63344C1.94444 7.25566 2.42222 7.06677 3 7.06677H22.2C22.7778 7.06677 23.2556 7.25566 23.6333 7.63344C24.0111 8.01122 24.2 8.48899 24.2 9.06677V22.9334C24.2 23.5112 24.0111 23.989 23.6333 24.3668C23.2556 24.7445 22.7778 24.9334 22.2 24.9334H3ZM3 24.0001H17V8.00011H3C2.73333 8.00011 2.48889 8.11122 2.26667 8.33344C2.04444 8.55566 1.93333 8.80011 1.93333 9.06677V22.9334C1.93333 23.2001 2.04444 23.4445 2.26667 23.6668C2.48889 23.889 2.73333 24.0001 3 24.0001ZM17.9333 24.0001H22.2C22.4667 24.0001 22.7111 23.889 22.9333 23.6668C23.1556 23.4445 23.2667 23.2001 23.2667 22.9334V9.06677C23.2667 8.80011 23.1556 8.55566 22.9333 8.33344C22.7111 8.11122 22.4667 8.00011 22.2 8.00011H17.9333V24.0001ZM19.8 11.4668H21.4V9.86677H19.8V11.4668ZM20.6 16.9334C20.8444 16.9334 21.0611 16.839 21.25 16.6501C21.4389 16.4612 21.5333 16.2445 21.5333 16.0001C21.5333 15.7557 21.4389 15.539 21.25 15.3501C21.0611 15.1612 20.8444 15.0668 20.6 15.0668C20.3556 15.0668 20.1389 15.1612 19.95 15.3501C19.7611 15.539 19.6667 15.7557 19.6667 16.0001C19.6667 16.2445 19.7611 16.4612 19.95 16.6501C20.1389 16.839 20.3556 16.9334 20.6 16.9334ZM20.6 22.2668C20.8444 22.2668 21.0611 22.1723 21.25 21.9834C21.4389 21.7945 21.5333 21.5779 21.5333 21.3334C21.5333 21.089 21.4389 20.8723 21.25 20.6834C21.0611 20.4945 20.8444 20.4001 20.6 20.4001C20.3556 20.4001 20.1389 20.4945 19.95 20.6834C19.7611 20.8723 19.6667 21.089 19.6667 21.3334C19.6667 21.5779 19.7611 21.7945 19.95 21.9834C20.1389 22.1723 20.3556 22.2668 20.6 22.2668ZM11.1333 20.4668C10.7333 20.4668 10.3556 20.3723 10 20.1834C9.64444 19.9946 9.34444 19.8223 9.1 19.6668C8.85556 19.5112 8.63889 19.3834 8.45 19.2834C8.26111 19.1834 8.04444 19.1334 7.8 19.1334C7.57778 19.1334 7.36111 19.1779 7.15 19.2668C6.93889 19.3557 6.74444 19.4668 6.56667 19.6001L5.86667 18.9334C6.11111 18.7557 6.4 18.589 6.73333 18.4334C7.06667 18.2779 7.42222 18.2001 7.8 18.2001C8.2 18.2001 8.56111 18.289 8.88333 18.4668C9.20555 18.6445 9.48889 18.8112 9.73333 18.9668C9.97778 19.1445 10.2167 19.2834 10.45 19.3834C10.6833 19.4834 10.9111 19.5334 11.1333 19.5334C11.3556 19.5334 11.5722 19.489 11.7833 19.4001C11.9944 19.3112 12.1889 19.2001 12.3667 19.0668L13.0667 19.7334C12.8222 19.9112 12.5333 20.0779 12.2 20.2334C11.8667 20.389 11.5111 20.4668 11.1333 20.4668ZM11.1333 13.8001C10.7333 13.8001 10.3556 13.7057 10 13.5168C9.64444 13.3279 9.34444 13.1557 9.1 13.0001C8.85556 12.8446 8.63889 12.7168 8.45 12.6168C8.26111 12.5168 8.04444 12.4668 7.8 12.4668C7.57778 12.4668 7.36111 12.5112 7.15 12.6001C6.93889 12.689 6.74444 12.8001 6.56667 12.9334L5.86667 12.2668C6.11111 12.089 6.4 11.9223 6.73333 11.7668C7.06667 11.6112 7.42222 11.5334 7.8 11.5334C8.2 11.5334 8.56111 11.6223 8.88333 11.8001C9.20555 11.9779 9.48889 12.1445 9.73333 12.3001C9.97778 12.4779 10.2167 12.6168 10.45 12.7168C10.6833 12.8168 10.9111 12.8668 11.1333 12.8668C11.3556 12.8668 11.5722 12.8223 11.7833 12.7334C11.9944 12.6445 12.1889 12.5334 12.3667 12.4001L13.0667 13.0668C12.8222 13.2445 12.5333 13.4112 12.2 13.5668C11.8667 13.7223 11.5111 13.8001 11.1333 13.8001Z" fill="#231F20"/>
</g>
</svg>
