<svg width="33" height="32" viewBox="0 0 33 32" fill="none" xmlns="http://www.w3.org/2000/svg">
<mask id="mask0_2173_27946" style="mask-type:alpha" maskUnits="userSpaceOnUse" x="0" y="0" width="33" height="32">
<rect x="0.5" width="32" height="32" fill="#D9D9D9"/>
</mask>
<g mask="url(#mask0_2173_27946)">
<path d="M10.6 27.2665C9.81538 27.2665 9.21922 27.0352 8.81153 26.5726C8.40384 26.11 8.2 25.5829 8.2 24.9914C8.2 24.597 8.28333 24.2054 8.45 23.8165C8.61667 23.4276 8.88889 23.1109 9.26667 22.8665C9.77778 22.5109 10.2056 22.0276 10.55 21.4165C10.8944 20.8054 11.1556 20.122 11.3333 19.3665C11.0889 19.2776 10.85 19.172 10.6167 19.0498C10.3833 18.9276 10.1556 18.7665 9.93333 18.5665L6.8 19.6998C6.48889 19.8109 6.19682 19.8998 5.9238 19.9665C5.6508 20.0332 5.36926 20.0665 5.07917 20.0665C4.00417 20.0665 3.05556 19.5799 2.23333 18.6066C1.41111 17.6334 1 16.2089 1 14.3332C1 13.5485 1.22934 12.9524 1.68803 12.5447C2.14674 12.137 2.66184 11.9332 3.23333 11.9332C3.65556 11.9332 4.06111 12.0165 4.45 12.1832C4.83889 12.3498 5.15556 12.622 5.4 12.9998C5.75556 13.5109 6.23889 13.9387 6.85 14.2832C7.46111 14.6276 8.14444 14.8887 8.9 15.0665C8.98889 14.822 9.09444 14.5832 9.21667 14.3498C9.33889 14.1165 9.5 13.8887 9.7 13.6665L8.56667 10.5332C8.45556 10.2443 8.36667 9.95538 8.3 9.66649C8.23333 9.3776 8.2 9.09982 8.2 8.83315C8.2 7.49982 8.78333 6.48315 9.95 5.78315C11.1167 5.08315 12.4444 4.73315 13.9333 4.73315C14.718 4.73315 15.3141 4.96089 15.7218 5.41635C16.1295 5.87182 16.3333 6.38329 16.3333 6.95075C16.3333 7.33902 16.25 7.73315 16.0833 8.13315C15.9167 8.53315 15.6444 8.85538 15.2667 9.09982C14.7556 9.45538 14.3278 9.94426 13.9833 10.5665C13.6389 11.1887 13.3778 11.8776 13.2 12.6332C13.4667 12.7443 13.7176 12.8632 13.9529 12.9898C14.1882 13.1165 14.4039 13.2643 14.6 13.4332L17.7333 12.2665C18.0444 12.1554 18.3322 12.072 18.5965 12.0165C18.8609 11.9609 19.138 11.9332 19.4279 11.9332C20.8093 11.9332 21.8389 12.522 22.5167 13.6998C23.1944 14.8776 23.5333 16.1998 23.5333 17.6665C23.5333 18.4511 23.2889 19.0473 22.8 19.455C22.3111 19.8626 21.7688 20.0665 21.1729 20.0665C20.791 20.0665 20.4167 19.9832 20.05 19.8165C19.6833 19.6498 19.3778 19.3776 19.1333 18.9998C18.7778 18.4887 18.2944 18.0609 17.6833 17.7165C17.0722 17.372 16.3889 17.1109 15.6333 16.9332C15.5444 17.1776 15.4389 17.4109 15.3167 17.6332C15.1944 17.8554 15.0333 18.0887 14.8333 18.3332L15.9667 21.4665C16.0714 21.7588 16.1587 22.0375 16.2286 22.3024C16.2984 22.5674 16.3333 22.822 16.3333 23.0665C16.3111 24.1332 15.8184 25.0998 14.8553 25.9665C13.8922 26.8332 12.4737 27.2665 10.6 27.2665ZM12.2745 18.5332C12.9804 18.5332 13.5778 18.2861 14.0667 17.792C14.5556 17.2979 14.8 16.6979 14.8 15.992C14.8 15.2861 14.5529 14.6887 14.0588 14.1998C13.5647 13.7109 12.9647 13.4665 12.2588 13.4665C11.5529 13.4665 10.9556 13.7135 10.4667 14.2077C9.97778 14.7018 9.73333 15.3018 9.73333 16.0077C9.73333 16.7135 9.98039 17.3109 10.4745 17.7998C10.9686 18.2887 11.5686 18.5332 12.2745 18.5332ZM10.4667 13.0332C10.7556 12.8554 11.05 12.7276 11.35 12.6498C11.65 12.572 11.9556 12.5332 12.2667 12.5332C12.4444 11.622 12.7389 10.7998 13.15 10.0665C13.5611 9.33315 14.0889 8.75538 14.7333 8.33315C14.9556 8.1776 15.1222 7.98871 15.2333 7.76649C15.3444 7.54427 15.4 7.2776 15.4 6.96649C15.4 6.60158 15.2833 6.29368 15.05 6.04279C14.8167 5.79192 14.4444 5.66649 13.9333 5.66649C13.0392 5.66649 12.0275 5.88241 10.898 6.31425C9.76863 6.74612 9.1804 7.5902 9.13333 8.84649C9.13333 9.08204 9.16667 9.29982 9.23333 9.49982C9.3 9.69982 9.35556 9.8776 9.4 10.0332L10.4667 13.0332ZM5.06667 19.1332C5.35556 19.1332 5.76667 19.0443 6.3 18.8665L9.33333 17.7998C9.15555 17.5554 9.02222 17.2832 8.93333 16.9832C8.84444 16.6832 8.8 16.3554 8.8 15.9998C7.88889 15.822 7.06667 15.5276 6.33333 15.1165C5.6 14.7054 5.02222 14.1776 4.6 13.5332C4.44444 13.3109 4.23889 13.1443 3.98333 13.0332C3.72778 12.922 3.47778 12.8665 3.23333 12.8665C2.81111 12.8665 2.48889 12.9832 2.26667 13.2165C2.04444 13.4498 1.93333 13.822 1.93333 14.3332C1.93333 15.6037 2.20097 16.7214 2.73623 17.6861C3.27152 18.6508 4.04833 19.1332 5.06667 19.1332ZM10.6 26.3332C11.6898 26.3332 12.7623 26.0832 13.8174 25.5832C14.8725 25.0832 15.4 24.2443 15.4 23.0665C15.4 22.8483 15.3667 22.6438 15.3 22.4529C15.2333 22.2619 15.1778 22.0998 15.1333 21.9665L14.0667 18.9332C13.7778 19.1332 13.4667 19.272 13.1333 19.3498C12.8 19.4276 12.5111 19.4665 12.2667 19.4665C12.0889 20.3776 11.7944 21.1998 11.3833 21.9332C10.9722 22.6665 10.4444 23.2443 9.8 23.6665C9.6 23.7998 9.43889 23.9943 9.31667 24.2498C9.19444 24.5054 9.13333 24.7554 9.13333 24.9998C9.13333 25.3554 9.25 25.6665 9.48333 25.9332C9.71667 26.1998 10.0889 26.3332 10.6 26.3332ZM21.2111 19.1332C21.5815 19.1332 21.9056 19.0276 22.1833 18.8165C22.4611 18.6054 22.6 18.222 22.6 17.6665C22.6 16.7724 22.3906 15.7547 21.9719 14.6136C21.5531 13.4724 20.7025 12.89 19.42 12.8665C19.1844 12.8665 18.9722 12.8887 18.7833 12.9332C18.5944 12.9776 18.4111 13.0332 18.2333 13.0998L15.2333 14.1998C15.3889 14.4665 15.5111 14.7554 15.6 15.0665C15.6889 15.3776 15.7333 15.6887 15.7333 15.9998C16.6444 16.1776 17.4667 16.472 18.2 16.8832C18.9333 17.2943 19.5111 17.822 19.9333 18.4665C20.0444 18.6443 20.2235 18.7998 20.4704 18.9332C20.7173 19.0665 20.9642 19.1332 21.2111 19.1332Z" fill="#231F20"/>
</g>
</svg>
