<svg width="33" height="32" viewBox="0 0 33 32" fill="none" xmlns="http://www.w3.org/2000/svg">
<mask id="mask0_5586_4975" style="mask-type:alpha" maskUnits="userSpaceOnUse" x="0" y="0" width="33" height="32">
<rect x="0.5" width="32" height="32" fill="#D9D9D9"/>
</mask>
<g mask="url(#mask0_5586_4975)">
<path d="M18.4667 26.2667L22 22.8001L21.3333 22.1334L18.4667 24.9667L17.2 23.6667L16.5333 24.3334L18.4667 26.2667ZM4.6 11.5334H17.9333V10.6001H4.6V11.5334ZM19.2667 29.1334C17.8889 29.1334 16.7222 28.6556 15.7667 27.7001C14.8111 26.7445 14.3333 25.5778 14.3333 24.2001C14.3333 22.8223 14.8111 21.6556 15.7667 20.7001C16.7222 19.7445 17.8889 19.2667 19.2667 19.2667C20.6444 19.2667 21.8111 19.7445 22.7667 20.7001C23.7222 21.6556 24.2 22.8223 24.2 24.2001C24.2 25.5778 23.7222 26.7445 22.7667 27.7001C21.8111 28.6556 20.6444 29.1334 19.2667 29.1334ZM1 27.2001V7.7334C1 7.17784 1.19444 6.70562 1.58333 6.31673C1.97222 5.92784 2.44444 5.7334 3 5.7334H19.5333C20.0889 5.7334 20.5611 5.92784 20.95 6.31673C21.3389 6.70562 21.5333 7.17784 21.5333 7.7334V15.3667C21.3778 15.3223 21.2278 15.2834 21.0833 15.2501C20.9389 15.2167 20.7778 15.189 20.6 15.1667V7.7334C20.6 7.46673 20.4889 7.22229 20.2667 7.00007C20.0444 6.77784 19.8 6.66673 19.5333 6.66673H3C2.73333 6.66673 2.48889 6.77784 2.26667 7.00007C2.04444 7.22229 1.93333 7.46673 1.93333 7.7334V25.4001H10.5C10.5444 25.6667 10.5944 25.9334 10.65 26.2001C10.7056 26.4667 10.7889 26.7223 10.9 26.9667L9.53333 26.1334L7.8 27.2001L6.06667 26.1334L4.33333 27.2001L2.6 26.1334L1 27.2001ZM4.6 21.4001H10.7333C10.7778 21.2223 10.8278 21.0612 10.8833 20.9167C10.9389 20.7723 11 20.6223 11.0667 20.4667H4.6V21.4001ZM4.6 16.4667H14.4333C14.7444 16.2667 15.0556 16.089 15.3667 15.9334C15.6778 15.7778 16.0111 15.6445 16.3667 15.5334H4.6V16.4667Z" fill="#1C1B1F"/>
</g>
</svg>
