<svg width="33" height="32" viewBox="0 0 33 32" fill="none" xmlns="http://www.w3.org/2000/svg">
<mask id="mask0_9289_8197" style="mask-type:alpha" maskUnits="userSpaceOnUse" x="0" y="0" width="33" height="32">
<rect x="0.5" width="32" height="32" fill="#D9D9D9"/>
</mask>
<g mask="url(#mask0_9289_8197)">
<path d="M3 25.3324H5.9V21.3658H1.93333V24.2658C1.93333 24.5324 2.04444 24.7769 2.26667 24.9991C2.48889 25.2213 2.73333 25.3324 3 25.3324ZM6.83333 25.3324H10.8V21.3658H6.83333V25.3324ZM11.7333 25.3324H15.7V21.3658H11.7333V25.3324ZM16.6333 25.3324H19.5333C19.8 25.3324 20.0444 25.2213 20.2667 24.9991C20.4889 24.7769 20.6 24.5324 20.6 24.2658V21.3658H16.6333V25.3324ZM1.93333 10.6324H5.9V6.66576H3C2.73333 6.66576 2.48889 6.77687 2.26667 6.99909C2.04444 7.22131 1.93333 7.46576 1.93333 7.73242V10.6324ZM1.93333 15.5324H5.9V11.5658H1.93333V15.5324ZM1.93333 20.4324H5.9V16.4658H1.93333V20.4324ZM6.83333 10.6324H10.8V6.66576H6.83333V10.6324ZM6.83333 15.5324H10.8V11.5658H6.83333V15.5324ZM6.83333 20.4324H10.8V16.4658H6.83333V20.4324ZM11.7333 10.6324H15.7V6.66576H11.7333V10.6324ZM11.7333 15.5324H15.7V11.5658H11.7333V15.5324ZM11.7333 20.4324H15.7V16.4658H11.7333V20.4324ZM16.6333 10.6324H20.6V7.73242C20.6 7.46576 20.4889 7.22131 20.2667 6.99909C20.0444 6.77687 19.8 6.66576 19.5333 6.66576H16.6333V10.6324ZM16.6333 15.5324H20.6V11.5658H16.6333V15.5324ZM16.6333 20.4324H20.6V16.4658H16.6333V20.4324ZM3 26.2658C2.42222 26.2658 1.94444 26.0769 1.56667 25.6991C1.18889 25.3213 1 24.8435 1 24.2658V7.73242C1 7.15464 1.18889 6.67687 1.56667 6.29909C1.94444 5.92131 2.42222 5.73242 3 5.73242H19.5333C20.1111 5.73242 20.5889 5.92131 20.9667 6.29909C21.3444 6.67687 21.5333 7.15464 21.5333 7.73242V24.2658C21.5333 24.8435 21.3444 25.3213 20.9667 25.6991C20.5889 26.0769 20.1111 26.2658 19.5333 26.2658H3Z" fill="#1C1B1F"/>
</g>
</svg>
