<svg width="33" height="32" viewBox="0 0 33 32" fill="none" xmlns="http://www.w3.org/2000/svg">
<mask id="mask0_9289_8179" style="mask-type:alpha" maskUnits="userSpaceOnUse" x="0" y="0" width="33" height="32">
<rect x="0.5" width="32" height="32" fill="#D9D9D9"/>
</mask>
<g mask="url(#mask0_9289_8179)">
<path d="M1 22.6663V21.6663C1.64444 21.5552 2.15556 21.3274 2.53333 20.9829C2.91111 20.6385 3.6 20.4663 4.6 20.4663C5.66667 20.4663 6.43889 20.6885 6.91667 21.1329C7.39444 21.5774 8.1 21.7996 9.03333 21.7996C9.96667 21.7996 10.6722 21.5774 11.15 21.1329C11.6278 20.6885 12.4 20.4663 13.4667 20.4663C14.5333 20.4663 15.3056 20.6885 15.7833 21.1329C16.2611 21.5774 16.9667 21.7996 17.9 21.7996C18.8333 21.7996 19.5389 21.5774 20.0167 21.1329C20.4944 20.6885 21.2667 20.4663 22.3333 20.4663C23.3333 20.4663 24.0222 20.6385 24.4 20.9829C24.7778 21.3274 25.2889 21.5552 25.9333 21.6663V22.6663C25.2667 22.5329 24.6944 22.2885 24.2167 21.9329C23.7389 21.5774 23.1111 21.3996 22.3333 21.3996C21.4222 21.3996 20.7222 21.6218 20.2333 22.0663C19.7444 22.5107 18.9667 22.7329 17.9 22.7329C16.8333 22.7329 16.0611 22.5107 15.5833 22.0663C15.1056 21.6218 14.4 21.3996 13.4667 21.3996C12.5333 21.3996 11.8278 21.6218 11.35 22.0663C10.8722 22.5107 10.1 22.7329 9.03333 22.7329C7.96667 22.7329 7.18889 22.5107 6.7 22.0663C6.21111 21.6218 5.51111 21.3996 4.6 21.3996C3.8 21.3996 3.17778 21.5774 2.73333 21.9329C2.28889 22.2885 1.71111 22.5329 1 22.6663ZM1 17.7329V16.7329C1.64444 16.6218 2.15556 16.3941 2.53333 16.0496C2.91111 15.7052 3.6 15.5329 4.6 15.5329C5.66667 15.5329 6.43889 15.7552 6.91667 16.1996C7.39444 16.6441 8.1 16.8663 9.03333 16.8663C9.96667 16.8663 10.6722 16.6441 11.15 16.1996C11.6278 15.7552 12.4 15.5329 13.4667 15.5329C14.5333 15.5329 15.3056 15.7552 15.7833 16.1996C16.2611 16.6441 16.9667 16.8663 17.9 16.8663C18.8333 16.8663 19.5389 16.6441 20.0167 16.1996C20.4944 15.7552 21.2667 15.5329 22.3333 15.5329C23.3333 15.5329 24.0222 15.7052 24.4 16.0496C24.7778 16.3941 25.2889 16.6218 25.9333 16.7329V17.7329C25.2667 17.5996 24.6944 17.3552 24.2167 16.9996C23.7389 16.6441 23.1111 16.4663 22.3333 16.4663C21.4222 16.4663 20.7222 16.6885 20.2333 17.1329C19.7444 17.5774 18.9667 17.7996 17.9 17.7996C16.8333 17.7996 16.0611 17.5774 15.5833 17.1329C15.1056 16.6885 14.4 16.4663 13.4667 16.4663C12.5333 16.4663 11.8278 16.6885 11.35 17.1329C10.8722 17.5774 10.1 17.7996 9.03333 17.7996C7.96667 17.7996 7.18889 17.5774 6.7 17.1329C6.21111 16.6885 5.51111 16.4663 4.6 16.4663C3.8 16.4663 3.17778 16.6441 2.73333 16.9996C2.28889 17.3552 1.71111 17.5996 1 17.7329ZM1 12.7996V11.7996C1.64444 11.6885 2.15556 11.4607 2.53333 11.1163C2.91111 10.7718 3.6 10.5996 4.6 10.5996C5.66667 10.5996 6.43889 10.8218 6.91667 11.2663C7.39444 11.7107 8.1 11.9329 9.03333 11.9329C9.96667 11.9329 10.6722 11.7107 11.15 11.2663C11.6278 10.8218 12.4 10.5996 13.4667 10.5996C14.5333 10.5996 15.3056 10.8218 15.7833 11.2663C16.2611 11.7107 16.9667 11.9329 17.9 11.9329C18.8333 11.9329 19.5389 11.7107 20.0167 11.2663C20.4944 10.8218 21.2667 10.5996 22.3333 10.5996C23.3333 10.5996 24.0222 10.7718 24.4 11.1163C24.7778 11.4607 25.2889 11.6885 25.9333 11.7996V12.7996C25.2667 12.6663 24.6944 12.4218 24.2167 12.0663C23.7389 11.7107 23.1111 11.5329 22.3333 11.5329C21.4222 11.5329 20.7222 11.7552 20.2333 12.1996C19.7444 12.6441 18.9667 12.8663 17.9 12.8663C16.8333 12.8663 16.0611 12.6441 15.5833 12.1996C15.1056 11.7552 14.4 11.5329 13.4667 11.5329C12.5333 11.5329 11.8278 11.7552 11.35 12.1996C10.8722 12.6441 10.1 12.8663 9.03333 12.8663C7.96667 12.8663 7.18889 12.6441 6.7 12.1996C6.21111 11.7552 5.51111 11.5329 4.6 11.5329C3.8 11.5329 3.16667 11.7107 2.7 12.0663C2.23333 12.4218 1.66667 12.6663 1 12.7996Z" fill="#1C1B1F"/>
</g>
</svg>
