<svg width="33" height="32" viewBox="0 0 33 32" fill="none" xmlns="http://www.w3.org/2000/svg">
<mask id="mask0_1886_4431" style="mask-type:alpha" maskUnits="userSpaceOnUse" x="0" y="0" width="33" height="32">
<rect x="0.5" width="32" height="32" fill="#D9D9D9"/>
</mask>
<g mask="url(#mask0_1886_4431)">
<path d="M3.39767 22.1333C3.13256 22.1333 2.91111 22.0436 2.73333 21.8643C2.55556 21.6849 2.46667 21.4627 2.46667 21.1976C2.46667 20.9325 2.55633 20.7111 2.73567 20.5333C2.915 20.3555 3.13722 20.2666 3.40233 20.2666C3.66744 20.2666 3.88889 20.3563 4.06667 20.5356C4.24444 20.7149 4.33333 20.9372 4.33333 21.2023C4.33333 21.4674 4.24367 21.6888 4.06433 21.8666C3.885 22.0444 3.66278 22.1333 3.39767 22.1333ZM8.59767 22.1333C8.33256 22.1333 8.11111 22.0436 7.93333 21.8643C7.75556 21.6849 7.66667 21.4627 7.66667 21.1976C7.66667 20.9325 7.75633 20.7111 7.93567 20.5333C8.115 20.3555 8.33722 20.2666 8.60233 20.2666C8.86744 20.2666 9.08889 20.3563 9.26667 20.5356C9.44444 20.7149 9.53333 20.9372 9.53333 21.2023C9.53333 21.4674 9.44367 21.6888 9.26433 21.8666C9.085 22.0444 8.86278 22.1333 8.59767 22.1333ZM13.7977 22.1333C13.5326 22.1333 13.3111 22.0436 13.1333 21.8643C12.9556 21.6849 12.8667 21.4627 12.8667 21.1976C12.8667 20.9325 12.9563 20.7111 13.1357 20.5333C13.315 20.3555 13.5372 20.2666 13.8023 20.2666C14.0674 20.2666 14.2889 20.3563 14.4667 20.5356C14.6444 20.7149 14.7333 20.9372 14.7333 21.2023C14.7333 21.4674 14.6437 21.6888 14.4643 21.8666C14.285 22.0444 14.0628 22.1333 13.7977 22.1333ZM1 16.9333V15.9999C1 13.9777 1.69444 12.2388 3.08333 10.7833C4.47222 9.32772 6.15556 8.53328 8.13333 8.39994V5.73328H9.06667V8.39994C11.0444 8.53328 12.7278 9.32772 14.1167 10.7833C15.5056 12.2388 16.2 13.9777 16.2 15.9999V16.9333H1ZM1.93333 15.9999H15.2667C15.2667 14.1555 14.6167 12.5833 13.3167 11.2833C12.0167 9.98328 10.4444 9.33328 8.6 9.33328C6.75556 9.33328 5.18333 9.98328 3.88333 11.2833C2.58333 12.5833 1.93333 14.1555 1.93333 15.9999ZM3.39767 25.9999C3.13256 25.9999 2.91111 25.9103 2.73333 25.7309C2.55556 25.5516 2.46667 25.3294 2.46667 25.0643C2.46667 24.7992 2.55633 24.5777 2.73567 24.3999C2.915 24.2222 3.13722 24.1333 3.40233 24.1333C3.66744 24.1333 3.88889 24.2229 4.06667 24.4023C4.24444 24.5816 4.33333 24.8038 4.33333 25.0689C4.33333 25.3341 4.24367 25.5555 4.06433 25.7333C3.885 25.9111 3.66278 25.9999 3.39767 25.9999ZM8.59767 25.9999C8.33256 25.9999 8.11111 25.9103 7.93333 25.7309C7.75556 25.5516 7.66667 25.3294 7.66667 25.0643C7.66667 24.7992 7.75633 24.5777 7.93567 24.3999C8.115 24.2222 8.33722 24.1333 8.60233 24.1333C8.86744 24.1333 9.08889 24.2229 9.26667 24.4023C9.44444 24.5816 9.53333 24.8038 9.53333 25.0689C9.53333 25.3341 9.44367 25.5555 9.26433 25.7333C9.085 25.9111 8.86278 25.9999 8.59767 25.9999ZM13.7977 25.9999C13.5326 25.9999 13.3111 25.9103 13.1333 25.7309C12.9556 25.5516 12.8667 25.3294 12.8667 25.0643C12.8667 24.7992 12.9563 24.5777 13.1357 24.3999C13.315 24.2222 13.5372 24.1333 13.8023 24.1333C14.0674 24.1333 14.2889 24.2229 14.4667 24.4023C14.6444 24.5816 14.7333 24.8038 14.7333 25.0689C14.7333 25.3341 14.6437 25.5555 14.4643 25.7333C14.285 25.9111 14.0628 25.9999 13.7977 25.9999Z" fill="#231F20"/>
</g>
</svg>
