<svg width="33" height="32" viewBox="0 0 33 32" fill="none" xmlns="http://www.w3.org/2000/svg">
<mask id="mask0_9289_8191" style="mask-type:alpha" maskUnits="userSpaceOnUse" x="0" y="0" width="33" height="32">
<rect x="0.5" width="32" height="32" fill="#D9D9D9"/>
</mask>
<g mask="url(#mask0_9289_8191)">
<path d="M5 26.7342V22.7342H1V21.8009H5V16.4676H1V15.5342H5V10.2009H1V9.26758H5V5.26758H5.93333V9.26758H11.2667V5.26758H12.2V9.26758H17.5333V5.26758H18.4667V9.26758H22.4667V10.2009H18.4667V15.5342H22.4667V16.4676H18.4667V21.8009H22.4667V22.7342H18.4667V26.7342H17.5333V22.7342H12.2V26.7342H11.2667V22.7342H5.93333V26.7342H5ZM5.93333 21.8009H11.2667V16.4676H5.93333V21.8009ZM12.2 21.8009H17.5333V16.4676H12.2V21.8009ZM5.93333 15.5342H11.2667V10.2009H5.93333V15.5342ZM12.2 15.5342H17.5333V10.2009H12.2V15.5342Z" fill="#1C1B1F"/>
</g>
</svg>
