<svg width="33" height="32" viewBox="0 0 33 32" fill="none" xmlns="http://www.w3.org/2000/svg">
<mask id="mask0_1886_3855" style="mask-type:alpha" maskUnits="userSpaceOnUse" x="0" y="0" width="33" height="32">
<rect x="0.5" width="32" height="32" fill="#D9D9D9"/>
</mask>
<g mask="url(#mask0_1886_3855)">
<path d="M9.63463 23.1333L13.1346 16.5333H10.568V11.5333L7.06797 18.1333H9.63463V23.1333ZM10.0952 27.6C7.5437 27.6 5.41797 26.7211 3.71797 24.9634C2.01797 23.2057 1.16797 21.0179 1.16797 18.4C1.16797 16.5778 1.90686 14.55 3.38464 12.3167C4.86241 10.0833 7.1013 7.62224 10.1013 4.93335C13.1013 7.62224 15.3402 10.0833 16.818 12.3167C18.2957 14.55 19.0346 16.5778 19.0346 18.4C19.0346 21.0179 18.1826 23.2057 16.4785 24.9634C14.7744 26.7211 12.6466 27.6 10.0952 27.6ZM10.1013 26.6667C12.4124 26.6667 14.3235 25.8833 15.8346 24.3167C17.3457 22.75 18.1013 20.7778 18.1013 18.4C18.1013 16.7778 17.4291 14.9445 16.0846 12.9C14.7402 10.8556 12.7457 8.62224 10.1013 6.20002C7.45686 8.62224 5.46241 10.8556 4.11797 12.9C2.77352 14.9445 2.1013 16.7778 2.1013 18.4C2.1013 20.7778 2.85686 22.75 4.36797 24.3167C5.87908 25.8833 7.79019 26.6667 10.1013 26.6667Z" fill="#231F20"/>
</g>
</svg>
