<svg width="33" height="32" viewBox="0 0 33 32" fill="none" xmlns="http://www.w3.org/2000/svg">
<mask id="mask0_5586_4999" style="mask-type:alpha" maskUnits="userSpaceOnUse" x="0" y="0" width="33" height="32">
<rect x="0.5" width="32" height="32" fill="#D9D9D9"/>
</mask>
<g mask="url(#mask0_5586_4999)">
<path d="M3 26.2667C2.44444 26.2667 1.97222 26.0723 1.58333 25.6834C1.19444 25.2945 1 24.8223 1 24.2667V7.7334C1 7.17784 1.19444 6.70562 1.58333 6.31673C1.97222 5.92784 2.44444 5.7334 3 5.7334H19.5333C20.0889 5.7334 20.5611 5.92784 20.95 6.31673C21.3389 6.70562 21.5333 7.17784 21.5333 7.7334V24.2667C21.5333 24.8223 21.3389 25.2945 20.95 25.6834C20.5611 26.0723 20.0889 26.2667 19.5333 26.2667H3ZM11.7333 16.4667V25.3334H19.5333C19.8444 25.3334 20.1 25.2334 20.3 25.0334C20.5 24.8334 20.6 24.5778 20.6 24.2667V16.4667H11.7333ZM11.7333 15.5334H20.6V7.7334C20.6 7.42229 20.5 7.16673 20.3 6.96673C20.1 6.76673 19.8444 6.66673 19.5333 6.66673H11.7333V15.5334ZM10.8 15.5334V6.66673H3C2.68889 6.66673 2.43333 6.76673 2.23333 6.96673C2.03333 7.16673 1.93333 7.42229 1.93333 7.7334V15.5334H10.8ZM10.8 16.4667H1.93333V24.2667C1.93333 24.5778 2.03333 24.8334 2.23333 25.0334C2.43333 25.2334 2.68889 25.3334 3 25.3334H10.8V16.4667Z" fill="#1C1B1F"/>
</g>
</svg>
