<svg width="61" height="60" viewBox="0 0 61 60" fill="none" xmlns="http://www.w3.org/2000/svg">
<mask id="mask0_7149_4317" style="mask-type:alpha" maskUnits="userSpaceOnUse" x="0" y="0" width="61" height="60">
<rect x="0.5" width="60" height="60" fill="#D9D9D9"/>
</mask>
<g mask="url(#mask0_7149_4317)">
<path d="M51.25 51.75L42.0625 42.5625V50.6875H40.6875V40.1875H51.1875V41.5625H43L52.1875 50.75L51.25 51.75ZM30.5 51.75C27.4912 51.75 24.6638 51.1777 22.0175 50.0331C19.3713 48.8885 17.0694 47.3352 15.1119 45.373C13.1544 43.4109 11.6047 41.1168 10.4628 38.4909C9.32094 35.8649 8.75 33.059 8.75 30.0734C8.75 27.0039 9.32065 24.1569 10.4619 21.5323C11.6033 18.9076 13.1522 16.6091 15.1087 14.6367C17.0652 12.6644 19.366 11.1069 22.0109 9.96413C24.6558 8.82138 27.4819 8.25 30.4891 8.25C33.4964 8.25 36.3241 8.82094 38.9724 9.96281C41.6207 11.1047 43.9243 12.661 45.8833 14.6319C47.8423 16.6027 49.3931 18.8995 50.5359 21.5221C51.6786 24.1448 52.25 26.9915 52.25 30.0625C52.25 30.6875 52.2292 31.3229 52.1875 31.9688C52.1458 32.6146 52.0625 33.2708 51.9375 33.9375H50.4375C50.6042 33.2847 50.7188 32.6319 50.7812 31.9792C50.8438 31.3264 50.875 30.6813 50.875 30.0438C50.875 29.0035 50.7928 27.9424 50.6284 26.8604C50.4641 25.7785 50.2099 24.7208 49.8661 23.6875H38.875C39.0833 24.7292 39.2292 25.7795 39.3125 26.8386C39.3958 27.8976 39.4375 28.9566 39.4375 30.0156C39.4375 30.6719 39.4271 31.3264 39.4062 31.9792C39.3854 32.6319 39.3542 33.2847 39.3125 33.9375H37.875C37.9375 33.2708 37.9844 32.619 38.0156 31.9821C38.0469 31.3453 38.0625 30.7084 38.0625 30.0714C38.0625 29.0005 38.0208 27.9295 37.9375 26.8586C37.8542 25.7877 37.7145 24.7307 37.5186 23.6875H23.5265C23.3422 24.7292 23.1979 25.7812 23.0938 26.8438C22.9896 27.9062 22.9375 28.9688 22.9375 30.0313C22.9375 31.0938 22.9896 32.1458 23.0938 33.1875C23.1979 34.2292 23.3336 35.2708 23.5009 36.3125H35.1875V37.6875H23.8125C24.4942 40.0594 25.3417 42.3503 26.355 44.5602C27.3683 46.7701 28.75 48.75 30.5 50.5C31.1805 50.5 31.8403 50.4688 32.4792 50.4063C33.1181 50.3438 33.7708 50.25 34.4375 50.125V51.375C33.7708 51.5 33.1181 51.5938 32.4792 51.6563C31.8403 51.7188 31.1805 51.75 30.5 51.75ZM11.1113 36.3125H22.125C21.9375 35.2708 21.7969 34.2292 21.7031 33.1875C21.6094 32.1458 21.5625 31.1042 21.5625 30.0625C21.5625 28.9896 21.6042 27.9201 21.6875 26.8542C21.7708 25.7882 21.9167 24.7326 22.125 23.6875H11.1318C10.7879 24.7208 10.5342 25.7767 10.3705 26.8552C10.2068 27.9337 10.125 29.0122 10.125 30.0906C10.125 31.1135 10.202 32.1493 10.3559 33.1979C10.5099 34.2465 10.7617 35.2847 11.1113 36.3125ZM11.5 22.3125H22.3199C22.8983 19.9375 23.6875 17.6562 24.6875 15.4688C25.6875 13.2812 27.0208 11.2917 28.6875 9.5C24.8542 9.95833 21.4271 11.3333 18.4062 13.625C15.3854 15.9167 13.0833 18.8125 11.5 22.3125ZM28.625 50.5C27.125 48.625 25.8542 46.6042 24.8125 44.4375C23.7708 42.2708 22.9583 40.0208 22.375 37.6875H11.5C13.0417 41.1875 15.3333 44.0833 18.375 46.375C21.4167 48.6667 24.8333 50.0417 28.625 50.5ZM23.8125 22.3125H37.1875C36.6042 19.9375 35.7536 17.6681 34.6358 15.5044C33.5179 13.3406 32.1393 11.3391 30.5 9.5C28.8333 11.2917 27.4479 13.2812 26.3438 15.4688C25.2396 17.6562 24.3958 19.9375 23.8125 22.3125ZM38.6746 22.3125H49.5C47.9167 18.8125 45.6114 15.9045 42.5841 13.5886C39.5569 11.2727 36.1538 9.90979 32.375 9.5C33.875 11.375 35.1155 13.4014 36.0966 15.5793C37.0776 17.7571 37.937 20.0015 38.6746 22.3125Z" fill="#231F20"/>
</g>
</svg>
