<svg width="60" height="60" viewBox="0 0 60 60" fill="none" xmlns="http://www.w3.org/2000/svg">
<mask id="mask0_5392_2742" style="mask-type:alpha" maskUnits="userSpaceOnUse" x="0" y="0" width="60" height="60">
<rect width="60" height="60" fill="#D9D9D9"/>
</mask>
<g mask="url(#mask0_5392_2742)">
<path d="M23.0625 53.625C21.1458 53.625 19.4688 52.9896 18.0313 51.7188C16.5938 50.4479 15.6875 48.875 15.3125 47C14.8542 47.875 14.1979 48.5521 13.3438 49.0313C12.4896 49.5104 11.5625 49.75 10.5625 49.75C8.97917 49.75 7.63542 49.1996 6.53125 48.0988C5.42708 46.9983 4.875 45.6529 4.875 44.0625C4.875 42.5208 5.40625 41.1875 6.46875 40.0625C7.53125 38.9375 8.89583 38.4167 10.5625 38.5C9.60417 37.75 8.83333 36.7917 8.25 35.625C7.66667 34.4583 7.375 33.25 7.375 32C7.375 30.7388 7.67708 29.5483 8.28125 28.4288C8.88542 27.3096 9.75 26.3958 10.875 25.6875C11.0021 25.8583 11.1275 26.0573 11.2513 26.2844C11.3754 26.5115 11.4792 26.7292 11.5625 26.9375C10.6458 27.5625 9.95833 28.3369 9.5 29.2606C9.04167 30.184 8.8125 31.1179 8.8125 32.0625C8.8125 34.8125 9.79167 36.6042 11.75 37.4375C13.7083 38.2708 15.7708 38.8958 17.9375 39.3125L18.125 39.8125C17.6667 41.1458 17.3021 42.2813 17.0312 43.2188C16.7604 44.1563 16.625 45.0208 16.625 45.8125C16.625 47.5042 17.2554 48.9896 18.5163 50.2688C19.7775 51.5479 21.2929 52.1875 23.0625 52.1875C24.8958 52.1875 26.4167 51.5313 27.625 50.2188C28.8333 48.9063 29.8125 47.3333 30.5625 45.5C31.3125 43.6667 31.8958 41.7604 32.3125 39.7813C32.7292 37.8021 33.0833 36.1667 33.375 34.875L34.75 35.3125C34.4583 36.8542 34.0833 38.6771 33.625 40.7812C33.1667 42.8854 32.5208 44.8854 31.6875 46.7813C30.8542 48.6771 29.7458 50.2917 28.3625 51.625C26.9792 52.9583 25.2125 53.625 23.0625 53.625ZM10.5625 48.375C11.7708 48.375 12.7917 47.9583 13.625 47.125C14.4583 46.2917 14.875 45.2708 14.875 44.0625C14.875 42.8958 14.4583 41.8854 13.625 41.0313C12.7917 40.1771 11.7708 39.75 10.5625 39.75C9.39583 39.75 8.38542 40.1771 7.53125 41.0313C6.67708 41.8854 6.25 42.8958 6.25 44.0625C6.25 45.2708 6.67708 46.2917 7.53125 47.125C8.38542 47.9583 9.39583 48.375 10.5625 48.375ZM25.3125 37.375C23.6875 35.9167 22.2083 34.5625 20.875 33.3125C19.5417 32.0625 18.3802 30.8229 17.3906 29.5938C16.4015 28.3646 15.641 27.1458 15.1094 25.9375C14.5781 24.7292 14.3125 23.4583 14.3125 22.125C14.3125 19.9154 15.0727 18.061 16.5931 16.5619C18.1131 15.0623 19.9571 14.3125 22.125 14.3125C22.7083 14.3125 23.2604 14.3438 23.7812 14.4063C24.3021 14.4688 24.7708 14.5833 25.1875 14.75C24.8958 14.2917 24.6771 13.84 24.5312 13.395C24.3854 12.9504 24.3125 12.5063 24.3125 12.0625C24.3125 10.4721 24.8621 9.12667 25.9613 8.02625C27.0604 6.92542 28.4042 6.375 29.9925 6.375C31.5808 6.375 32.9271 6.92542 34.0312 8.02625C35.1354 9.12667 35.6875 10.4721 35.6875 12.0625C35.6875 12.5208 35.6146 12.9688 35.4688 13.4063C35.3229 13.8438 35.1042 14.2917 34.8125 14.75C35.2292 14.5833 35.6979 14.4688 36.2188 14.4063C36.7396 14.3438 37.2917 14.3125 37.875 14.3125C39.5417 14.3125 41.0104 14.75 42.2812 15.625C43.5521 16.5 44.4792 17.6667 45.0625 19.125H44.3169C44.0223 19.125 43.7708 19.1458 43.5625 19.1875C43.0625 18.1042 42.3125 17.25 41.3125 16.625C40.3125 16 39.1758 15.6875 37.9025 15.6875C36.3008 15.6875 35.0104 16.0833 34.0312 16.875C33.0521 17.6667 31.7917 18.9583 30.25 20.75H29.6875C28.1458 18.9167 26.8854 17.6146 25.9062 16.8438C24.9271 16.0729 23.6667 15.6875 22.125 15.6875C20.2817 15.6875 18.7479 16.2996 17.5238 17.5238C16.2996 18.7479 15.6875 20.2817 15.6875 22.125C15.6875 23.0967 15.9271 24.1 16.4062 25.135C16.8854 26.17 17.5802 27.2708 18.4906 28.4375C19.401 29.6042 20.5156 30.8438 21.8344 32.1563C23.1531 33.4688 24.6458 34.875 26.3125 36.375L25.3125 37.375ZM30 16.375C31.2083 16.375 32.2292 15.9583 33.0625 15.125C33.8958 14.2917 34.3125 13.2708 34.3125 12.0625C34.3125 10.8542 33.8958 9.83333 33.0625 9C32.2292 8.16667 31.2083 7.75 30 7.75C28.7917 7.75 27.7708 8.16667 26.9375 9C26.1042 9.83333 25.6875 10.8542 25.6875 12.0625C25.6875 13.2708 26.1042 14.2917 26.9375 15.125C27.7708 15.9583 28.7917 16.375 30 16.375ZM36.75 53.6875C36.2537 53.6875 35.7633 53.6321 35.2788 53.5213C34.7938 53.4104 34.3258 53.2575 33.875 53.0625C33.9554 52.8896 34.0671 52.6785 34.21 52.4294C34.3529 52.1798 34.4704 51.9533 34.5625 51.75C34.9479 51.9038 35.3333 52.0256 35.7188 52.1156C36.1042 52.2052 36.4896 52.25 36.875 52.25C38.625 52.25 40.1354 51.6123 41.4062 50.3369C42.6771 49.0619 43.3125 47.5538 43.3125 45.8125C43.3125 45.0333 43.1667 44.1823 42.875 43.2594C42.5833 42.3365 42.2292 41.2083 41.8125 39.875L42.0625 39.4375C44.3125 39.0208 46.3958 38.3854 48.3125 37.5313C50.2292 36.6771 51.1875 34.875 51.1875 32.125C51.1875 29.9583 50.4375 28.3333 48.9375 27.25C47.4375 26.1667 45.7083 25.625 43.75 25.625C42.0908 25.625 40.1448 25.8958 37.9119 26.4375C35.679 26.9792 33.125 27.7292 30.25 28.6875L29.875 27.3125C32.5833 26.4375 35.0571 25.6875 37.2962 25.0625C39.5358 24.4375 41.5621 24.125 43.375 24.125C45.75 24.125 47.875 24.8125 49.75 26.1875C51.625 27.5625 52.5625 29.5417 52.5625 32.125C52.5625 33.3571 52.2917 34.5298 51.75 35.6431C51.2083 36.756 50.4375 37.7083 49.4375 38.5C51.1042 38.4583 52.4688 38.9896 53.5312 40.0938C54.5938 41.1979 55.125 42.5208 55.125 44.0625C55.125 45.6458 54.5729 47 53.4688 48.125C52.3646 49.25 51.0208 49.8125 49.4375 49.8125C48.4375 49.8125 47.5104 49.5729 46.6562 49.0938C45.8021 48.6146 45.1458 47.9167 44.6875 47C44.2708 48.875 43.3333 50.4583 41.875 51.75C40.4167 53.0417 38.7083 53.6875 36.75 53.6875ZM49.5 48.4375C50.6667 48.4375 51.6667 48.0104 52.5 47.1563C53.3333 46.3021 53.75 45.2917 53.75 44.125C53.75 42.9583 53.3229 41.9375 52.4688 41.0625C51.6146 40.1875 50.6042 39.75 49.4375 39.75C48.2708 39.75 47.2604 40.1771 46.4063 41.0313C45.5521 41.8854 45.125 42.8958 45.125 44.0625C45.125 45.2292 45.5625 46.25 46.4375 47.125C47.3125 48 48.3333 48.4375 49.5 48.4375Z" fill="#1C1B1F"/>
</g>
</svg>
