<svg width="60" height="60" viewBox="0 0 60 60" fill="none" xmlns="http://www.w3.org/2000/svg">
<mask id="mask0_5392_2715" style="mask-type:alpha" maskUnits="userSpaceOnUse" x="0" y="0" width="60" height="60">
<rect width="60" height="60" fill="#D9D9D9"/>
</mask>
<g mask="url(#mask0_5392_2715)">
<path d="M35.875 30.5625H45V29.1875H35.875V30.5625ZM35.875 23.8125H45V22.4375H35.875V23.8125ZM15 37.75H30.5V37.6875C30.5 36.3958 29.8333 35.3958 28.5 34.6875C27.1667 33.9792 25.25 33.625 22.75 33.625C20.25 33.625 18.3333 33.9792 17 34.6875C15.6667 35.3958 15 36.3958 15 37.6875V37.75ZM22.7423 28.75C23.6641 28.75 24.4375 28.4401 25.0625 27.8203C25.6875 27.2004 26 26.4296 26 25.5078C26 24.5859 25.6901 23.8125 25.0702 23.1875C24.4504 22.5625 23.6796 22.25 22.7578 22.25C21.8359 22.25 21.0625 22.5599 20.4375 23.1797C19.8125 23.7996 19.5 24.5704 19.5 25.4922C19.5 26.4141 19.8099 27.1875 20.4298 27.8125C21.0496 28.4375 21.8204 28.75 22.7423 28.75ZM11.625 46.75C10.676 46.75 9.87631 46.4247 9.22581 45.7742C8.57527 45.1237 8.25 44.324 8.25 43.375V16.625C8.25 15.676 8.57527 14.8763 9.22581 14.2258C9.87631 13.5753 10.676 13.25 11.625 13.25H48.375C49.324 13.25 50.1237 13.5753 50.7743 14.2258C51.4248 14.8763 51.75 15.676 51.75 16.625V43.375C51.75 44.324 51.4248 45.1237 50.7743 45.7742C50.1237 46.4247 49.324 46.75 48.375 46.75H11.625ZM11.625 45.375H48.375C48.875 45.375 49.3333 45.1667 49.75 44.75C50.1667 44.3333 50.375 43.875 50.375 43.375V16.625C50.375 16.125 50.1667 15.6667 49.75 15.25C49.3333 14.8333 48.875 14.625 48.375 14.625H11.625C11.125 14.625 10.6667 14.8333 10.25 15.25C9.83333 15.6667 9.625 16.125 9.625 16.625V43.375C9.625 43.875 9.83333 44.3333 10.25 44.75C10.6667 45.1667 11.125 45.375 11.625 45.375Z" fill="#1C1B1F"/>
</g>
</svg>
