<svg width="60" height="60" viewBox="0 0 60 60" fill="none" xmlns="http://www.w3.org/2000/svg">
<mask id="mask0_5392_2719" style="mask-type:alpha" maskUnits="userSpaceOnUse" x="0" y="0" width="60" height="60">
<rect width="60" height="60" fill="#D9D9D9"/>
</mask>
<g mask="url(#mask0_5392_2719)">
<path d="M25.5 35.4375L30 31.9375L34.375 35.3125L32.625 29.875L37.375 26.3125H31.75L30 20.8125L28.25 26.3125H22.625L27.25 29.875L25.5 35.4375ZM30 51.625C25.2083 50.0833 21.2188 47.0938 18.0312 42.6562C14.8438 38.2188 13.25 33.2083 13.25 27.625V14.75L30 8.5L46.75 14.75V27.625C46.75 33.2083 45.1562 38.2188 41.9688 42.6562C38.7812 47.0938 34.7917 50.0833 30 51.625ZM30 50.125C34.4583 48.7083 38.1354 45.8958 41.0312 41.6875C43.9271 37.4792 45.375 32.7917 45.375 27.625V15.6875L30 9.9375L14.625 15.6875V27.625C14.625 32.7917 16.0729 37.4792 18.9688 41.6875C21.8646 45.8958 25.5417 48.7083 30 50.125Z" fill="#1C1B1F"/>
</g>
</svg>
