<svg width="60" height="60" viewBox="0 0 60 60" fill="none" xmlns="http://www.w3.org/2000/svg">
<mask id="mask0_5392_2752" style="mask-type:alpha" maskUnits="userSpaceOnUse" x="0" y="0" width="60" height="60">
<rect width="60" height="60" fill="#D9D9D9"/>
</mask>
<g mask="url(#mask0_5392_2752)">
<path d="M30 51.75C27.2083 49.5833 24.1771 47.8646 20.9062 46.5938C17.6354 45.3229 14.25 44.5208 10.75 44.1875V22.25C14.375 22.5417 17.8333 23.5417 21.125 25.25C24.4167 26.9583 27.375 28.9792 30 31.3125C32.625 28.9792 35.5833 26.9583 38.875 25.25C42.1667 23.5417 45.625 22.5417 49.25 22.25V44.1875C45.75 44.5208 42.3646 45.3229 39.0938 46.5938C35.8229 47.8646 32.7917 49.5833 30 51.75ZM30 50.125C32.7083 48.1667 35.5625 46.5848 38.5625 45.3794C41.5625 44.174 44.6667 43.3808 47.875 43V23.8125C44.625 24.3542 41.4792 25.4167 38.4375 27C35.3958 28.5833 32.5833 30.6458 30 33.1875C27.3333 30.6042 24.5 28.5208 21.5 26.9375C18.5 25.3542 15.375 24.3125 12.125 23.8125V43C15.3333 43.3808 18.4375 44.174 21.4375 45.3794C24.4375 46.5848 27.2917 48.1667 30 50.125ZM30.0625 20.875C28.0417 20.875 26.3073 20.1615 24.8594 18.7344C23.4115 17.3073 22.6875 15.5729 22.6875 13.5312C22.6875 11.4896 23.4115 9.74479 24.8594 8.29688C26.3073 6.84896 28.0417 6.125 30.0625 6.125C32.0833 6.125 33.8177 6.84896 35.2656 8.29688C36.7135 9.74479 37.4375 11.4896 37.4375 13.5312C37.4375 15.5729 36.7135 17.3073 35.2656 18.7344C33.8177 20.1615 32.0833 20.875 30.0625 20.875ZM30.08 19.5C31.735 19.5 33.1458 18.9108 34.3125 17.7325C35.4792 16.5537 36.0625 15.1371 36.0625 13.4825C36.0625 11.8275 35.4733 10.4167 34.295 9.25C33.1162 8.08333 31.6996 7.5 30.045 7.5C28.39 7.5 26.9792 8.08917 25.8125 9.2675C24.6458 10.4463 24.0625 11.8629 24.0625 13.5175C24.0625 15.1725 24.6517 16.5833 25.83 17.75C27.0088 18.9167 28.4254 19.5 30.08 19.5Z" fill="#1C1B1F"/>
</g>
</svg>
