<svg width="61" height="60" viewBox="0 0 61 60" fill="none" xmlns="http://www.w3.org/2000/svg">
<mask id="mask0_7149_4312" style="mask-type:alpha" maskUnits="userSpaceOnUse" x="0" y="0" width="61" height="60">
<rect x="0.5" width="60" height="60" fill="#D9D9D9"/>
</mask>
<g mask="url(#mask0_7149_4312)">
<path d="M8.125 45.5V42.5625C8.125 41.4792 8.40625 40.5729 8.96875 39.8438C9.53125 39.1146 10.3322 38.519 11.3716 38.0571C13.5405 37.1024 15.5833 36.3333 17.5 35.75C19.4167 35.1667 21.8854 34.875 24.9062 34.875C27.9271 34.875 30.3854 35.1667 32.2812 35.75C34.1771 36.3333 36.2303 37.1024 38.4409 38.0571C39.4386 38.519 40.2188 39.1146 40.7812 39.8438C41.3438 40.5729 41.625 41.4792 41.625 42.5625V45.5H8.125ZM46.25 45.5V42.75C46.25 41.1667 45.9699 39.792 45.4096 38.6261C44.8493 37.4602 44.1294 36.4807 43.25 35.6875C44.4167 35.9792 45.5625 36.3229 46.6875 36.7188C47.8125 37.1146 48.855 37.5422 49.815 38.0015C50.6883 38.4588 51.4167 39.1075 52 39.9475C52.5833 40.7875 52.875 41.7217 52.875 42.75V45.5H46.25ZM24.9062 28C23.0292 28 21.4609 27.3703 20.2016 26.1109C18.9422 24.8516 18.3125 23.2833 18.3125 21.4062C18.3125 19.5292 18.9422 17.9714 20.2016 16.7328C21.4609 15.4943 23.0292 14.875 24.9062 14.875C26.7833 14.875 28.3411 15.4943 29.5797 16.7328C30.8182 17.9714 31.4375 19.5292 31.4375 21.4062C31.4375 23.2833 30.8182 24.8516 29.5797 26.1109C28.3411 27.3703 26.7833 28 24.9062 28ZM40.25 21.4062C40.25 23.2833 39.6307 24.8516 38.3922 26.1109C37.1536 27.3703 35.5884 28 33.6964 28H33.875C34.5967 27.1349 35.1417 26.1452 35.5101 25.0309C35.8784 23.9167 36.0625 22.7163 36.0625 21.4297C36.0625 20.1432 35.8542 18.9688 35.4375 17.9063C35.0208 16.8438 34.5 15.8125 33.875 14.8125C33.8333 14.8542 33.8021 14.875 33.7812 14.875H33.6875C35.5854 14.875 37.1536 15.4943 38.3922 16.7328C39.6307 17.9714 40.25 19.5292 40.25 21.4062ZM9.5 44.125H40.25V42.5625C40.25 41.8958 40.0729 41.3021 39.7188 40.7812C39.3646 40.2604 38.7292 39.75 37.8125 39.25C35.8125 38.2083 33.8542 37.4479 31.9375 36.9688C30.0208 36.4896 27.6771 36.25 24.9062 36.25C22.1354 36.25 19.7917 36.4896 17.875 36.9688C15.9583 37.4479 14 38.2083 12 39.25C11.0833 39.75 10.4375 40.2604 10.0625 40.7812C9.6875 41.3021 9.5 41.8958 9.5 42.5625V44.125ZM24.875 26.625C26.3333 26.625 27.5625 26.125 28.5625 25.125C29.5625 24.125 30.0625 22.8958 30.0625 21.4375C30.0625 19.9792 29.5625 18.75 28.5625 17.75C27.5625 16.75 26.3333 16.25 24.875 16.25C23.4167 16.25 22.1875 16.75 21.1875 17.75C20.1875 18.75 19.6875 19.9792 19.6875 21.4375C19.6875 22.8958 20.1875 24.125 21.1875 25.125C22.1875 26.125 23.4167 26.625 24.875 26.625Z" fill="#231F20"/>
</g>
</svg>
