<svg width="100" height="90" viewBox="0 0 100 90" fill="none" xmlns="http://www.w3.org/2000/svg">
<g clip-path="url(#clip0_4397_1324)">
<path d="M69.8864 44.8732L46.9319 58.1625C43.5361 60.0227 39.6725 56.6235 41.0829 53.0167L54.0909 29.0277" stroke="#231F20" stroke-miterlimit="10"/>
<path d="M55.0067 54.0606L58.8503 65.3224H53.9973L50.7487 55.9208" stroke="#231F20" stroke-linecap="round" stroke-linejoin="round"/>
<path d="M78.4893 32.8553L99.5655 24.3972" stroke="#231F20" stroke-linecap="round" stroke-linejoin="round"/>
<path d="M73.4492 26.0232L79.004 19.4455" stroke="#231F20" stroke-linecap="round" stroke-linejoin="round"/>
<path d="M65.7687 22.0485L71.7379 0.434937" stroke="#231F20" stroke-linecap="round" stroke-linejoin="round"/>
<path d="M72.4809 43.4766C75.4699 40.4845 74.088 34.25 69.3944 29.5515C64.7008 24.853 58.4729 23.4697 55.4839 26.4618C52.4949 29.4539 53.8768 35.6884 58.5704 40.3869C63.264 45.0854 69.492 46.4687 72.4809 43.4766Z" stroke="#231F20" stroke-miterlimit="10"/>
<path d="M70.68 41.6739C72.771 39.5807 71.4674 34.8821 67.7684 31.1792C64.0694 27.4763 59.3757 26.1714 57.2847 28.2645C55.1937 30.3577 56.4973 35.0564 60.1963 38.7592C63.8953 42.4621 68.5891 43.7671 70.68 41.6739Z" stroke="#231F20" stroke-miterlimit="10"/>
<path d="M36.9252 85.4504L33.7434 75.9686C32.5937 72.5492 34.238 68.822 37.5335 67.37L37.9078 67.2027" stroke="#231F20" stroke-linecap="round" stroke-linejoin="round"/>
<path d="M52.032 78.7723L46.9919 69.692C45.3476 66.7343 41.7246 65.5165 38.6363 66.8815L37.9077 67.2027" stroke="#231F20" stroke-linecap="round" stroke-linejoin="round"/>
<path d="M40.2206 66.1789L35.8423 58.9856C35.4679 58.3633 34.6859 58.1224 34.0241 58.4168C33.3623 58.7112 33.0147 59.454 33.2219 60.1499L35.5816 68.2332" stroke="#231F20" stroke-linecap="round" stroke-linejoin="round"/>
<path d="M47.158 88.134C51.3219 86.293 53.6188 82.3561 52.2883 79.3406C50.9579 76.3252 46.5039 75.3731 42.34 77.2141C38.1761 79.0551 35.8792 82.9921 37.2097 86.0075C38.5401 89.023 42.9942 89.975 47.158 88.134Z" stroke="#231F20" stroke-linecap="round" stroke-linejoin="round"/>
<path d="M46.4505 86.5303C49.5675 85.1522 51.3325 82.3085 50.3928 80.1787C49.4532 78.049 46.1646 77.4397 43.0476 78.8178C39.9306 80.196 38.1656 83.0397 39.1052 85.1694C40.0449 87.2992 43.3335 87.9085 46.4505 86.5303Z" stroke="#231F20" stroke-linecap="round" stroke-linejoin="round"/>
<path d="M13.2152 61.1001L17.647 59.4807C18.7767 59.0726 20.0401 59.4607 20.7419 60.4309C21.4438 61.4079 21.4171 62.7328 20.6684 63.6763L17.754 67.3433" stroke="#231F20" stroke-linecap="round" stroke-linejoin="round"/>
<path d="M17.302 68.1076C18.2029 67.4565 17.833 65.4032 16.4759 63.5216C15.1187 61.6399 13.2882 60.6424 12.3873 61.2936C11.4863 61.9448 11.8562 63.998 13.2133 65.8797C14.5705 67.7613 16.401 68.7588 17.302 68.1076Z" stroke="#231F20" stroke-linecap="round" stroke-linejoin="round"/>
<path d="M58.8502 65.3224L60.7286 62.2042L57.5468 52.0197" stroke="#231F20" stroke-linecap="round" stroke-linejoin="round"/>
<path d="M51.2967 49.9989C52.755 49.9989 53.9371 48.8155 53.9371 47.3557C53.9371 45.896 52.755 44.7126 51.2967 44.7126C49.8385 44.7126 48.6564 45.896 48.6564 47.3557C48.6564 48.8155 49.8385 49.9989 51.2967 49.9989Z" stroke="#231F20" stroke-linecap="round" stroke-linejoin="round"/>
<path d="M34.2513 77.4809C34.2513 77.4809 34.9465 72.924 39.9599 70.9634C44.9733 69.0027 47.8209 71.1775 47.8209 71.1775" stroke="#231F20" stroke-linecap="round" stroke-linejoin="round"/>
<path d="M28.9438 51.8524C30.3877 52.2272 32.3596 55.5729 33.4157 55.6064C35.4278 55.6666 34.6323 51.5848 34.6657 50.2331C34.7727 46.0509 35.3409 41.5141 36.397 37.6531C36.758 36.3215 42.3596 27.2612 37.9478 28.4991C36.7446 28.8337 35.5347 31.6508 34.1644 32.3133C32.0855 33.3237 30.655 32.6077 28.8369 31.3028C27.3596 30.2389 26.2032 28.6798 24.2179 28.6999C21.0361 28.7333 22.373 30.6805 22.4799 32.9356C22.7406 38.3691 17.754 40.6174 13.1484 40.1557C10.0468 39.8479 2.96788 37.4523 0.835525 40.9051C-0.140411 42.4843 0.822156 45.4621 2.01868 46.7C3.73659 48.4799 5.90905 46.6866 7.31948 48.1119C9.06413 49.8718 5.82216 51.7922 7.92777 53.3313C9.4251 54.4287 12.4532 53.1439 13.8903 52.8495C17.9746 52.0063 22.139 51.103 26.27 51.3037C27.266 51.3506 28.2687 51.3439 28.9505 51.8591L28.9438 51.8524Z" stroke="#231F20" stroke-linecap="round" stroke-linejoin="round"/>
<path d="M30.1538 48.5C30.6017 47.1148 28.095 46.1044 27.1926 45.9037C25.7487 45.5825 24.2714 45.636 22.8142 45.4553C20.3811 45.1676 13.7567 43.6888 11.9319 46.2048C9.87304 49.042 16.0629 48.3929 17.3597 48.326C20.0402 48.1855 22.8209 47.1282 25.5214 47.9646C26.738 48.3461 28.0883 49.1357 29.3984 49.0821C29.6525 49.0687 29.9198 48.955 30.0468 48.7342C30.0936 48.6539 30.1271 48.5736 30.1538 48.4933V48.5Z" stroke="#231F20" stroke-linecap="round" stroke-linejoin="round"/>
<path d="M25.5748 33.6114C26.0628 38.6099 31.2834 41.4003 31.7513 45.8033" stroke="#231F20" stroke-linecap="round" stroke-linejoin="round"/>
</g>
<defs>
<clipPath id="clip0_4397_1324">
<rect width="100" height="89.5122" fill="white"/>
</clipPath>
</defs>
</svg>
