<svg width="46" height="45" viewBox="0 0 46 45" fill="none" xmlns="http://www.w3.org/2000/svg">
<g clip-path="url(#clip0_4406_5118)">
<path d="M34.7622 9.58868H10.8978C8.2418 9.58868 6.08868 11.7418 6.08868 14.3978V30.5549C6.08868 33.2109 8.2418 35.3641 10.8978 35.3641H34.7622C37.4182 35.3641 39.5713 33.2109 39.5713 30.5549V14.3978C39.5713 11.7418 37.4182 9.58868 34.7622 9.58868Z" fill="white" stroke="#231F20" stroke-width="1.3" stroke-miterlimit="10"/>
<path d="M22.8255 10.2679V35.3641" stroke="#231F20" stroke-width="1.3" stroke-miterlimit="10"/>
<path d="M28.0331 17.5405C29.3436 17.5405 30.4059 16.4781 30.4059 15.1676C30.4059 13.8571 29.3436 12.7947 28.0331 12.7947C26.7226 12.7947 25.6602 13.8571 25.6602 15.1676C25.6602 16.4781 26.7226 17.5405 28.0331 17.5405Z" fill="#231F20"/>
<path d="M34.6897 17.5405C36.0002 17.5405 37.0626 16.4781 37.0626 15.1676C37.0626 13.8571 36.0002 12.7947 34.6897 12.7947C33.3793 12.7947 32.3169 13.8571 32.3169 15.1676C32.3169 16.4781 33.3793 17.5405 34.6897 17.5405Z" fill="#231F20"/>
<path d="M28.0331 24.8492C29.3436 24.8492 30.4059 23.7869 30.4059 22.4764C30.4059 21.1659 29.3436 20.1035 28.0331 20.1035C26.7226 20.1035 25.6602 21.1659 25.6602 22.4764C25.6602 23.7869 26.7226 24.8492 28.0331 24.8492Z" fill="#231F20"/>
<path d="M34.6897 24.8492C36.0002 24.8492 37.0626 23.7869 37.0626 22.4764C37.0626 21.1659 36.0002 20.1035 34.6897 20.1035C33.3793 20.1035 32.3169 21.1659 32.3169 22.4764C32.3169 23.7869 33.3793 24.8492 34.6897 24.8492Z" fill="#231F20"/>
<path d="M28.0331 32.158C29.3436 32.158 30.4059 31.0956 30.4059 29.7851C30.4059 28.4747 29.3436 27.4123 28.0331 27.4123C26.7226 27.4123 25.6602 28.4747 25.6602 29.7851C25.6602 31.0956 26.7226 32.158 28.0331 32.158Z" fill="#231F20"/>
<path d="M34.6897 32.158C36.0002 32.158 37.0626 31.0956 37.0626 29.7851C37.0626 28.4747 36.0002 27.4123 34.6897 27.4123C33.3793 27.4123 32.3169 28.4747 32.3169 29.7851C32.3169 31.0956 33.3793 32.158 34.6897 32.158Z" fill="#231F20"/>
<path d="M22.8255 14.4521H6.08868V18.0477H22.8255V14.4521Z" fill="#231F20"/>
<path d="M22.8255 20.6832H6.08868V24.2787H22.8255V20.6832Z" fill="#231F20"/>
<path d="M22.8255 26.9051H6.08868V30.5006H22.8255V26.9051Z" fill="#231F20"/>
</g>
<defs>
<clipPath id="clip0_4406_5118">
<rect width="34.66" height="26.9527" fill="white" transform="translate(5.5 9)"/>
</clipPath>
</defs>
</svg>
