<svg width="60" height="60" viewBox="0 0 60 60" fill="none" xmlns="http://www.w3.org/2000/svg">
<g clip-path="url(#clip0_4397_1122)">
<path d="M32.31 15.65H5.96002C3.02739 15.65 0.650024 18.0274 0.650024 20.96V38.8C0.650024 41.7327 3.02739 44.11 5.96002 44.11H32.31C35.2427 44.11 37.62 41.7327 37.62 38.8V20.96C37.62 18.0274 35.2427 15.65 32.31 15.65Z" fill="white" stroke="#231F20" stroke-width="1.3" stroke-miterlimit="10"/>
<path d="M19.13 16.4V44.11" stroke="#231F20" stroke-width="1.3" stroke-miterlimit="10"/>
<path d="M24.88 24.4299C26.327 24.4299 27.5 23.2569 27.5 21.8099C27.5 20.363 26.327 19.1899 24.88 19.1899C23.433 19.1899 22.26 20.363 22.26 21.8099C22.26 23.2569 23.433 24.4299 24.88 24.4299Z" fill="#231F20"/>
<path d="M32.23 24.4299C33.677 24.4299 34.85 23.2569 34.85 21.8099C34.85 20.363 33.677 19.1899 32.23 19.1899C30.783 19.1899 29.61 20.363 29.61 21.8099C29.61 23.2569 30.783 24.4299 32.23 24.4299Z" fill="#231F20"/>
<path d="M24.88 32.5C26.327 32.5 27.5 31.327 27.5 29.88C27.5 28.433 26.327 27.26 24.88 27.26C23.433 27.26 22.26 28.433 22.26 29.88C22.26 31.327 23.433 32.5 24.88 32.5Z" fill="#231F20"/>
<path d="M32.23 32.5C33.677 32.5 34.85 31.327 34.85 29.88C34.85 28.433 33.677 27.26 32.23 27.26C30.783 27.26 29.61 28.433 29.61 29.88C29.61 31.327 30.783 32.5 32.23 32.5Z" fill="#231F20"/>
<path d="M24.88 40.57C26.327 40.57 27.5 39.3969 27.5 37.95C27.5 36.503 26.327 35.33 24.88 35.33C23.433 35.33 22.26 36.503 22.26 37.95C22.26 39.3969 23.433 40.57 24.88 40.57Z" fill="#231F20"/>
<path d="M32.23 40.57C33.677 40.57 34.85 39.3969 34.85 37.95C34.85 36.503 33.677 35.33 32.23 35.33C30.783 35.33 29.61 36.503 29.61 37.95C29.61 39.3969 30.783 40.57 32.23 40.57Z" fill="#231F20"/>
<path d="M19.13 21.02H0.650024V24.99H19.13V21.02Z" fill="#231F20"/>
<path d="M19.13 27.9H0.650024V31.87H19.13V27.9Z" fill="#231F20"/>
<path d="M19.13 34.77H0.650024V38.74H19.13V34.77Z" fill="#231F20"/>
</g>
<defs>
<clipPath id="clip0_4397_1122">
<rect width="38.27" height="29.76" fill="white" transform="translate(0 15)"/>
</clipPath>
</defs>
</svg>
