<svg width="60" height="60" viewBox="0 0 60 60" fill="none" xmlns="http://www.w3.org/2000/svg">
<path d="M32.66 14H6.31C3.37737 14 1 16.3774 1 19.31V33.75C1 36.6826 3.37737 39.06 6.31 39.06H32.66C35.5926 39.06 37.97 36.6826 37.97 33.75V19.31C37.97 16.3774 35.5926 14 32.66 14Z" stroke="#231F20" stroke-width="1.3" stroke-miterlimit="10"/>
<path d="M43.74 32.8H32.2C30.2836 32.8 28.73 34.3536 28.73 36.2701V41.8601C28.73 43.7765 30.2836 45.33 32.2 45.33H43.74C45.6564 45.33 47.21 43.7765 47.21 41.8601V36.2701C47.21 34.3536 45.6564 32.8 43.74 32.8Z" fill="white" stroke="#231F20" stroke-width="1.3" stroke-miterlimit="10"/>
</svg>
