<svg width="46" height="45" viewBox="0 0 46 45" fill="none" xmlns="http://www.w3.org/2000/svg">
<path d="M29.245 10.687H9.4825C7.28303 10.687 5.5 12.47 5.5 14.6695V25.4995C5.5 27.699 7.28303 29.482 9.4825 29.482H29.245C31.4445 29.482 33.2275 27.699 33.2275 25.4995V14.6695C33.2275 12.47 31.4445 10.687 29.245 10.687Z" stroke="#231F20" stroke-width="1.3" stroke-miterlimit="10"/>
<path d="M37.555 24.7871H28.9C27.4627 24.7871 26.2975 25.9523 26.2975 27.3896V31.5821C26.2975 33.0194 27.4627 34.1846 28.9 34.1846H37.555C38.9923 34.1846 40.1575 33.0194 40.1575 31.5821V27.3896C40.1575 25.9523 38.9923 24.7871 37.555 24.7871Z" fill="white" stroke="#231F20" stroke-width="1.3" stroke-miterlimit="10"/>
</svg>
