<svg width="46" height="45" viewBox="0 0 46 45" fill="none" xmlns="http://www.w3.org/2000/svg">
<g clip-path="url(#clip0_4406_5147)">
<path d="M33.2278 10.5377H11.4303C9.00432 10.5377 7.03769 12.5043 7.03769 14.9303V29.6881C7.03769 32.114 9.00432 34.0807 11.4303 34.0807H33.2278C35.6538 34.0807 37.6204 32.114 37.6204 29.6881V14.9303C37.6204 12.5043 35.6538 10.5377 33.2278 10.5377Z" fill="white" stroke="#231F20" stroke-width="1.3" stroke-miterlimit="10"/>
<path d="M12.2492 14.9799H32.4088" stroke="#231F20" stroke-width="1.3" stroke-miterlimit="10"/>
<path d="M12.2492 19.4966H32.4088" stroke="#231F20" stroke-width="1.3" stroke-miterlimit="10"/>
<path d="M12.2492 24.005H32.4088" stroke="#231F20" stroke-width="1.3" stroke-miterlimit="10"/>
<path d="M14.3504 30.4739C14.9874 29.5226 15.7567 27.5455 17.1713 27.6448C17.3367 28.0502 17.3615 28.4969 17.2457 28.9105C17.3781 28.7947 17.709 28.654 17.8248 28.5382C17.709 28.9436 17.7007 29.382 17.8248 29.7956C18.6768 29.6053 19.0987 28.472 20.0252 28.2818C20.0087 28.8112 19.868 29.3241 20.0252 29.8204C21.3736 29.7129 22.358 28.2818 23.392 27.4959C23.392 28.2404 23.1521 29.0263 23.5492 29.6798C24.3103 29.3489 24.9307 28.8939 25.7248 28.8526C26.6017 28.8029 27.4868 29.2414 28.4133 28.4472C28.463 28.7781 28.7194 28.9105 28.8187 29.1835" stroke="#231F20" stroke-width="1.3" stroke-linecap="round" stroke-linejoin="round"/>
<path d="M39.6223 15.6334H35.7426" stroke="#231F20" stroke-width="1.3" stroke-linecap="round" stroke-linejoin="round"/>
<path d="M39.6223 19.5628H35.7426" stroke="#231F20" stroke-width="1.3" stroke-linecap="round" stroke-linejoin="round"/>
<path d="M39.6223 23.4921H35.7426" stroke="#231F20" stroke-width="1.3" stroke-linecap="round" stroke-linejoin="round"/>
<path d="M39.6223 27.4214H35.7426" stroke="#231F20" stroke-width="1.3" stroke-linecap="round" stroke-linejoin="round"/>
</g>
<defs>
<clipPath id="clip0_4406_5147">
<rect width="33.66" height="24.6184" fill="white" transform="translate(6.5 10)"/>
</clipPath>
</defs>
</svg>
