<svg xmlns="http://www.w3.org/2000/svg" viewBox="0 0 451.8 555.2"><g fill="#f2e2d7"><path d="M225.9 555.2q-69.7 0-120.4-12.9t-78.1-36Q0 483.4 0 452.9a59.6 59.6 0 0 1 2.3-16.4c3.7 13.5 12 25.8 25.1 36.8q27.5 23.1 78.1 36t120.4 12.9"/><path d="M225.9 555.2q69.9 0 120.5-12.9t78-36q27.5-22.9 27.4-53.4a63.6 63.6 0 0 0-2.2-16.4q-5.6 20.3-25.2 36.8-27.4 23.1-78 36t-120.5 12.9m0-209.1q69.9 0 120.5 12.9t78 36q27.5 23 27.4 53.4a63.6 63.6 0 0 1-2.2 16.4q-5.6-20.2-25.2-36.8-27.4-23.1-78-36t-120.5-12.9"/><path d="M225.9 313.1q-69.7 0-120.4 12.9t-78.1 36Q0 385 0 415.4a59.6 59.6 0 0 0 2.3 16.4C6 418.3 14.3 406 27.4 395q27.5-23.1 78.1-36t120.4-12.9"/><path d="M225.9 344.9q-69.7 0-120.4-13T27.4 296Q0 272.9 0 242.5a60.1 60.1 0 0 1 2.3-16.4C6 239.6 14.3 252 27.4 263q27.5 23 78.1 35.9t120.4 13"/><path d="M225.9 344.9q69.9 0 120.5-13t78-35.9q27.5-23.1 27.4-53.5a64.2 64.2 0 0 0-2.2-16.4c-3.7 13.5-12.1 25.9-25.2 36.9q-27.4 23-78 35.9t-120.5 13m0-209.2q69.9 0 120.5 12.9t78 36q27.5 23 27.4 53.4a64.4 64.4 0 0 1-2.2 16.5q-5.6-20.4-25.2-36.9-27.4-22.9-78-36t-120.5-12.9"/><path d="M225.9 102.7q-69.7 0-120.4 12.9t-78.1 36Q0 174.6 0 205a60.3 60.3 0 0 0 2.3 16.5c3.7-13.6 12-25.9 25.1-36.9q27.5-22.9 78.1-36t120.4-12.9"/><path d="M225.9 242.2q-69.7 0-120.4-13t-78.1-35.9Q0 170.2 0 139.9a60.3 60.3 0 0 1 2.3-16.5c3.7 13.6 12 25.9 25.1 36.9q27.5 22.9 78.1 35.9t120.4 13"/><path d="M225.9 242.2q69.9 0 120.5-13t78-35.9q27.5-23.1 27.4-53.4a64.4 64.4 0 0 0-2.2-16.5q-5.6 20.4-25.2 36.9-27.4 22.9-78 35.9t-120.5 13m0-209.2q69.9 0 120.5 13t78 35.9q27.5 23.1 27.4 53.4a64.4 64.4 0 0 1-2.2 16.5q-5.6-20.4-25.2-36.9-27.4-23-78-35.9T225.9 33m0-33q-69.7 0-120.4 13T27.4 48.9Q0 72 0 102.3a60.3 60.3 0 0 0 2.3 16.5c3.7-13.6 12-25.9 25.1-36.9q27.5-23 78.1-35.9t120.4-13"/></g></svg>