<svg xmlns="http://www.w3.org/2000/svg" viewBox="0 0 175 179.9"><path d="M87.5 179.9c-18 0-33.6-2.3-46.7-6.8s-23.1-10.7-30.2-18.7A40.7 40.7 0 0 1 0 126.5a41.2 41.2 0 0 1 .9-8.6 40.7 40.7 0 0 0 9.7 19.3c7.1 8 17.2 14.2 30.2 18.7s28.7 6.8 46.7 6.8m0 17.2c18 0 33.6-2.3 46.6-6.8s23.2-10.7 30.3-18.7a41.9 41.9 0 0 0 9.7-36.5 41.6 41.6 0 0 1-9.7 19.3c-7.1 8-17.2 14.2-30.3 18.7s-28.6 6.8-46.6 6.8m0-109.1c18 0 33.6 2.2 46.6 6.7s23.2 10.8 30.3 18.8a41.1 41.1 0 0 1 10.6 27.8 39.8 39.8 0 0 1-.9 8.6 41.3 41.3 0 0 0-9.7-19.2c-7.1-8-17.2-14.3-30.3-18.8s-28.6-6.7-46.6-6.7m0-17.2c-18 0-33.6 2.2-46.7 6.7S17.7 71.1 10.6 79.1A40.6 40.6 0 0 0 0 106.9a39.8 39.8 0 0 0 .9 8.6 40.4 40.4 0 0 1 9.7-19.2c7.1-8 17.2-14.3 30.2-18.8s28.7-6.7 46.7-6.7" style="fill:#221f1f"/><path d="M87.5 126.3c-18 0-33.6-2.2-46.7-6.7s-23.1-10.8-30.2-18.8A40.6 40.6 0 0 1 0 73a39.8 39.8 0 0 1 .9-8.6 40.4 40.4 0 0 0 9.7 19.2c7.1 8 17.2 14.3 30.2 18.8s28.7 6.7 46.7 6.7m0 17.2c18 0 33.6-2.2 46.6-6.7s23.2-10.8 30.3-18.8A41.1 41.1 0 0 0 175 73a39.8 39.8 0 0 0-.9-8.6 41.3 41.3 0 0 1-9.7 19.2c-7.1 8-17.2 14.3-30.3 18.8s-28.6 6.7-46.6 6.7M87.5 0c18 0 33.6 2.3 46.6 6.8s23.2 10.7 30.3 18.7a41.9 41.9 0 0 1 9.7 36.5 41.6 41.6 0 0 0-9.7-19.3c-7.1-8-17.2-14.2-30.3-18.7s-28.6-6.8-46.6-6.8m0-17.2c-18 0-33.6 2.3-46.7 6.8S17.7 17.5 10.6 25.5A40.7 40.7 0 0 0 0 53.4 41.2 41.2 0 0 0 .9 62a40.7 40.7 0 0 1 9.7-19.3c7.1-8 17.2-14.2 30.2-18.7s28.7-6.8 46.7-6.8" style="fill:#221f1f"/></svg>