<svg width="484" height="595" viewBox="0 0 484 595" fill="none" xmlns="http://www.w3.org/2000/svg">
<g clip-path="url(#clip0_534_1116)">
<path d="M241.995 595C192.141 595 149.122 590.371 112.969 581.123C76.805 571.864 48.9324 559.027 29.3509 542.588C9.79076 526.14 0 507.065 0 485.333C0 479.247 0.867671 473.385 2.42091 467.706C6.38435 482.237 15.3074 495.417 29.3509 507.226C48.9324 523.664 76.805 536.502 112.969 545.76C149.122 555.008 192.13 559.637 241.995 559.637" fill="#FAF5EE"/>
<path d="M241.995 595C291.849 595 334.868 590.371 371.021 581.123C407.185 571.864 435.057 559.027 454.639 542.588C474.21 526.15 484 507.065 484 485.333C484 479.247 483.133 473.385 481.58 467.706C477.616 482.237 468.693 495.417 454.65 507.226C435.068 523.664 407.195 536.502 371.032 545.76C334.879 555.008 291.87 559.637 242.006 559.637" fill="#FAF5EE"/>
<path d="M241.995 335.461C291.849 335.461 334.868 340.09 371.021 349.338C407.185 358.597 435.057 371.434 454.639 387.872C474.21 404.311 484 423.396 484 445.127C484 451.214 483.133 457.076 481.58 462.755C477.616 448.224 468.693 435.044 454.65 423.235C435.068 406.797 407.195 393.959 371.032 384.7C334.879 375.453 291.87 370.823 242.006 370.823" fill="#FAF5EE"/>
<path d="M241.995 335.461C192.141 335.461 149.122 340.09 112.969 349.338C76.805 358.597 48.9324 371.434 29.3509 387.872C9.79076 404.321 0 423.396 0 445.127C0 451.214 0.867671 457.076 2.42091 462.755C6.38435 448.224 15.3074 435.044 29.3509 423.235C48.9324 406.797 76.805 393.959 112.969 384.7C149.122 375.453 192.13 370.823 241.995 370.823" fill="#FAF5EE"/>
<path d="M241.995 369.569C192.141 369.569 149.122 364.94 112.969 355.692C76.805 346.434 48.9324 333.596 29.3509 317.158C9.79076 300.72 0 281.635 0 259.903C0 253.816 0.867671 247.955 2.42091 242.275C6.38435 256.806 15.3074 269.987 29.3509 281.796C48.9324 298.234 76.805 311.071 112.969 320.33C149.122 329.578 192.13 334.207 241.995 334.207" fill="#FAF5EE"/>
<path d="M241.995 369.569C291.849 369.569 334.868 364.94 371.021 355.692C407.185 346.434 435.057 333.596 454.639 317.158C474.21 300.72 484 281.635 484 259.903C484 253.816 483.133 247.955 481.58 242.275C477.616 256.806 468.693 269.987 454.65 281.796C435.068 298.234 407.195 311.071 371.032 320.33C334.879 329.578 291.87 334.207 242.006 334.207" fill="#FAF5EE"/>
<path d="M241.995 110.042C291.849 110.042 334.868 114.671 371.021 123.919C407.185 133.177 435.057 146.015 454.639 162.453C474.21 178.891 484 197.976 484 219.708C484 225.795 483.133 231.656 481.58 237.336C477.616 222.805 468.693 209.624 454.65 197.815C435.068 181.377 407.195 168.54 371.032 159.281C334.879 150.033 291.87 145.404 242.006 145.404" fill="#FAF5EE"/>
<path d="M241.995 110.042C192.141 110.042 149.122 114.671 112.969 123.919C76.805 133.177 48.9324 146.015 29.3509 162.453C9.79076 178.891 0 197.976 0 219.697C0 225.784 0.867671 231.645 2.42091 237.325C6.38435 222.794 15.3074 209.614 29.3509 197.805C48.9324 181.366 76.805 168.529 112.969 159.27C149.122 150.023 192.13 145.393 241.995 145.393" fill="#FAF5EE"/>
<path d="M241.995 259.528C192.141 259.528 149.122 254.899 112.969 245.651C76.805 236.393 48.9324 223.555 29.3509 207.117C9.79076 190.679 0 171.594 0 149.862C0 143.775 0.867671 137.914 2.42091 132.234C6.38435 146.765 15.3074 159.946 29.3509 171.755C48.9324 188.193 76.805 201.03 112.969 210.289C149.122 219.537 192.13 224.166 241.995 224.166" fill="#FAF5EE"/>
<path d="M241.995 259.528C291.849 259.528 334.868 254.899 371.021 245.651C407.185 236.393 435.057 223.555 454.639 207.117C474.21 190.679 484 171.594 484 149.862C484 143.775 483.133 137.914 481.58 132.234C477.616 146.765 468.693 159.946 454.65 171.755C435.068 188.193 407.195 201.03 371.032 210.289C334.879 219.537 291.87 224.166 242.006 224.166" fill="#FAF5EE"/>
<path d="M241.995 0C291.849 0 334.868 4.62927 371.021 13.8771C407.185 23.1356 435.057 35.9733 454.639 52.4114C474.21 68.8496 484 87.9346 484 109.666C484 115.753 483.133 121.615 481.58 127.294C477.616 112.763 468.693 99.5828 454.65 87.7739C435.068 71.3357 407.195 58.4981 371.032 49.2395C334.879 39.9917 291.87 35.3624 242.006 35.3624" fill="#FAF5EE"/>
<path d="M241.995 0C192.141 0 149.122 4.62927 112.969 13.8771C76.805 23.1356 48.9324 35.9733 29.3509 52.4114C9.79076 68.8496 0 87.9346 0 109.666C0 115.753 0.867671 121.615 2.42091 127.294C6.38435 112.763 15.3074 99.5828 29.3509 87.7739C48.9324 71.3357 76.805 58.4981 112.969 49.2395C149.122 39.9917 192.13 35.3624 241.995 35.3624" fill="#FAF5EE"/>
</g>
<defs>
<clipPath id="clip0_534_1116">
<rect width="484" height="595" fill="white"/>
</clipPath>
</defs>
</svg>
