<svg xmlns="http://www.w3.org/2000/svg" viewBox="0 0 57.6 57.6"><path d="M29 31.6a11 11 0 0 1-2 5.9 11.5 11.5 0 0 1-4.8 3.9 15.6 15.6 0 0 1-7 1.4 15.7 15.7 0 0 1-8.1-1.9 14.2 14.2 0 0 1-5.3-5.3 17.1 17.1 0 0 1-1.8-8 19.5 19.5 0 0 1 .2-2.5 15.4 15.4 0 0 0 1.6 5.5A13.8 13.8 0 0 0 7.1 36a15.7 15.7 0 0 0 8.1 1.9 15.6 15.6 0 0 0 7-1.4 11.5 11.5 0 0 0 4.8-3.9c1.2-1.7 2-5.9 2-5.9v4.9Z" style="fill:#231f20"/><path d="M57.6 26.1a11 11 0 0 0-1.9-6 11.5 11.5 0 0 0-4.8-3.9 17.3 17.3 0 0 0-7.1-1.4 16.2 16.2 0 0 0-8.1 1.9 13.5 13.5 0 0 0-5.2 5.4 16.7 16.7 0 0 0-1.8 7.9 20.1 20.1 0 0 0 .1 2.5 16.1 16.1 0 0 1 1.7-5.5 13.5 13.5 0 0 1 5.2-5.4 17.3 17.3 0 0 1 8.1-1.9 17.3 17.3 0 0 1 7.1 1.4 12.6 12.6 0 0 1 4.8 4c1.2 1.6 1.9 5.9 1.9 5.9v-4.9Z" style="fill:#231f20"/><path d="M26.1 29a11 11 0 0 1-6-2 11.5 11.5 0 0 1-3.9-4.8 17.1 17.1 0 0 1-1.4-7 15.7 15.7 0 0 1 1.9-8.1 13.8 13.8 0 0 1 5.4-5.3A16.7 16.7 0 0 1 30 0l2.5.2A16 16 0 0 0 27 1.8a13.8 13.8 0 0 0-5.4 5.3 16.7 16.7 0 0 0-1.9 8.1 17.1 17.1 0 0 0 1.4 7 12.6 12.6 0 0 0 4 4.8c1.6 1.2 5.9 2 5.9 2Z" style="fill:#231f20"/><path d="M31.6 57.6a10.9 10.9 0 0 0 5.9-1.9 11.5 11.5 0 0 0 3.9-4.8 15.8 15.8 0 0 0 1.4-7.1 16.2 16.2 0 0 0-1.9-8.1 13.9 13.9 0 0 0-5.3-5.2 17.1 17.1 0 0 0-8-1.8h-2.5a15.4 15.4 0 0 1 5.5 1.7 13.5 13.5 0 0 1 5.4 5.3 16.2 16.2 0 0 1 1.9 8.1 15.8 15.8 0 0 1-1.4 7.1 11.5 11.5 0 0 1-3.9 4.8c-1.7 1.2-5.9 1.9-5.9 1.9Z" style="fill:#231f20"/><path d="M27 30.9a11.8 11.8 0 0 1-5.5 2.9 12 12 0 0 1-6.2-.6 18.3 18.3 0 0 1-6.1-4 15.6 15.6 0 0 1-4.4-7 12.8 12.8 0 0 1 .1-7.5 15.7 15.7 0 0 1 4.2-6.9 14.1 14.1 0 0 1 1.8-1.7 15.4 15.4 0 0 0-2.6 5.1 13.7 13.7 0 0 0 0 7.5 16.2 16.2 0 0 0 4.4 7 17 17 0 0 0 6 4 13.3 13.3 0 0 0 6.2.6c2-.4 5.6-2.9 5.6-2.9L27 30.9Z" style="fill:#231f20"/><path d="M51.3 47.1a12.4 12.4 0 0 0 2.8-5.6 12.1 12.1 0 0 0-.7-6.2 16.1 16.1 0 0 0-4.1-6 16.2 16.2 0 0 0-7.1-4.3 13.7 13.7 0 0 0-7.5.2 17.5 17.5 0 0 0-6.9 4.4l-1.6 1.8a17.9 17.9 0 0 1 5.1-2.7 13.7 13.7 0 0 1 7.5-.2 16.2 16.2 0 0 1 7.1 4.3 17.4 17.4 0 0 1 4.1 6 12 12 0 0 1 .6 6.2c-.3 2-2.7 5.6-2.7 5.6l3.4-3.5Z" style="fill:#231f20"/><path d="M26.8 27a10.9 10.9 0 0 1-2.9-5.5 12 12 0 0 1 .5-6.2 18.3 18.3 0 0 1 4-6.1 16.2 16.2 0 0 1 7-4.4 12.8 12.8 0 0 1 7.5.1 16.6 16.6 0 0 1 7 4.2l1.6 1.8a15.4 15.4 0 0 0-5.1-2.6 13.7 13.7 0 0 0-7.5 0 16.2 16.2 0 0 0-7 4.4 17 17 0 0 0-4 6 12 12 0 0 0-.5 6.2c.4 2 2.9 5.6 2.9 5.6L26.8 27Z" style="fill:#231f20"/><path d="M10.6 51.3a11.9 11.9 0 0 0 5.6 2.8 12.2 12.2 0 0 0 6.2-.7 16.6 16.6 0 0 0 5.9-4.1 16.2 16.2 0 0 0 4.3-7.1 12.8 12.8 0 0 0-.2-7.5 17.2 17.2 0 0 0-4.3-6.9l-1.9-1.6a14 14 0 0 1 2.7 5.1 12.8 12.8 0 0 1 .2 7.5 16.2 16.2 0 0 1-4.3 7.1 18 18 0 0 1-5.9 4.1 12.1 12.1 0 0 1-6.2.6c-2-.3-5.6-2.7-5.6-2.7l3.5 3.4Z" style="fill:#231f20"/></svg>