<svg width="45" height="45" viewBox="0 0 45 45" fill="none" xmlns="http://www.w3.org/2000/svg">
<path d="M4 16H40.45C40.45 22.8617 35.0643 28.4312 28.4291 28.4312H16.0209C9.38566 28.4312 4 22.8617 4 16.0046V16Z" stroke="#231F20" stroke-width="1.25" stroke-linecap="round" stroke-linejoin="round"/>
<path d="M8.03906 21.3647C9.75948 21.3647 9.75948 23.0711 11.4799 23.0711C13.2003 23.0711 13.2003 21.3647 14.9207 21.3647C16.6412 21.3647 16.6412 23.0711 18.3616 23.0711C20.082 23.0711 20.082 21.3647 21.8024 21.3647C23.5228 21.3647 23.5228 23.0711 25.2432 23.0711C26.9637 23.0711 26.9637 21.3647 28.6841 21.3647C30.4045 21.3647 30.4045 23.0711 32.1293 23.0711C33.8541 23.0711 33.8497 21.3647 35.5746 21.3647" stroke="#231F20" stroke-width="1.25" stroke-linecap="round" stroke-linejoin="round"/>
</svg>
