<svg width="45" height="45" viewBox="0 0 45 45" fill="none" xmlns="http://www.w3.org/2000/svg">
<path d="M37.9952 18.9487H8V36.9998H37.9952V18.9487Z" stroke="#231F20" stroke-width="1.25" stroke-linecap="round" stroke-linejoin="round"/>
<path d="M23.0024 7L8 18.9488H38L23.0024 7Z" stroke="#231F20" stroke-width="1.25" stroke-linecap="round" stroke-linejoin="round"/>
<path d="M23.8559 27.9744H19.3105V36.9999H23.8559V27.9744Z" stroke="#231F20" stroke-width="1.25" stroke-linecap="round" stroke-linejoin="round"/>
<path d="M8 23.1213C9.15551 23.1213 9.15551 23.8478 10.3062 23.8478C11.4569 23.8478 11.4569 23.1213 12.6124 23.1213C13.7679 23.1213 13.7679 23.8478 14.9187 23.8478C16.0694 23.8478 16.0694 23.1213 17.2249 23.1213C18.3804 23.1213 18.3804 23.8478 19.5311 23.8478C20.6818 23.8478 20.6866 23.1213 21.8373 23.1213C22.988 23.1213 22.9928 23.8478 24.1435 23.8478C25.2942 23.8478 25.299 23.1213 26.4497 23.1213C27.6004 23.1213 27.6052 23.8478 28.756 23.8478C29.9067 23.8478 29.9115 23.1213 31.0622 23.1213C32.2129 23.1213 32.2177 23.8478 33.3732 23.8478C34.5287 23.8478 34.5287 23.1213 35.6842 23.1213C36.8397 23.1213 36.8397 23.8478 37.9952 23.8478" stroke="#231F20" stroke-width="1.25" stroke-linecap="round" stroke-linejoin="round"/>
<path d="M30.0131 32.4902C31.3212 32.4902 32.3816 31.2049 32.3816 29.6193C32.3816 28.0337 31.3212 26.7483 30.0131 26.7483C28.705 26.7483 27.6445 28.0337 27.6445 29.6193C27.6445 31.2049 28.705 32.4902 30.0131 32.4902Z" stroke="#231F20" stroke-width="1.25" stroke-linecap="round" stroke-linejoin="round"/>
</svg>
